<svg width="300" height="26" viewBox="0 0 300 26" fill="none" xmlns="http://www.w3.org/2000/svg">
<path d="M1.10312 16.7064C0.7109 16.4359 0.428991 16.1655 0.257395 15.895C0.0857983 15.6246 0 15.2558 0 14.7887V0.921987C0 0.553192 0.0612844 0.307328 0.183853 0.184397C0.306422 0.0614657 0.55156 0 0.919267 0H22.4301C23.2146 0 23.8397 0.184397 24.3054 0.553191C24.7957 0.921986 25.2737 1.38913 25.7395 1.95461C26.2298 2.5201 26.6588 3.13475 27.0265 3.79858C27.4187 4.46241 27.7251 5.16312 27.9457 5.90071C28.1909 6.6383 28.3134 7.37589 28.3134 8.11347V10.8794C28.3134 11.2482 28.2521 11.4941 28.1296 11.617C28.007 11.74 27.7619 11.8014 27.3942 11.8014H22.2463C21.8786 11.8014 21.6334 11.74 21.5109 11.617C21.3883 11.4941 21.327 11.2482 21.327 10.8794V10.3262C21.327 9.73617 21.2044 9.23215 20.9593 8.81418L20.1871 7.56028C19.7213 6.82269 19.0595 6.4539 18.2015 6.4539H7.9057C7.53799 6.4539 7.29285 6.51537 7.17028 6.6383C7.04772 6.76123 6.98643 7.00709 6.98643 7.37589V11.4326C6.98643 11.8014 7.01095 12.0842 7.05997 12.2809C7.13351 12.4775 7.30511 12.6742 7.57476 12.8709L25.0776 24.7092C25.3718 24.9059 25.4821 25.1395 25.4085 25.4099C25.335 25.6804 25.1634 25.8156 24.8938 25.8156H15.6275C14.8921 25.8156 14.2548 25.6312 13.7155 25.2624L1.10312 16.7064Z" fill="white"/>
<path d="M34.1853 20.2837C34.1853 19.9149 34.2465 19.669 34.3691 19.5461C34.4917 19.4232 34.7368 19.3617 35.1045 19.3617H52.3867C53.2447 19.3617 53.9066 18.9929 54.3724 18.2553L55.1445 17.0014C55.3897 16.5835 55.5123 16.0794 55.5123 15.4894V8.92482C55.5123 8.58061 55.4019 8.40851 55.1813 8.40851C55.0097 8.40851 54.7891 8.49456 54.5194 8.66667L44.9958 15.1206C44.4565 15.4894 43.8192 15.6738 43.0838 15.6738H35.1045C34.7368 15.6738 34.4917 15.6123 34.3691 15.4894C34.2465 15.3664 34.1853 15.1206 34.1853 14.7518V0.921987C34.1853 0.553192 34.2465 0.307328 34.3691 0.184397C34.4917 0.0614657 34.7368 0 35.1045 0H40.2524C40.6201 0 40.8653 0.0614657 40.9878 0.184397C41.1104 0.307328 41.1717 0.553192 41.1717 0.921987V8.7773C41.1717 9.1461 41.282 9.3305 41.5026 9.3305C41.6252 9.3305 41.8458 9.23215 42.1645 9.03546L54.7033 0.553191C54.9239 0.405674 55.1691 0.282742 55.4387 0.184397C55.7329 0.0614657 56.0638 0 56.4315 0H61.5794C61.9471 0 62.1923 0.0614657 62.3148 0.184397C62.4374 0.307328 62.4987 0.553192 62.4987 0.921987V17.7021C62.4987 18.4397 62.3761 19.1773 62.131 19.9149C61.9104 20.6525 61.6039 21.3532 61.2117 22.017C60.844 22.6808 60.415 23.2955 59.9247 23.861C59.459 24.4265 58.981 24.8936 58.4907 25.2624C58.0249 25.6312 57.3998 25.8156 56.6154 25.8156H35.1045C34.7368 25.8156 34.4917 25.7541 34.3691 25.6312C34.2465 25.5083 34.1853 25.2624 34.1853 24.8936V20.2837Z" fill="white"/>
<path d="M69.2898 6.4539C68.9221 6.4539 68.6769 6.39243 68.5544 6.2695C68.4318 6.14657 68.3705 5.90071 68.3705 5.53192V0.921987C68.3705 0.553192 68.4318 0.307328 68.5544 0.184397C68.6769 0.0614657 68.9221 0 69.2898 0H85.9469C86.3146 0 86.6455 0.0368797 86.9397 0.110639C87.2339 0.184398 87.5403 0.331916 87.859 0.553191L95.5808 5.75319C95.9976 6.02364 96.2795 6.29409 96.4265 6.56454C96.5981 6.83499 96.6839 7.20378 96.6839 7.67092V12.9447C96.6839 13.2151 96.6104 13.4241 96.4633 13.5716C96.3162 13.6946 96.1324 13.756 95.9118 13.756C95.6911 13.756 95.4705 13.6823 95.2499 13.5348L86.3881 7.56028C86.045 7.31442 85.6282 7.06856 85.1379 6.82269C84.6477 6.57683 84.1696 6.4539 83.7039 6.4539H69.2898ZM69.2898 25.8156C68.9221 25.8156 68.6769 25.7541 68.5544 25.6312C68.4318 25.5083 68.3705 25.2624 68.3705 24.8936V20.2837C68.3705 19.9149 68.4318 19.669 68.5544 19.5461C68.6769 19.4232 68.9221 19.3617 69.2898 19.3617H84.8805C85.2483 19.3617 85.4811 19.2634 85.5792 19.0667C85.6772 18.87 85.5179 18.6364 85.1012 18.366L82.4904 16.5957C82.0737 16.3253 81.6815 16.0794 81.3138 15.8582C80.9461 15.6123 80.5293 15.4894 80.0636 15.4894H69.3265C68.9343 15.4894 68.6769 15.4279 68.5544 15.305C68.4318 15.182 68.3705 14.9362 68.3705 14.5674V9.95745C68.3705 9.58865 68.4318 9.34279 68.5544 9.21986C68.6769 9.09693 68.9221 9.03546 69.2898 9.03546H82.0492C82.4169 9.03546 82.7478 9.08463 83.042 9.18298C83.3362 9.25674 83.6426 9.39196 83.9613 9.58865L95.5808 17.444C95.9485 17.6898 96.2182 17.9603 96.3898 18.2553C96.5859 18.5258 96.6839 18.8946 96.6839 19.3617V24.8936C96.6839 25.2624 96.6227 25.5083 96.5001 25.6312C96.3775 25.7541 96.1324 25.8156 95.7647 25.8156H69.2898Z" fill="white"/>
<path d="M103.475 25.8156C103.107 25.8156 102.862 25.7541 102.74 25.6312C102.617 25.5083 102.556 25.2624 102.556 24.8936V19.3617C102.556 18.6241 102.666 17.8865 102.887 17.1489C103.132 16.4113 103.438 15.7106 103.806 15.0468C104.198 14.383 104.627 13.7683 105.093 13.2028C105.583 12.6374 106.073 12.1702 106.564 11.8014C107.054 11.4326 107.679 11.2482 108.439 11.2482H123.993C124.459 11.2482 124.765 11.3712 124.912 11.617C125.059 11.8629 125.072 12.1702 124.949 12.539C124.679 13.3012 124.287 14.0879 123.772 14.8993C123.282 15.6861 122.62 16.4359 121.787 17.1489C121.346 17.5177 120.733 17.7021 119.948 17.7021H111.491C111.074 17.7021 110.756 17.7267 110.535 17.7759C110.314 17.8251 110.143 17.9972 110.02 18.2922L109.91 18.5872C109.812 18.8577 109.812 19.0544 109.91 19.1773C110.032 19.3002 110.278 19.3617 110.645 19.3617H129.95C130.318 19.3617 130.563 19.4232 130.685 19.5461C130.808 19.669 130.869 19.9149 130.869 20.2837V24.8936C130.869 25.2624 130.808 25.5083 130.685 25.6312C130.563 25.7541 130.318 25.8156 129.95 25.8156H103.475ZM103.475 6.4539C103.107 6.4539 102.862 6.39243 102.74 6.2695C102.617 6.14657 102.556 5.90071 102.556 5.53192V0.921987C102.556 0.553192 102.617 0.307328 102.74 0.184397C102.862 0.0614657 103.107 0 103.475 0H120.132C120.5 0 120.831 0.0368797 121.125 0.110639C121.419 0.184398 121.726 0.331916 122.044 0.553191L129.766 5.75319C130.183 6.02364 130.465 6.29409 130.612 6.56454C130.783 6.83499 130.869 7.20378 130.869 7.67092V13.166C130.869 13.4364 130.796 13.6454 130.649 13.7929C130.501 13.9158 130.318 13.9773 130.097 13.9773C129.876 13.9773 129.656 13.9035 129.435 13.756L120.242 7.56028C119.899 7.31442 119.519 7.06856 119.103 6.82269C118.71 6.57683 118.281 6.4539 117.816 6.4539H103.475Z" fill="white"/>
<path d="M137.66 25.8156C137.293 25.8156 137.047 25.7541 136.925 25.6312C136.802 25.5083 136.741 25.2624 136.741 24.8936V0.921987C136.741 0.553192 136.802 0.307328 136.925 0.184397C137.047 0.0614657 137.293 0 137.66 0H159.171C159.956 0 160.581 0.184397 161.046 0.553191C161.537 0.946572 162.015 1.42601 162.48 1.99149C162.971 2.53239 163.4 3.13475 163.767 3.79858C164.16 4.46241 164.466 5.16312 164.687 5.90071C164.932 6.6383 165.054 7.37589 165.054 8.11347V15.6738C165.054 16.0426 164.993 16.2884 164.871 16.4113C164.748 16.5343 164.503 16.5957 164.135 16.5957H158.987C158.62 16.5957 158.374 16.5343 158.252 16.4113C158.129 16.2884 158.068 16.0426 158.068 15.6738V10.3262C158.068 9.73617 157.945 9.23215 157.7 8.81418L156.928 7.56028C156.462 6.82269 155.8 6.4539 154.942 6.4539H144.647C144.279 6.4539 144.034 6.51537 143.911 6.6383C143.789 6.76123 143.727 7.00709 143.727 7.37589V9.03546C143.727 9.40425 143.764 9.77305 143.838 10.1418C143.911 10.5106 144.144 10.8303 144.536 11.1007L164.687 24.7092C164.981 24.9059 165.091 25.1395 165.018 25.4099C164.944 25.6804 164.773 25.8156 164.503 25.8156H155.568C154.857 25.8156 154.219 25.6312 153.656 25.2624L144.72 19.2142C144.402 19.0175 144.181 18.9191 144.058 18.9191C143.838 18.9191 143.727 19.1035 143.727 19.4723V24.8936C143.727 25.2624 143.666 25.5083 143.544 25.6312C143.421 25.7541 143.176 25.8156 142.808 25.8156H137.66Z" fill="white"/>
<path d="M171.846 25.8156C171.478 25.8156 171.233 25.7541 171.11 25.6312C170.988 25.5083 170.926 25.2624 170.926 24.8936V18.9929C170.926 18.2553 171.037 17.5177 171.257 16.7801C171.502 16.0426 171.809 15.3418 172.176 14.678C172.569 14.0142 172.998 13.3995 173.463 12.834C173.954 12.2686 174.444 11.8014 174.934 11.4326C175.425 11.0638 176.05 10.8794 176.81 10.8794H191.591C192.057 10.8794 192.364 11.0024 192.511 11.2482C192.658 11.4941 192.67 11.8014 192.547 12.1702C192.278 12.9324 191.886 13.7191 191.371 14.5305C190.88 15.3173 190.219 16.0671 189.385 16.7801C188.944 17.1489 188.331 17.3333 187.547 17.3333H181.038C180.18 17.3333 179.518 17.7021 179.053 18.4397L178.28 19.6936C178.035 20.1116 177.913 20.6156 177.913 21.2057V24.8936C177.913 25.2624 177.851 25.5083 177.729 25.6312C177.606 25.7541 177.361 25.8156 176.993 25.8156H171.846ZM171.846 6.4539C171.478 6.4539 171.233 6.39243 171.11 6.2695C170.988 6.14657 170.926 5.90071 170.926 5.53192V0.921987C170.926 0.553192 170.988 0.307328 171.11 0.184397C171.233 0.0614657 171.478 0 171.846 0H188.503C188.87 0 189.201 0.0368797 189.495 0.110639C189.79 0.184398 190.096 0.331916 190.415 0.553191L198.137 5.75319C198.553 6.02364 198.835 6.29409 198.982 6.56454C199.154 6.83499 199.24 7.20378 199.24 7.67092V13.166C199.24 13.4364 199.166 13.6454 199.019 13.7929C198.872 13.9158 198.688 13.9773 198.467 13.9773C198.247 13.9773 198.026 13.9035 197.806 13.756L188.613 7.56028C188.27 7.31442 187.89 7.06856 187.473 6.82269C187.081 6.57683 186.652 6.4539 186.186 6.4539H171.846Z" fill="#00E0FF"/>
<path d="M205.496 20.5418C205.08 20.2714 204.786 20.0009 204.614 19.7305C204.467 19.46 204.393 19.0913 204.393 18.6241V0.921987C204.393 0.553192 204.455 0.307328 204.577 0.184397C204.7 0.0614657 204.945 0 205.313 0H210.461C210.828 0 211.073 0.0614657 211.196 0.184397C211.318 0.307328 211.38 0.553192 211.38 0.921987V15.2681C211.38 15.6369 211.392 15.9196 211.417 16.1163C211.466 16.2884 211.649 16.4851 211.968 16.7064L214.285 18.2553C214.628 18.5012 214.996 18.747 215.388 18.9929C215.804 19.2388 216.246 19.3617 216.712 19.3617H231.788C232.155 19.3617 232.4 19.4232 232.523 19.5461C232.645 19.669 232.707 19.9149 232.707 20.2837V24.8936C232.707 25.2624 232.645 25.5083 232.523 25.6312C232.4 25.7541 232.155 25.8156 231.788 25.8156H214.395C214.027 25.8156 213.696 25.7787 213.402 25.705C213.133 25.6312 212.826 25.4837 212.483 25.2624L205.496 20.5418Z" fill="#00E0FF"/>
<path d="M241.509 25.2624C241.019 24.8936 240.529 24.4265 240.038 23.861C239.573 23.2955 239.144 22.6808 238.752 22.017C238.384 21.3532 238.077 20.6525 237.832 19.9149C237.612 19.1773 237.501 18.4397 237.501 17.7021V0.921987C237.501 0.553192 237.563 0.307328 237.685 0.184397C237.808 0.0614657 238.053 0 238.421 0H243.568C243.936 0 244.181 0.0614657 244.304 0.184397C244.426 0.307328 244.488 0.553192 244.488 0.921987V15.4894C244.488 16.0794 244.61 16.5835 244.855 17.0014L245.628 18.2553C246.093 18.9929 246.755 19.3617 247.613 19.3617H247.981C248.447 19.3617 248.876 19.2388 249.268 18.9929C249.685 18.747 250.065 18.5012 250.408 18.2553L258.019 13.0922C258.436 12.8217 258.669 12.5021 258.718 12.1333C258.792 11.7645 258.828 11.3957 258.828 11.0269V0.921987C258.828 0.553192 258.89 0.307328 259.012 0.184397C259.135 0.0614657 259.38 0 259.748 0H264.895C265.263 0 265.508 0.0614657 265.631 0.184397C265.753 0.307328 265.815 0.553192 265.815 0.921987V24.8936C265.815 25.2624 265.753 25.5083 265.631 25.6312C265.508 25.7541 265.263 25.8156 264.895 25.8156H259.748C259.38 25.8156 259.135 25.7541 259.012 25.6312C258.89 25.5083 258.828 25.2624 258.828 24.8936V21.2794C258.828 20.9106 258.73 20.7262 258.534 20.7262C258.363 20.7262 258.13 20.8246 257.836 21.0213L251.548 25.2624C251.008 25.6312 250.371 25.8156 249.636 25.8156H243.385C242.625 25.8156 242 25.6312 241.509 25.2624Z" fill="#00E0FF"/>
<path d="M271.687 19.6567C271.687 19.1896 271.772 18.8208 271.944 18.5504C272.14 18.2799 272.422 18.0095 272.79 17.739L278.967 13.5716C279.531 13.2028 279.531 12.834 278.967 12.4652L272.79 8.29787C272.373 8.02742 272.079 7.75697 271.907 7.48652C271.76 7.21608 271.687 6.84728 271.687 6.38014V0.921987C271.687 0.553192 271.748 0.307328 271.87 0.184397C271.993 0.0614657 272.238 0 272.606 0H277.754C278.121 0 278.367 0.0614657 278.489 0.184397C278.612 0.307328 278.673 0.553192 278.673 0.921987V3.02411C278.673 3.39291 278.685 3.67565 278.71 3.87234C278.759 4.04445 278.943 4.24114 279.261 4.46241L284.667 8.0766C285.206 8.44539 285.598 8.62979 285.843 8.62979C286.088 8.62979 286.481 8.44539 287.02 8.0766L292.425 4.46241C292.744 4.24114 292.915 4.04445 292.94 3.87234C292.989 3.67565 293.014 3.39291 293.014 3.02411V0.921987C293.014 0.553192 293.075 0.307328 293.197 0.184397C293.32 0.0614657 293.565 0 293.933 0H299.081C299.448 0 299.694 0.0614657 299.816 0.184397C299.939 0.307328 300 0.553192 300 0.921987V6.38014C300 6.84728 299.914 7.21608 299.743 7.48652C299.596 7.75697 299.314 8.02742 298.897 8.29787L292.719 12.4652C292.18 12.834 292.18 13.2028 292.719 13.5716L298.897 17.739C299.265 18.0095 299.534 18.2799 299.706 18.5504C299.902 18.8208 300 19.1896 300 19.6567V25.1886C300 25.4837 299.926 25.6927 299.779 25.8156C299.657 25.9385 299.497 26 299.301 26C299.056 26 298.823 25.9262 298.603 25.7787L287.02 17.9603C286.481 17.5915 286.088 17.4071 285.843 17.4071C285.598 17.4071 285.206 17.5915 284.667 17.9603L273.084 25.7787C272.863 25.9262 272.63 26 272.385 26C272.189 26 272.017 25.9385 271.87 25.8156C271.748 25.6927 271.687 25.4837 271.687 25.1886V19.6567Z" fill="#00E0FF"/>
</svg>
