<svg width="1000" height="86" viewBox="0 0 1000 86" fill="none" xmlns="http://www.w3.org/2000/svg">
<g opacity="0.4">
<path d="M3.67707 55.2596C2.36967 54.365 1.42997 53.4704 0.857983 52.5759C0.285994 51.6813 0 50.4615 0 48.9163V3.04965C0 1.82979 0.204281 1.01655 0.612844 0.609928C1.02141 0.203309 1.83853 0 3.06422 0H74.7671C77.3819 0 79.4656 0.609928 81.0181 1.82979C82.6524 3.04965 84.2457 4.5948 85.7983 6.46525C87.4325 8.3357 88.8625 10.3688 90.0882 12.5645C91.3956 14.7603 92.417 17.078 93.1524 19.5177C93.9695 21.9574 94.3781 24.3972 94.3781 26.8369V35.9858C94.3781 37.2057 94.1738 38.0189 93.7653 38.4255C93.3567 38.8321 92.5396 39.0355 91.3139 39.0355H74.1542C72.9285 39.0355 72.1114 38.8321 71.7029 38.4255C71.2943 38.0189 71.09 37.2057 71.09 35.9858V34.156C71.09 32.2043 70.6814 30.5371 69.8643 29.1546L67.2904 25.0071C65.7378 22.5674 63.5316 21.3475 60.6716 21.3475H26.3523C25.1266 21.3475 24.3095 21.5508 23.9009 21.9574C23.4924 22.3641 23.2881 23.1773 23.2881 24.3972V37.8156C23.2881 39.0355 23.3698 39.9707 23.5332 40.6213C23.7784 41.2719 24.3504 41.9225 25.2492 42.5731L83.592 81.7305C84.5726 82.3811 84.9403 83.1537 84.6952 84.0482C84.45 84.9428 83.878 85.3901 82.9792 85.3901H52.0918C49.6404 85.3901 47.5159 84.7801 45.7182 83.5603L3.67707 55.2596Z" fill="white"/>
<path d="M113.951 67.0922C113.951 65.8723 114.155 65.0591 114.564 64.6525C114.972 64.2459 115.789 64.0425 117.015 64.0425H174.622C177.482 64.0425 179.689 62.8227 181.241 60.383L183.815 56.2355C184.632 54.853 185.041 53.1858 185.041 51.234V29.5206C185.041 28.382 184.673 27.8128 183.938 27.8128C183.366 27.8128 182.63 28.0974 181.731 28.6667L149.986 50.0142C148.188 51.234 146.064 51.844 143.613 51.844H117.015C115.789 51.844 114.972 51.6407 114.564 51.234C114.155 50.8274 113.951 50.0142 113.951 48.7943V3.04965C113.951 1.82979 114.155 1.01655 114.564 0.609928C114.972 0.203309 115.789 0 117.015 0H134.175C135.4 0 136.218 0.203309 136.626 0.609928C137.035 1.01655 137.239 1.82979 137.239 3.04965V29.0326C137.239 30.2525 137.607 30.8624 138.342 30.8624C138.751 30.8624 139.486 30.5371 140.548 29.8865L182.344 1.82979C183.08 1.34184 183.897 0.935225 184.796 0.609928C185.776 0.203309 186.879 0 188.105 0H205.265C206.49 0 207.308 0.203309 207.716 0.609928C208.125 1.01655 208.329 1.82979 208.329 3.04965V58.5532C208.329 60.9929 207.92 63.4326 207.103 65.8723C206.368 68.312 205.346 70.6298 204.039 72.8255C202.813 75.0213 201.383 77.0544 199.749 78.9248C198.197 80.7953 196.603 82.3404 194.969 83.5603C193.416 84.7801 191.333 85.3901 188.718 85.3901H117.015C115.789 85.3901 114.972 85.1868 114.564 84.7801C114.155 84.3735 113.951 83.5603 113.951 82.3404V67.0922Z" fill="white"/>
<path d="M230.966 21.3475C229.74 21.3475 228.923 21.1442 228.515 20.7376C228.106 20.331 227.902 19.5177 227.902 18.2979V3.04965C227.902 1.82979 228.106 1.01655 228.515 0.609928C228.923 0.203309 229.74 0 230.966 0H286.49C287.715 0 288.818 0.121987 289.799 0.36596C290.78 0.609933 291.801 1.09787 292.863 1.82979L318.603 19.0298C319.992 19.9243 320.932 20.8189 321.422 21.7135C321.994 22.608 322.28 23.8279 322.28 25.373V42.817C322.28 43.7116 322.035 44.4028 321.544 44.8908C321.054 45.2974 320.441 45.5007 319.706 45.5007C318.97 45.5007 318.235 45.2567 317.5 44.7688L287.96 25.0071C286.816 24.1939 285.427 23.3806 283.793 22.5674C282.159 21.7541 280.565 21.3475 279.013 21.3475H230.966ZM230.966 85.3901C229.74 85.3901 228.923 85.1868 228.515 84.7801C228.106 84.3735 227.902 83.5603 227.902 82.3404V67.0922C227.902 65.8723 228.106 65.0591 228.515 64.6525C228.923 64.2459 229.74 64.0425 230.966 64.0425H282.935C284.161 64.0425 284.937 63.7173 285.264 63.0667C285.591 62.4161 285.06 61.6435 283.671 60.7489L274.968 54.8936C273.579 53.9991 272.272 53.1858 271.046 52.4539C269.82 51.6407 268.431 51.234 266.879 51.234H231.088C229.781 51.234 228.923 51.0307 228.515 50.6241C228.106 50.2175 227.902 49.4043 227.902 48.1844V32.9362C227.902 31.7163 228.106 30.9031 228.515 30.4965C228.923 30.0898 229.74 29.8865 230.966 29.8865H273.497C274.723 29.8865 275.826 30.0492 276.807 30.3745C277.787 30.6184 278.809 31.0657 279.871 31.7163L318.603 57.6993C319.828 58.5125 320.727 59.4071 321.299 60.383C321.953 61.2775 322.28 62.4974 322.28 64.0425V82.3404C322.28 83.5603 322.076 84.3735 321.667 84.7801C321.258 85.1868 320.441 85.3901 319.216 85.3901H230.966Z" fill="white"/>
<path d="M344.917 85.3901C343.691 85.3901 342.874 85.1868 342.465 84.7801C342.057 84.3735 341.853 83.5603 341.853 82.3404V64.0425C341.853 61.6028 342.22 59.1631 342.956 56.7234C343.773 54.2837 344.794 51.966 346.02 49.7702C347.327 47.5745 348.757 45.5414 350.31 43.6709C351.944 41.8005 353.578 40.2553 355.213 39.0355C356.847 37.8156 358.93 37.2057 361.464 37.2057H413.31C414.863 37.2057 415.884 37.6123 416.374 38.4255C416.865 39.2388 416.906 40.2553 416.497 41.4752C415.598 43.9962 414.291 46.5986 412.575 49.2823C410.941 51.8846 408.734 54.365 405.956 56.7234C404.485 57.9433 402.442 58.5532 399.828 58.5532H371.637C370.248 58.5532 369.185 58.6345 368.45 58.7972C367.715 58.9598 367.143 59.5291 366.734 60.505L366.366 61.4808C366.039 62.3754 366.039 63.026 366.366 63.4326C366.775 63.8392 367.592 64.0425 368.818 64.0425H433.166C434.392 64.0425 435.209 64.2459 435.618 64.6525C436.026 65.0591 436.231 65.8723 436.231 67.0922V82.3404C436.231 83.5603 436.026 84.3735 435.618 84.7801C435.209 85.1868 434.392 85.3901 433.166 85.3901H344.917ZM344.917 21.3475C343.691 21.3475 342.874 21.1442 342.465 20.7376C342.057 20.331 341.853 19.5177 341.853 18.2979V3.04965C341.853 1.82979 342.057 1.01655 342.465 0.609928C342.874 0.203309 343.691 0 344.917 0H400.44C401.666 0 402.769 0.121987 403.75 0.36596C404.73 0.609933 405.752 1.09787 406.814 1.82979L432.554 19.0298C433.943 19.9243 434.882 20.8189 435.373 21.7135C435.945 22.608 436.231 23.8279 436.231 25.373V43.5489C436.231 44.4435 435.985 45.1347 435.495 45.6227C435.005 46.0293 434.392 46.2326 433.657 46.2326C432.921 46.2326 432.186 45.9887 431.45 45.5007L400.808 25.0071C399.664 24.1939 398.398 23.3806 397.009 22.5674C395.701 21.7541 394.271 21.3475 392.719 21.3475H344.917Z" fill="white"/>
<path d="M458.868 85.3901C457.642 85.3901 456.825 85.1868 456.416 84.7801C456.008 84.3735 455.803 83.5603 455.803 82.3404V3.04965C455.803 1.82979 456.008 1.01655 456.416 0.609928C456.825 0.203309 457.642 0 458.868 0H530.57C533.185 0 535.269 0.609928 536.821 1.82979C538.456 3.13097 540.049 4.71679 541.602 6.58724C543.236 8.37636 544.666 10.3688 545.892 12.5645C547.199 14.7603 548.22 17.078 548.956 19.5177C549.773 21.9574 550.181 24.3972 550.181 26.8369V51.844C550.181 53.0638 549.977 53.8771 549.569 54.2837C549.16 54.6903 548.343 54.8936 547.117 54.8936H529.958C528.732 54.8936 527.915 54.6903 527.506 54.2837C527.098 53.8771 526.893 53.0638 526.893 51.844V34.156C526.893 32.2043 526.485 30.5371 525.668 29.1546L523.094 25.0071C521.541 22.5674 519.335 21.3475 516.475 21.3475H482.156C480.93 21.3475 480.113 21.5508 479.704 21.9574C479.296 22.3641 479.091 23.1773 479.091 24.3972V29.8865C479.091 31.1064 479.214 32.3262 479.459 33.5461C479.704 34.766 480.481 35.8232 481.788 36.7177L548.956 81.7305C549.936 82.3811 550.304 83.1537 550.059 84.0482C549.814 84.9428 549.242 85.3901 548.343 85.3901H518.559C516.189 85.3901 514.064 84.7801 512.185 83.5603L482.401 63.5546C481.339 62.904 480.603 62.5787 480.195 62.5787C479.459 62.5787 479.091 63.1887 479.091 64.4085V82.3404C479.091 83.5603 478.887 84.3735 478.479 84.7801C478.07 85.1868 477.253 85.3901 476.027 85.3901H458.868Z" fill="white"/>
<path d="M572.818 85.3901C571.593 85.3901 570.776 85.1868 570.367 84.7801C569.958 84.3735 569.754 83.5603 569.754 82.3404V62.8227C569.754 60.383 570.122 57.9433 570.857 55.5035C571.674 53.0638 572.696 50.7461 573.922 48.5504C575.229 46.3546 576.659 44.3215 578.211 42.4511C579.846 40.5806 581.48 39.0355 583.114 37.8156C584.748 36.5957 586.832 35.9858 589.365 35.9858H638.638C640.19 35.9858 641.212 36.3924 641.702 37.2057C642.192 38.0189 642.233 39.0355 641.825 40.2553C640.926 42.7764 639.618 45.3787 637.903 48.0624C636.268 50.6648 634.062 53.1451 631.284 55.5035C629.813 56.7234 627.77 57.3333 625.155 57.3333H603.461C600.601 57.3333 598.394 58.5532 596.842 60.9929L594.268 65.1404C593.451 66.5229 593.042 68.1901 593.042 70.1418V82.3404C593.042 83.5603 592.838 84.3735 592.429 84.7801C592.021 85.1868 591.204 85.3901 589.978 85.3901H572.818ZM572.818 21.3475C571.593 21.3475 570.776 21.1442 570.367 20.7376C569.958 20.331 569.754 19.5177 569.754 18.2979V3.04965C569.754 1.82979 569.958 1.01655 570.367 0.609928C570.776 0.203309 571.593 0 572.818 0H628.342C629.568 0 630.671 0.121987 631.652 0.36596C632.632 0.609933 633.654 1.09787 634.716 1.82979L660.455 19.0298C661.844 19.9243 662.784 20.8189 663.274 21.7135C663.846 22.608 664.132 23.8279 664.132 25.373V43.5489C664.132 44.4435 663.887 45.1347 663.397 45.6227C662.907 46.0293 662.294 46.2326 661.558 46.2326C660.823 46.2326 660.088 45.9887 659.352 45.5007L628.71 25.0071C627.566 24.1939 626.299 23.3806 624.91 22.5674C623.603 21.7541 622.173 21.3475 620.62 21.3475H572.818Z" fill="#00E0FF"/>
<path d="M684.988 67.9461C683.599 67.0515 682.618 66.157 682.047 65.2624C681.556 64.3679 681.311 63.148 681.311 61.6028V3.04965C681.311 1.82979 681.515 1.01655 681.924 0.609928C682.333 0.203309 683.15 0 684.375 0H701.535C702.761 0 703.578 0.203309 703.986 0.609928C704.395 1.01655 704.599 1.82979 704.599 3.04965V50.5021C704.599 51.722 704.64 52.6572 704.722 53.3078C704.885 53.8771 705.498 54.5277 706.56 55.2596L714.282 60.383C715.426 61.1962 716.652 62.0095 717.959 62.8227C719.348 63.6359 720.819 64.0425 722.372 64.0425H772.625C773.851 64.0425 774.668 64.2459 775.076 64.6525C775.485 65.0591 775.689 65.8723 775.689 67.0922V82.3404C775.689 83.5603 775.485 84.3735 775.076 84.7801C774.668 85.1868 773.851 85.3901 772.625 85.3901H714.65C713.424 85.3901 712.321 85.2681 711.341 85.0241C710.442 84.7801 709.42 84.2922 708.276 83.5603L684.988 67.9461Z" fill="#00E0FF"/>
<path d="M805.031 83.5603C803.397 82.3404 801.763 80.7953 800.128 78.9248C798.576 77.0544 797.146 75.0213 795.838 72.8255C794.613 70.6298 793.591 68.312 792.774 65.8723C792.039 63.4326 791.671 60.9929 791.671 58.5532V3.04965C791.671 1.82979 791.875 1.01655 792.284 0.609928C792.692 0.203309 793.51 0 794.735 0H811.895C813.121 0 813.938 0.203309 814.346 0.609928C814.755 1.01655 814.959 1.82979 814.959 3.04965V51.234C814.959 53.1858 815.368 54.853 816.185 56.2355L818.759 60.383C820.311 62.8227 822.518 64.0425 825.378 64.0425H826.603C828.156 64.0425 829.586 63.6359 830.893 62.8227C832.282 62.0095 833.549 61.1962 834.693 60.383L860.065 43.305C861.454 42.4104 862.23 41.3532 862.393 40.1333C862.638 38.9135 862.761 37.6936 862.761 36.4738V3.04965C862.761 1.82979 862.965 1.01655 863.374 0.609928C863.782 0.203309 864.6 0 865.825 0H882.985C884.211 0 885.028 0.203309 885.436 0.609928C885.845 1.01655 886.049 1.82979 886.049 3.04965V82.3404C886.049 83.5603 885.845 84.3735 885.436 84.7801C885.028 85.1868 884.211 85.3901 882.985 85.3901H865.825C864.6 85.3901 863.782 85.1868 863.374 84.7801C862.965 84.3735 862.761 83.5603 862.761 82.3404V70.3858C862.761 69.166 862.434 68.556 861.781 68.556C861.209 68.556 860.432 68.8813 859.452 69.5319L838.492 83.5603C836.695 84.7801 834.57 85.3901 832.119 85.3901H811.282C808.749 85.3901 806.665 84.7801 805.031 83.5603Z" fill="#00E0FF"/>
<path d="M905.622 65.0184C905.622 63.4733 905.908 62.2534 906.48 61.3589C907.134 60.4643 908.073 59.5697 909.299 58.6752L929.891 44.8908C931.77 43.6709 931.77 42.4511 929.891 41.2312L909.299 27.4468C907.91 26.5522 906.929 25.6577 906.357 24.7631C905.867 23.8686 905.622 22.6487 905.622 21.1035V3.04965C905.622 1.82979 905.826 1.01655 906.235 0.609928C906.643 0.203309 907.46 0 908.686 0H925.846C927.072 0 927.889 0.203309 928.297 0.609928C928.706 1.01655 928.91 1.82979 928.91 3.04965V10.0028C928.91 11.2227 928.951 12.1579 929.033 12.8085C929.196 13.3778 929.809 14.0284 930.871 14.7603L948.889 26.7149C950.686 27.9348 951.994 28.5447 952.811 28.5447C953.628 28.5447 954.935 27.9348 956.733 26.7149L974.751 14.7603C975.813 14.0284 976.385 13.3778 976.467 12.8085C976.63 12.1579 976.712 11.2227 976.712 10.0028V3.04965C976.712 1.82979 976.916 1.01655 977.325 0.609928C977.733 0.203309 978.55 0 979.776 0H996.936C998.161 0 998.979 0.203309 999.387 0.609928C999.796 1.01655 1000 1.82979 1000 3.04965V21.1035C1000 22.6487 999.714 23.8686 999.142 24.7631C998.652 25.6577 997.712 26.5522 996.323 27.4468L975.731 41.2312C973.934 42.4511 973.934 43.6709 975.731 44.8908L996.323 58.6752C997.549 59.5697 998.447 60.4643 999.019 61.3589C999.673 62.2534 1000 63.4733 1000 65.0184V83.3163C1000 84.2922 999.755 84.9835 999.265 85.3901C998.856 85.7967 998.325 86 997.671 86C996.854 86 996.078 85.756 995.342 85.2681L956.733 59.4071C954.935 58.1872 953.628 57.5773 952.811 57.5773C951.994 57.5773 950.686 58.1872 948.889 59.4071L910.28 85.2681C909.544 85.756 908.768 86 907.951 86C907.297 86 906.725 85.7967 906.235 85.3901C905.826 84.9835 905.622 84.2922 905.622 83.3163V65.0184Z" fill="#00E0FF"/>
</g>
</svg>
