<svg width="324" height="320" viewBox="0 0 324 320" fill="none" xmlns="http://www.w3.org/2000/svg">
<g clip-path="url(#clip0_48_432)">
<path fill-rule="evenodd" clip-rule="evenodd" d="M157.438 0.744629C188.577 0.744629 219.016 10.0488 244.906 27.4805C270.797 44.9123 290.976 69.6887 302.892 98.6767C314.808 127.665 317.926 159.562 311.851 190.336C305.777 221.109 290.782 249.376 268.764 271.563C246.746 293.749 218.693 308.858 188.153 314.979C157.613 321.101 125.957 317.959 97.1892 305.952C68.4212 293.945 43.8327 273.611 26.5331 247.523C9.23359 221.434 0 190.762 0 159.386C0 117.312 16.5872 76.9607 46.1126 47.2096C75.638 17.4586 115.683 0.744629 157.438 0.744629Z" fill="url(#paint0_radial_48_432)" style="mix-blend-mode:screen"/>
<path style="mix-blend-mode:screen" fill-rule="evenodd" clip-rule="evenodd" d="M157.438 0.744629C188.577 0.744629 219.016 10.0488 244.906 27.4805C270.797 44.9123 290.976 69.6887 302.892 98.6767C314.808 127.665 317.926 159.562 311.851 190.336C305.777 221.109 290.782 249.376 268.764 271.563C246.746 293.749 218.693 308.858 188.153 314.979C157.613 321.101 125.957 317.959 97.1892 305.952C68.4212 293.945 43.8327 273.611 26.5331 247.523C9.23359 221.434 0 190.762 0 159.386C0 117.312 16.5872 76.9607 46.1126 47.2096C75.638 17.4586 115.683 0.744629 157.438 0.744629Z" fill="url(#paint1_radial_48_432)"/>
<path style="mix-blend-mode:screen" fill-rule="evenodd" clip-rule="evenodd" d="M40.1727 103.261C37.2706 101.244 37.322 98.0849 31.4194 97.9557C25.7876 97.8328 21.8086 103.529 19.7459 109.583C13.2655 130.387 14.0377 152.798 21.9345 173.099C25.166 180.012 29.1811 186.524 33.8993 192.506C40.0561 200.882 52.6435 212.534 64.2489 208.532C69.1951 206.825 73.0198 202.69 77.8186 200.593C81.2385 199.244 84.8197 198.354 88.47 197.946C93.5377 197.2 98.6891 197.231 103.79 196.77C118.206 195.466 114.158 191.989 124.072 188.242C127.368 186.997 131.069 187.231 134.432 186.184C137.109 185.362 139.662 184.175 142.02 182.655C150.202 177.32 138.197 177.002 134.87 177.362C133.142 177.714 131.472 178.308 129.908 179.127C126.786 180.74 123.57 182.164 120.278 183.391C117.393 184.247 114.373 184.546 111.378 184.273C107.274 183.81 103.457 181.878 99.4134 181.038C97.0671 180.551 95.7703 180.821 93.4309 180.303C91.2594 180 89.1731 179.249 87.3025 178.097C77.8401 171.096 87.6576 159.928 100.143 160.896C103.707 161.573 107.387 161.268 110.794 160.013C111.047 159.773 111.213 159.455 111.266 159.108C111.32 158.762 111.257 158.408 111.088 158.102C110.707 157.476 110.248 156.901 109.722 156.392C107.008 153.637 104.361 150.47 105.859 146.153C106.117 145.413 106.538 144.742 107.09 144.189C107.642 143.636 108.31 143.215 109.045 142.959C111.817 141.873 115.024 142.926 117.946 142.37C119.524 142.209 121.008 141.538 122.177 140.459C123.876 138.521 124.126 135.608 125.679 133.55C131.756 125.493 147.86 128.08 157.342 126.198C161.515 125.641 165.507 124.132 169.015 121.787C172.038 119.444 173.145 109.074 176.602 105.908C180.25 103.24 184.286 101.157 188.567 99.7331C198.285 95.3008 205.462 96.0815 211.037 85.3239C212.918 81.696 212.653 77.1877 214.539 73.5617C215.945 70.858 222.261 68.14 223.44 65.3283C231.408 46.3166 202.457 12.1352 180.54 15.1923C167.798 16.9687 172.46 19.7001 179.27 23.2722C194.481 31.2516 203.496 38.355 202.281 57.0943C201.723 65.6979 192.258 64.0862 190.024 65.1807C189.261 65.5553 189.038 66.6784 189.003 67.5331C189.522 71.3813 189.669 75.2714 189.44 79.1482C188.477 82.9386 186.511 86.3942 183.75 89.1458C181.246 91.3334 178.235 92.8502 174.996 93.5564C171.664 94.4217 168.212 94.7199 164.782 94.4387C160.682 94.4313 156.62 93.6328 152.818 92.0864C148.989 90.0078 146.063 86.5705 144.607 82.4412C143.151 78.3119 143.269 73.7849 144.938 69.7384C146.239 67.2575 147.752 64.8962 149.462 62.6818C150.912 60.0586 147.961 57.9258 154.06 53.9579C158.971 50.7637 164.48 45.4234 148.148 50.3314C141.586 52.3052 134.425 53.2655 137.059 60.1819C137.811 61.7695 138.351 63.4506 138.665 65.1812C140.667 85.3698 127.301 81.2035 111.087 84.2946C107.986 84.6664 104.914 85.2559 101.894 86.0587C99.1959 86.981 97.0406 89.2169 94.3065 90.0286C88.7394 91.6813 80.6144 90.1949 75.0468 91.9398C74.3702 92.1626 73.7675 92.5684 73.3043 93.1129C72.8411 93.6574 72.5353 94.3197 72.4204 95.0274C72.2793 96.8434 77.201 100.296 72.5252 104.612C68.2101 107.197 63.1926 108.338 58.194 107.869C51.8665 108.166 45.5946 106.561 40.1727 103.261ZM58.8502 168.982C99.4481 167.509 82.8529 196.434 63.0814 189.124C59.9172 188.005 56.9588 186.366 54.3266 184.272C52.988 183.207 51.9974 181.762 51.483 180.123C50.9686 178.485 50.9541 176.728 51.4413 175.081C51.9286 173.434 52.8952 171.972 54.2161 170.885C55.5369 169.797 57.1513 169.134 58.8502 168.982Z" fill="url(#paint2_radial_48_432)"/>
<path fill-rule="evenodd" clip-rule="evenodd" d="M5.16118 199.825C3.98696 203.967 3.175 208.206 2.73461 212.491C2.71404 213.92 4.03482 215.054 4.92367 216.167C6.4951 218.462 8.38714 220.517 10.5413 222.268C13.7269 224.479 19.1236 223.497 22.5057 224.401C24.0307 224.808 25.1737 226.158 26.6644 226.679C28.7099 227.395 30.9568 227.386 33.0112 228.076C33.9598 228.394 39.4726 230.736 36.0024 232.34C34.9407 232.831 33.6375 232.215 32.5004 232.488C31.6187 232.668 30.8077 233.103 30.1659 233.738C28.8436 235.172 28.1972 237.149 26.8848 238.59C25.6556 239.937 22.8284 238.648 21.8142 237.598C19.6945 235.386 17.9022 232.879 16.4924 230.152C15.7982 232.027 15.3549 233.987 15.174 235.98C14.7947 238.436 14.6239 240.92 14.6633 243.405C14.6822 243.705 14.7635 243.997 14.9018 244.263C15.04 244.529 15.2322 244.763 15.4659 244.949C21.746 249.227 28.4149 252.895 35.3829 255.904C38.3556 256.827 41.3755 257.588 44.4295 258.183C52.6662 259.825 51.1387 257.607 58.5463 254.877C62.6166 253.336 66.7844 252.071 71.0219 251.09C79.9549 249.102 89.1622 248.414 98.0154 246.091C104.538 244.381 110.642 241.333 116.984 239.035C121.568 237.091 126.271 235.446 131.064 234.109C133.109 233.688 135.228 233.841 137.193 234.55C138.677 235.138 139.932 236.196 140.768 237.564C141.457 238.738 141.74 240.109 141.57 241.463C141.43 242.718 140.863 243.887 139.965 244.769C138.214 246.415 135.75 247.122 133.91 248.667C132.238 250.076 130.765 251.708 129.532 253.52C128.547 254.965 128.473 256.963 127.344 258.298C126.18 259.51 124.758 260.441 123.185 261.018C119.056 262.801 114.67 263.917 110.491 265.575C109.039 266.146 107.646 266.86 106.332 267.707C102.946 270.436 99.3878 272.941 95.6809 275.208C92.6109 276.465 89.3582 277.21 86.0505 277.413C79.856 278.137 73.589 277.998 67.374 278.516C62.846 278.893 58.2162 280.801 53.7822 278.804C52.1088 284.086 51.8647 289.722 53.0751 295.13C53.8944 298.158 57.2191 299.985 59.9312 301.526C62.6705 302.816 65.6047 303.636 68.6125 303.952C74.0175 304.92 79.5646 304.961 84.9545 306.01C87.4012 306.565 89.776 307.404 92.0315 308.509C94.6309 309.688 97.0085 311.317 99.5458 312.626C101.946 313.99 104.433 315.193 106.99 316.228C109.217 317.067 111.55 317.587 113.921 317.772C117.309 317.848 120.698 317.675 124.061 317.257C127.503 316.961 130.937 316.555 134.348 316.008C135.833 315.77 137.252 315.212 138.725 314.905C144.063 313.791 149.48 313.05 154.776 311.744C158.735 310.767 162.604 309.436 166.448 308.068C172.458 305.93 178.394 303.587 184.323 301.232C192.889 297.827 201.467 294.447 209.93 290.792C212.708 289.583 215.412 288.209 218.028 286.676C226.529 281.728 235.031 276.763 243.271 271.385C249.535 267.297 255.601 262.893 261.51 258.3C266.894 254.114 272.066 249.649 277.122 245.067C281.481 241.116 285.606 236.905 289.743 232.717C291.104 231.34 292.123 229.617 293.612 228.38C293.841 228.189 294.273 228.603 294.342 228.894C295.422 233.496 279.023 252.663 275.155 255.947C272.163 258.487 268.972 260.783 265.962 263.299C261.821 266.762 257.865 270.445 253.706 273.886C250.665 276.402 247.63 278.947 244.367 281.163C238.717 285.002 232.833 288.361 226.933 292.411C222.74 295.288 218.192 298.835 214.165 301.453C211.101 303.257 207.846 304.712 204.462 305.79C199.436 307.758 194.532 310.049 189.434 311.818C186.539 312.823 183.48 313.262 180.534 314.097C175.791 315.44 172.11 316.804 167.198 317.739C176.549 318.708 181.981 321.535 187.61 318.949C189.932 317.882 191.808 315.939 194.176 314.979C197.872 313.559 201.679 312.453 205.558 311.673C215.254 309.539 229.774 307.169 234.886 303.881C237.586 301.564 240.167 299.11 242.619 296.528C244.719 294.856 247.291 293.82 249.475 292.264C257.415 287.236 264.801 281.371 271.508 274.768C278.765 266.792 283.359 256.707 289.747 248.009C295.058 240.777 302.826 234.756 306.38 225.955C307.6 221.413 308.526 216.797 309.153 212.135C310.099 208.212 311.368 204.376 312.947 200.666C319.625 185.712 321.8 186.606 323.744 167.586C324.242 163.171 324.045 158.706 323.16 154.353C321.913 151.026 320.451 147.785 318.783 144.65C317.495 141.06 316.851 137.265 315.719 133.622C314.953 131.159 314.072 128.729 313.092 126.345C312.086 123.895 310.873 121.537 309.762 119.133C310.653 123.816 311.778 128.46 312.435 133.181C313.687 142.411 314.078 151.739 313.602 161.043C312.057 189.313 301.273 210.142 281.721 230.292C277.22 235.17 272.445 239.784 267.421 244.113C264.981 245.878 262.335 247.335 259.542 248.451C255.826 250.196 251.929 251.525 248.162 253.155C244.281 254.667 240.481 256.385 236.781 258.302C234.528 259.789 232.383 261.435 230.36 263.227C228.046 265.011 225.877 267.001 223.43 268.593C220.512 270.498 217.464 272.193 214.31 273.666C208.064 276.568 201.692 279.202 195.268 281.679C189.585 284.371 183.575 286.299 177.393 287.413C176.675 287.511 175.695 287.496 175.278 286.898C174.965 286.45 175.523 285.675 176.007 285.428C181.065 282.909 185.942 280.035 190.601 276.827C194.834 273.898 198.357 270.014 202.566 267.049C205.896 264.704 209.871 263.372 213.144 260.948C215.584 259.064 217.767 256.864 219.637 254.405C223.172 249.933 225.869 244.829 229.413 240.365C231.6 237.541 234.097 234.977 236.857 232.719C239.504 230.653 242.396 228.924 245.465 227.574C249.411 225.795 253.975 225.48 257.722 223.31C260.301 221.691 262.452 219.467 263.992 216.828C266.547 212.722 267.512 207.759 269.974 203.596C273.713 197.279 278.181 191.424 282.523 185.512C285.941 180.858 289.468 176.273 293.248 171.911C294.362 170.638 295.667 169.547 297.114 168.677C297.407 168.499 297.732 168.382 298.07 168.331C298.408 168.28 298.753 168.297 299.084 168.381C300.316 168.739 300.442 170.437 303.17 170.145C307.431 169.69 309.014 163.582 310.1 160.001C311.458 154.141 312.192 148.153 312.289 142.137C312.266 141.391 312.129 140.432 311.414 140.079C311.064 139.906 310.581 140.451 309.973 140.244C309.742 140.118 309.547 139.936 309.403 139.715C309.26 139.493 309.174 139.239 309.152 138.976C308.198 133.384 307.874 127.699 307.182 122.068C306.937 119.183 306.547 116.312 306.015 113.467C305.579 111.755 304.943 110.101 304.118 108.542C303.865 108.03 303.5 107.436 302.951 107.292C302.601 107.201 302.436 107.807 302.148 108.027C301.826 108.274 301.528 108.635 301.127 108.689C300.539 108.766 299.585 108.952 299.376 108.393C299.075 107.573 298.838 106.732 298.667 105.876C297.596 100.71 296.858 95.6498 295.655 90.3811C295.409 89.6026 295.202 88.812 295.035 88.0124C295.015 87.8456 295.143 87.5752 295.309 87.5895C295.554 87.6112 295.735 87.8713 295.856 88.086C296.6 89.403 297.202 90.7961 297.882 92.1482C298.485 93.3507 299.116 94.6406 299.705 95.7505C300.241 96.7591 300.573 95.8985 300.581 95.6024C300.605 93.7628 300.359 91.9297 299.851 90.1625C298.905 86.6741 297.711 83.2592 296.276 79.9443C294.819 75.3462 293.114 70.8315 291.169 66.4204C283.953 60.0593 277.155 53.2332 270.816 45.985C264.418 37.8577 256.054 21.7791 248.779 17.0088C246.361 15.4243 242.562 17.6843 233.464 13.0507C228.101 10.2885 222.954 7.11822 218.069 3.56731C213.648 0.424922 164.026 -1.2193 148.688 1.0684C148.915 3.35709 152.576 4.02623 154.962 4.08248C158.039 4.15502 161.084 3.39163 164.155 3.20017C164.645 3.16957 165.502 2.93814 165.614 3.42075C165.732 3.92803 164.868 4.1491 164.447 4.45011C162.541 5.51704 160.796 6.85378 159.267 8.41954C157.842 10.1289 161.307 9.92412 162.122 9.98185C166.29 10.2779 173.416 10.5459 175.171 10.6234C178.207 10.7605 181.271 10.1225 184.291 10.4753C187.607 10.8638 190.865 11.6544 193.994 12.8301C196.022 13.9029 197.995 15.0807 199.903 16.3589C203.322 18.2334 206.884 19.8312 210.554 21.1371C212.754 21.4827 214.97 21.7036 217.194 21.7989C218.311 22.1498 219.407 22.567 220.475 23.0483C222.174 23.3315 223.838 23.7998 225.437 24.4448C227.424 25.5452 229.143 27.0771 230.47 28.9294C231.79 31.2863 232.796 33.8082 233.462 36.4301C234.498 39.4979 234.882 42.7923 236.161 45.7659C236.939 47.2844 237.976 48.6531 239.225 49.8094C241.311 52.1977 243.633 54.3652 246.156 56.2782C248.495 57.8988 249.197 54.8136 249.658 54.367C249.868 54.1632 250.269 54.2417 250.533 54.367C251.174 54.5853 251.734 54.9958 252.138 55.5434C252.804 56.8596 253.364 58.2271 253.814 59.6328C254.745 62.2215 254.542 62.1796 256.515 63.8499C257.85 64.98 259.274 66.0113 260.528 67.2317C261.473 68.0563 262.285 69.0234 262.936 70.0987C263.691 71.5819 264.231 73.1664 264.54 74.8039C264.87 76.416 264.629 78.1066 264.905 79.7291C265.042 80.4144 265.315 81.0646 265.708 81.6403C266.581 82.986 267.857 84.0548 268.626 85.4632C269.454 86.9776 269.682 88.7694 270.45 90.3149C271.343 92.1156 273.12 93.5042 273.587 95.4613C274.043 100.593 272.949 105.743 270.45 110.237C268.918 112.431 267.184 114.473 265.271 116.339C262.997 118.719 260.854 121.223 258.851 123.839C257.753 125.763 256.826 127.78 256.079 129.868C254.26 133.926 252.885 138.211 250.68 142.07C248.88 145.028 246.776 147.788 244.406 150.304C241.728 153.314 238.852 156.138 235.797 158.758C232.078 161.939 227.934 164.584 224.124 167.653C220.539 170.54 217.271 173.822 213.619 176.621C209.659 179.737 205.518 182.609 201.216 185.223C197.698 187.157 194.067 188.875 190.344 190.369C187.739 191.508 184.982 192.28 182.392 193.456C180.28 194.416 178.295 195.641 176.264 196.762C172.848 198.652 169.496 200.661 166.05 202.496C162.691 204.42 159.233 206.162 155.69 207.716C153.556 208.543 151.325 209.087 149.051 209.333C148.166 209.477 147.26 209.294 146.498 208.819C146.285 208.631 146.141 208.377 146.088 208.098C146.034 207.818 146.075 207.528 146.204 207.275C146.928 206.279 147.879 205.472 148.976 204.922C152.933 202.666 157.08 200.767 161.16 198.747C165.592 196.553 170.163 194.637 174.511 192.278C177.781 190.543 180.926 188.577 183.922 186.397C187.839 183.561 191.545 180.441 195.011 177.061C199.976 172.101 204.244 166.475 209.017 161.329C211.248 158.925 213.634 156.667 216.02 154.421C218.449 152.134 221.116 150.105 223.461 147.731C226.474 144.682 229.375 141.511 232.07 138.175C234.479 135.163 236.722 132.021 238.788 128.761C240.909 126.008 242.629 122.963 243.895 119.719C245.451 113.214 246.549 106.605 247.179 99.9439C247.737 96.7381 248.055 93.4944 248.128 90.2404C248.104 87.1809 247.002 84.1851 247.034 81.1246C247.236 79.5786 247.653 78.0691 248.273 76.6405C248.737 75.5988 249.103 74.516 249.368 73.4059C249.342 70.2742 249.049 67.1506 248.492 64.0695C248.266 63.1902 247.832 62.3789 247.228 61.7043C246.624 61.0298 245.868 60.5118 245.023 60.1944C244.179 59.877 243.27 59.7695 242.376 59.881C241.481 59.9925 240.626 60.3197 239.883 60.8349C238.327 62.1408 237.186 63.8794 236.602 65.8342C236.015 67.7942 235.961 69.885 235.435 71.8623C234.318 76.0607 232.906 75.962 228.796 77.3023C225.62 78.3386 222.244 78.6929 219.093 79.8017C218.042 80.1103 217.12 80.7554 216.466 81.6393C215.908 82.784 215.608 84.0396 215.591 85.3151C215.663 86.7854 215.639 88.2588 215.518 89.7257C214.517 93.6547 209.89 96.611 207.055 99.2827C205.812 100.454 204.905 102.069 203.407 102.885C201.179 103.925 198.824 104.666 196.404 105.09C193.545 105.773 190.564 105.879 187.723 106.634C185.837 107.132 184.022 107.873 182.324 108.839C181.135 109.503 180.093 110.403 179.26 111.486C178.944 112.069 178.829 112.741 178.932 113.397C178.942 113.794 179.098 114.174 179.369 114.463C179.696 114.785 180.3 114.714 180.61 115.051C181.454 115.962 180.626 118.333 179.406 119.461C178.669 120.144 177.391 120.011 176.67 120.711C175.559 121.793 175.125 123.429 174.116 124.61C170.191 129.417 164.67 132.629 158.576 133.652C155.642 133.895 152.693 133.356 149.749 133.356C146.051 133.356 142.35 133.417 138.66 133.652C133.028 134.008 129.136 133.717 126.038 139.018C125.416 140.48 124.709 141.904 123.923 143.282C123.322 143.994 122.54 144.527 121.661 144.826C120.505 145.221 119.304 145.468 118.086 145.561C116.403 145.519 114.719 145.618 113.052 145.857C112.236 146.205 111.565 146.829 111.156 147.621C110.539 148.392 110.204 149.352 110.207 150.341C110.346 151.338 111.582 151.883 111.885 152.841C112.121 153.589 111.516 154.441 111.738 155.193C111.972 156.03 112.488 156.758 113.197 157.252C113.933 157.567 114.735 157.693 115.532 157.619C117.709 157.529 119.89 157.578 122.061 157.767C122.574 157.837 123.048 158.079 123.407 158.455C123.766 158.83 123.989 159.316 124.039 159.835C124.09 160.353 123.965 160.874 123.686 161.313C123.406 161.751 122.988 162.082 122.499 162.251C119.461 162.778 116.388 163.085 113.306 163.17C112.553 163.219 111.781 162.852 111.045 163.022C109.306 163.757 107.528 164.395 105.72 164.933C103.516 165.191 101.269 164.041 99.081 164.419C96.9713 165.164 94.9223 166.073 92.9526 167.139C91.4048 167.374 89.8705 167.693 88.3566 168.094C83.644 170.315 83.8414 175.313 88.1372 176.254C91.7788 177.053 95.6079 176.402 99.2999 176.916C104.865 178.409 110.615 179.078 116.371 178.901C120.21 178.758 124.024 178.216 127.752 177.284C129.354 176.846 130.412 175.176 131.983 174.637C133.914 173.975 136.186 174.613 138.039 173.755C139.633 173.015 140.289 170.918 141.833 170.08C143.567 169.4 145.382 168.955 147.231 168.756C150.048 168.099 152.86 167.419 155.694 166.845C157.647 166.45 161.741 165.874 161.385 169.271C161.249 170.767 160.747 172.207 159.926 173.461C158.637 175.343 157.032 176.985 155.184 178.313C153.054 179.832 150.398 180.456 148.181 181.841C146.728 182.749 145.796 184.435 144.241 185.148C140.225 186.992 135.871 187.979 131.693 189.412C128.941 190.355 126.131 191.149 123.449 192.278C122.589 192.726 121.782 193.269 121.041 193.896C119.225 195.195 117.53 196.673 115.642 197.866C114.101 198.927 112.434 199.791 110.681 200.438C106.625 201.653 102.51 202.659 98.3518 203.453C95.8209 203.992 93.2269 204.184 90.6916 204.702C87.5814 205.337 84.4922 206.084 81.4256 206.907C79.0181 207.555 76.639 208.315 74.2756 209.113C72.5028 209.712 70.828 210.606 69.0229 211.098C67.5624 211.453 66.0729 211.675 64.5728 211.76C60.4939 212.1 56.4037 212.282 52.316 212.494C49.3287 212.65 46.3355 212.804 43.3424 212.862C41.2772 213.019 39.2024 212.995 37.1415 212.788C33.2663 212.176 29.4969 211.009 25.6874 210.068C23.2471 209.466 20.8293 208.771 18.3905 208.157C16.8396 207.766 15.2304 207.583 13.721 207.054C12.3045 206.661 10.9699 206.013 9.78122 205.143C8.10809 203.493 6.56419 201.714 5.16118 199.825ZM47.9756 171.473C46.8893 172.571 46.1745 173.986 45.933 175.517C45.123 182.096 55.5805 186.555 62.2104 188.267C65.4729 189.109 67.3852 188.834 72.5616 186.102C73.3515 185.685 74.4965 185.688 74.9691 184.926C75.9392 183.362 75.7987 181.304 76.5739 179.633C77.2252 178.229 78.5759 177.226 79.2003 175.81C79.3536 175.476 79.433 175.112 79.433 174.744C79.433 174.376 79.3536 174.013 79.2003 173.678C78.6702 172.47 77.7425 171.483 76.5739 170.885C72.2124 169.185 51.7871 167.483 47.9756 171.473Z" fill="url(#paint3_radial_48_432)" style="mix-blend-mode:screen"/>
<g style="mix-blend-mode:multiply">
<path fill-rule="evenodd" clip-rule="evenodd" d="M5.16118 199.825C3.98696 203.967 3.175 208.206 2.73461 212.491C2.71404 213.92 4.03482 215.054 4.92367 216.167C6.4951 218.462 8.38714 220.517 10.5413 222.268C13.7269 224.479 19.1236 223.497 22.5057 224.401C24.0307 224.808 25.1737 226.158 26.6644 226.679C28.7099 227.395 30.9568 227.386 33.0112 228.076C33.9598 228.394 39.4726 230.736 36.0024 232.34C34.9407 232.831 33.6375 232.215 32.5004 232.488C31.6187 232.668 30.8077 233.103 30.1659 233.738C28.8436 235.172 28.1972 237.149 26.8848 238.59C25.6556 239.937 22.8284 238.648 21.8142 237.598C19.6945 235.386 17.9022 232.879 16.4924 230.152C15.7982 232.027 15.3549 233.987 15.174 235.98C14.7947 238.436 14.6239 240.92 14.6633 243.405C14.6822 243.705 14.7635 243.997 14.9018 244.263C15.04 244.529 15.2322 244.763 15.4659 244.949C21.746 249.227 28.4149 252.895 35.3829 255.904C38.3556 256.827 41.3755 257.588 44.4295 258.183C52.6662 259.825 51.1387 257.607 58.5463 254.877C62.6166 253.336 66.7844 252.071 71.0219 251.09C79.9549 249.102 89.1622 248.414 98.0154 246.091C104.538 244.381 110.642 241.333 116.984 239.035C121.568 237.091 126.271 235.446 131.064 234.109C133.109 233.688 135.228 233.841 137.193 234.55C138.677 235.138 139.932 236.196 140.768 237.564C141.457 238.738 141.74 240.109 141.57 241.463C141.43 242.718 140.863 243.887 139.965 244.769C138.214 246.415 135.75 247.122 133.91 248.667C132.238 250.076 130.765 251.708 129.532 253.52C128.547 254.965 128.473 256.963 127.344 258.298C126.18 259.51 124.758 260.441 123.185 261.018C119.056 262.801 114.67 263.917 110.491 265.575C109.039 266.146 107.646 266.86 106.332 267.707C102.946 270.436 99.3878 272.941 95.6809 275.208C92.6109 276.465 89.3582 277.21 86.0505 277.413C79.856 278.137 73.589 277.998 67.374 278.516C62.846 278.893 58.2162 280.801 53.7822 278.804C52.1088 284.086 51.8647 289.722 53.0751 295.13C53.8944 298.158 57.2191 299.985 59.9312 301.526C62.6705 302.816 65.6047 303.636 68.6125 303.952C74.0175 304.92 79.5646 304.961 84.9545 306.01C87.4012 306.565 89.776 307.404 92.0315 308.509C94.6309 309.688 97.0085 311.317 99.5458 312.626C101.946 313.99 104.433 315.193 106.99 316.228C109.217 317.067 111.55 317.587 113.921 317.772C117.309 317.848 120.698 317.675 124.061 317.257C127.503 316.961 130.937 316.555 134.348 316.008C135.833 315.77 137.252 315.212 138.725 314.905C144.063 313.791 149.48 313.05 154.776 311.744C158.735 310.767 162.604 309.436 166.448 308.068C172.458 305.93 178.394 303.587 184.323 301.232C192.889 297.827 201.467 294.447 209.93 290.792C212.708 289.583 215.412 288.209 218.028 286.676C226.529 281.728 235.031 276.763 243.271 271.385C249.535 267.297 255.601 262.893 261.51 258.3C266.894 254.114 272.066 249.649 277.122 245.067C281.481 241.116 285.606 236.905 289.743 232.717C291.104 231.34 292.123 229.617 293.612 228.38C293.841 228.189 294.273 228.603 294.342 228.894C295.422 233.496 279.023 252.663 275.155 255.947C272.163 258.487 268.972 260.783 265.962 263.299C261.821 266.762 257.865 270.445 253.706 273.886C250.665 276.402 247.63 278.947 244.367 281.163C238.717 285.002 232.833 288.361 226.933 292.411C222.74 295.288 218.192 298.835 214.165 301.453C211.101 303.257 207.846 304.712 204.462 305.79C199.436 307.758 194.532 310.049 189.434 311.818C186.539 312.823 183.48 313.262 180.534 314.097C175.791 315.44 172.11 316.804 167.198 317.739C176.549 318.708 181.981 321.535 187.61 318.949C189.932 317.882 191.808 315.939 194.176 314.979C197.872 313.559 201.679 312.453 205.558 311.673C215.254 309.539 229.774 307.169 234.886 303.881C237.586 301.564 240.167 299.11 242.619 296.528C244.719 294.856 247.291 293.82 249.475 292.264C257.415 287.236 264.801 281.371 271.508 274.768C278.765 266.792 283.359 256.707 289.747 248.009C295.058 240.777 302.826 234.756 306.38 225.955C307.6 221.413 308.526 216.797 309.153 212.135C310.099 208.212 311.368 204.376 312.947 200.666C319.625 185.712 321.8 186.606 323.744 167.586C324.242 163.171 324.045 158.706 323.16 154.353C321.913 151.026 320.451 147.785 318.783 144.65C317.495 141.06 316.851 137.265 315.719 133.622C314.953 131.159 314.072 128.729 313.092 126.345C312.086 123.895 310.873 121.537 309.762 119.133C310.653 123.816 311.778 128.46 312.435 133.181C313.687 142.411 314.078 151.739 313.602 161.043C312.057 189.313 301.273 210.142 281.721 230.292C277.22 235.17 272.445 239.784 267.421 244.113C264.981 245.878 262.335 247.335 259.542 248.451C255.826 250.196 251.929 251.525 248.162 253.155C244.281 254.667 240.481 256.385 236.781 258.302C234.528 259.789 232.383 261.435 230.36 263.227C228.046 265.011 225.877 267.001 223.43 268.593C220.512 270.498 217.464 272.193 214.31 273.666C208.064 276.568 201.692 279.202 195.268 281.679C189.585 284.371 183.575 286.299 177.393 287.413C176.675 287.511 175.695 287.496 175.278 286.898C174.965 286.45 175.523 285.675 176.007 285.428C181.065 282.909 185.942 280.035 190.601 276.827C194.834 273.898 198.357 270.014 202.566 267.049C205.896 264.704 209.871 263.372 213.144 260.948C215.584 259.064 217.767 256.864 219.637 254.405C223.172 249.933 225.869 244.829 229.413 240.365C231.6 237.541 234.097 234.977 236.857 232.719C239.504 230.653 242.396 228.924 245.465 227.574C249.411 225.795 253.975 225.48 257.722 223.31C260.301 221.691 262.452 219.467 263.992 216.828C266.547 212.722 267.512 207.759 269.974 203.596C273.713 197.279 278.181 191.424 282.523 185.512C285.941 180.858 289.468 176.273 293.248 171.911C294.362 170.638 295.667 169.547 297.114 168.677C297.407 168.499 297.732 168.382 298.07 168.331C298.408 168.28 298.753 168.297 299.084 168.381C300.316 168.739 300.442 170.437 303.17 170.145C307.431 169.69 309.014 163.582 310.1 160.001C311.458 154.141 312.192 148.153 312.289 142.137C312.266 141.391 312.129 140.432 311.414 140.079C311.064 139.906 310.581 140.451 309.973 140.244C309.742 140.118 309.547 139.936 309.403 139.715C309.26 139.493 309.174 139.239 309.152 138.976C308.198 133.384 307.874 127.699 307.182 122.068C306.937 119.183 306.547 116.312 306.015 113.467C305.579 111.755 304.943 110.101 304.118 108.542C303.865 108.03 303.5 107.436 302.951 107.292C302.601 107.201 302.436 107.807 302.148 108.027C301.826 108.274 301.528 108.635 301.127 108.689C300.539 108.766 299.585 108.952 299.376 108.393C299.075 107.573 298.838 106.732 298.667 105.876C297.596 100.71 296.858 95.6498 295.655 90.3811C295.409 89.6026 295.202 88.812 295.035 88.0124C295.015 87.8456 295.143 87.5752 295.309 87.5895C295.554 87.6112 295.735 87.8713 295.856 88.086C296.6 89.403 297.202 90.7961 297.882 92.1482C298.485 93.3507 299.116 94.6406 299.705 95.7505C300.241 96.7591 300.573 95.8985 300.581 95.6024C300.605 93.7628 300.359 91.9297 299.851 90.1625C298.905 86.6741 297.711 83.2592 296.276 79.9443C294.819 75.3462 293.114 70.8315 291.169 66.4204C283.953 60.0593 277.155 53.2332 270.816 45.985C264.418 37.8577 256.054 21.7791 248.779 17.0088C246.361 15.4243 242.562 17.6843 233.464 13.0507C228.101 10.2885 222.954 7.11822 218.069 3.56731C213.648 0.424922 164.026 -1.2193 148.688 1.0684C148.915 3.35709 152.576 4.02623 154.962 4.08248C158.039 4.15502 161.084 3.39163 164.155 3.20017C164.645 3.16957 165.502 2.93814 165.614 3.42075C165.732 3.92803 164.868 4.1491 164.447 4.45011C162.541 5.51704 160.796 6.85378 159.267 8.41954C157.842 10.1289 161.307 9.92412 162.122 9.98185C166.29 10.2779 173.416 10.5459 175.171 10.6234C178.207 10.7605 181.271 10.1225 184.291 10.4753C187.607 10.8638 190.865 11.6544 193.994 12.8301C196.022 13.9029 197.995 15.0807 199.903 16.3589C203.322 18.2334 206.884 19.8312 210.554 21.1371C212.754 21.4827 214.97 21.7036 217.194 21.7989C218.311 22.1498 219.407 22.567 220.475 23.0483C222.174 23.3315 223.838 23.7998 225.437 24.4448C227.424 25.5452 229.143 27.0771 230.47 28.9294C231.79 31.2863 232.796 33.8082 233.462 36.4301C234.498 39.4979 234.882 42.7923 236.161 45.7659C236.939 47.2844 237.976 48.6531 239.225 49.8094C241.311 52.1977 243.633 54.3652 246.156 56.2782C248.495 57.8988 249.197 54.8136 249.658 54.367C249.868 54.1632 250.269 54.2417 250.533 54.367C251.174 54.5853 251.734 54.9958 252.138 55.5434C252.804 56.8596 253.364 58.2271 253.814 59.6328C254.745 62.2215 254.542 62.1796 256.515 63.8499C257.85 64.98 259.274 66.0113 260.528 67.2317C261.473 68.0563 262.285 69.0234 262.936 70.0987C263.691 71.5819 264.231 73.1664 264.54 74.8039C264.87 76.416 264.629 78.1066 264.905 79.7291C265.042 80.4144 265.315 81.0646 265.708 81.6403C266.581 82.986 267.857 84.0548 268.626 85.4632C269.454 86.9776 269.682 88.7694 270.45 90.3149C271.343 92.1156 273.12 93.5042 273.587 95.4613C274.043 100.593 272.949 105.743 270.45 110.237C268.918 112.431 267.184 114.473 265.271 116.339C262.997 118.719 260.854 121.223 258.851 123.839C257.753 125.763 256.826 127.78 256.079 129.868C254.26 133.926 252.885 138.211 250.68 142.07C248.88 145.028 246.776 147.788 244.406 150.304C241.728 153.314 238.852 156.138 235.797 158.758C232.078 161.939 227.934 164.584 224.124 167.653C220.539 170.54 217.271 173.822 213.619 176.621C209.659 179.737 205.518 182.609 201.216 185.223C197.698 187.157 194.067 188.875 190.344 190.369C187.739 191.508 184.982 192.28 182.392 193.456C180.28 194.416 178.295 195.641 176.264 196.762C172.848 198.652 169.496 200.661 166.05 202.496C162.691 204.42 159.233 206.162 155.69 207.716C153.556 208.543 151.325 209.087 149.051 209.333C148.166 209.477 147.26 209.294 146.498 208.819C146.285 208.631 146.141 208.377 146.088 208.098C146.034 207.818 146.075 207.528 146.204 207.275C146.928 206.279 147.879 205.472 148.976 204.922C152.933 202.666 157.08 200.767 161.16 198.747C165.592 196.553 170.163 194.637 174.511 192.278C177.781 190.543 180.926 188.577 183.922 186.397C187.839 183.561 191.545 180.441 195.011 177.061C199.976 172.101 204.244 166.475 209.017 161.329C211.248 158.925 213.634 156.667 216.02 154.421C218.449 152.134 221.116 150.105 223.461 147.731C226.474 144.682 229.375 141.511 232.07 138.175C234.479 135.163 236.722 132.021 238.788 128.761C240.909 126.008 242.629 122.963 243.895 119.719C245.451 113.214 246.549 106.605 247.179 99.9439C247.737 96.7381 248.055 93.4944 248.128 90.2404C248.104 87.1809 247.002 84.1851 247.034 81.1246C247.236 79.5786 247.653 78.0691 248.273 76.6405C248.737 75.5988 249.103 74.516 249.368 73.4059C249.342 70.2742 249.049 67.1506 248.492 64.0695C248.266 63.1902 247.832 62.3789 247.228 61.7043C246.624 61.0298 245.868 60.5118 245.023 60.1944C244.179 59.877 243.27 59.7695 242.376 59.881C241.481 59.9925 240.626 60.3197 239.883 60.8349C238.327 62.1408 237.186 63.8794 236.602 65.8342C236.015 67.7942 235.961 69.885 235.435 71.8623C234.318 76.0607 232.906 75.962 228.796 77.3023C225.62 78.3386 222.244 78.6929 219.093 79.8017C218.042 80.1103 217.12 80.7554 216.466 81.6393C215.908 82.784 215.608 84.0396 215.591 85.3151C215.663 86.7854 215.639 88.2588 215.518 89.7257C214.517 93.6547 209.89 96.611 207.055 99.2827C205.812 100.454 204.905 102.069 203.407 102.885C201.179 103.925 198.824 104.666 196.404 105.09C193.545 105.773 190.564 105.879 187.723 106.634C185.837 107.132 184.022 107.873 182.324 108.839C181.135 109.503 180.093 110.403 179.26 111.486C178.944 112.069 178.829 112.741 178.932 113.397C178.942 113.794 179.098 114.174 179.369 114.463C179.696 114.785 180.3 114.714 180.61 115.051C181.454 115.962 180.626 118.333 179.406 119.461C178.669 120.144 177.391 120.011 176.67 120.711C175.559 121.793 175.125 123.429 174.116 124.61C170.191 129.417 164.67 132.629 158.576 133.652C155.642 133.895 152.693 133.356 149.749 133.356C146.051 133.356 142.35 133.417 138.66 133.652C133.028 134.008 129.136 133.717 126.038 139.018C125.416 140.48 124.709 141.904 123.923 143.282C123.322 143.994 122.54 144.527 121.661 144.826C120.505 145.221 119.304 145.468 118.086 145.561C116.403 145.519 114.719 145.618 113.052 145.857C112.236 146.205 111.565 146.829 111.156 147.621C110.539 148.392 110.204 149.352 110.207 150.341C110.346 151.338 111.582 151.883 111.885 152.841C112.121 153.589 111.516 154.441 111.738 155.193C111.972 156.03 112.488 156.758 113.197 157.252C113.933 157.567 114.735 157.693 115.532 157.619C117.709 157.529 119.89 157.578 122.061 157.767C122.574 157.837 123.048 158.079 123.407 158.455C123.766 158.83 123.989 159.316 124.039 159.835C124.09 160.353 123.965 160.874 123.686 161.313C123.406 161.751 122.988 162.082 122.499 162.251C119.461 162.778 116.388 163.085 113.306 163.17C112.553 163.219 111.781 162.852 111.045 163.022C109.306 163.757 107.528 164.395 105.72 164.933C103.516 165.191 101.269 164.041 99.081 164.419C96.9713 165.164 94.9223 166.073 92.9526 167.139C91.4048 167.374 89.8705 167.693 88.3566 168.094C83.644 170.315 83.8414 175.313 88.1372 176.254C91.7788 177.053 95.6079 176.402 99.2999 176.916C104.865 178.409 110.615 179.078 116.371 178.901C120.21 178.758 124.024 178.216 127.752 177.284C129.354 176.846 130.412 175.176 131.983 174.637C133.914 173.975 136.186 174.613 138.039 173.755C139.633 173.015 140.289 170.918 141.833 170.08C143.567 169.4 145.382 168.955 147.231 168.756C150.048 168.099 152.86 167.419 155.694 166.845C157.647 166.45 161.741 165.874 161.385 169.271C161.249 170.767 160.747 172.207 159.926 173.461C158.637 175.343 157.032 176.985 155.184 178.313C153.054 179.832 150.398 180.456 148.181 181.841C146.728 182.749 145.796 184.435 144.241 185.148C140.225 186.992 135.871 187.979 131.693 189.412C128.941 190.355 126.131 191.149 123.449 192.278C122.589 192.726 121.782 193.269 121.041 193.896C119.225 195.195 117.53 196.673 115.642 197.866C114.101 198.927 112.434 199.791 110.681 200.438C106.625 201.653 102.51 202.659 98.3518 203.453C95.8209 203.992 93.2269 204.184 90.6916 204.702C87.5814 205.337 84.4922 206.084 81.4256 206.907C79.0181 207.555 76.639 208.315 74.2756 209.113C72.5028 209.712 70.828 210.606 69.0229 211.098C67.5624 211.453 66.0729 211.675 64.5728 211.76C60.4939 212.1 56.4037 212.282 52.316 212.494C49.3287 212.65 46.3355 212.804 43.3424 212.862C41.2772 213.019 39.2024 212.995 37.1415 212.788C33.2663 212.176 29.4969 211.009 25.6874 210.068C23.2471 209.466 20.8293 208.771 18.3905 208.157C16.8396 207.766 15.2304 207.583 13.721 207.054C12.3045 206.661 10.9699 206.013 9.78122 205.143C8.10809 203.493 6.56419 201.714 5.16118 199.825ZM47.9756 171.473C46.8893 172.571 46.1745 173.986 45.933 175.517C45.123 182.096 55.5805 186.555 62.2104 188.267C65.4729 189.109 67.3852 188.834 72.5616 186.102C73.3515 185.685 74.4965 185.688 74.9691 184.926C75.9392 183.362 75.7987 181.304 76.5739 179.633C77.2252 178.229 78.5759 177.226 79.2003 175.81C79.3536 175.476 79.433 175.112 79.433 174.744C79.433 174.376 79.3536 174.013 79.2003 173.678C78.6702 172.47 77.7425 171.483 76.5739 170.885C72.2124 169.185 51.7871 167.483 47.9756 171.473Z" fill="url(#paint4_radial_48_432)" style="mix-blend-mode:screen"/>
</g>
<g style="mix-blend-mode:multiply">
<path fill-rule="evenodd" clip-rule="evenodd" d="M49.6 230.399C60.4123 227.066 71.5801 225.042 82.8673 224.37C90.4623 224.529 98.0602 224.283 105.63 223.635C117.691 220.81 125.067 215.309 135.833 210.403C139.811 208.59 144.873 206.386 149.483 204.635C153.287 202.503 157.257 200.679 161.165 198.743C165.597 196.549 170.168 194.633 174.516 192.274C177.786 190.539 180.931 188.574 183.927 186.393C187.844 183.557 191.55 180.437 195.016 177.058C199.981 172.098 204.249 166.472 209.022 161.326C211.253 158.921 213.639 156.663 216.025 154.417C218.454 152.131 221.121 150.101 223.466 147.727C226.479 144.678 229.38 141.507 232.075 138.171C234.482 135.161 236.723 132.019 238.788 128.761C240.909 126.008 242.629 122.963 243.895 119.719C245.451 113.213 246.549 106.605 247.179 99.9438C247.737 96.738 248.055 93.4942 248.128 90.2403C248.104 87.1808 247.002 84.185 247.034 81.1245C247.236 79.5785 247.653 78.0689 248.273 76.6404C248.737 75.5987 249.103 74.5158 249.368 73.4057C249.342 70.2741 249.049 67.1505 248.492 64.0694C248.217 63.0481 247.666 62.124 246.899 61.4007C246.132 60.6773 245.181 60.1832 244.152 59.9736C244.645 60.4106 245.069 60.9204 245.409 61.4856C245.821 62.3307 246.022 63.2645 245.993 64.2056C246.062 65.477 245.888 66.75 245.482 67.9559C244.832 69.4446 243.972 70.831 242.929 72.0724C241.55 73.8489 239.377 75.0401 238.405 77.0717C237.766 78.686 237.663 80.4657 238.112 82.144C238.511 84.0078 240.008 85.4764 240.592 87.2899C241.378 89.2515 241.775 91.3495 241.76 93.4651C241.402 96.2661 240.614 98.9942 239.425 101.551C238.536 103.701 236.708 105.39 235.923 107.58C234.596 111.281 234.673 115.426 233.151 119.047C231.283 123.523 228.829 127.726 225.854 131.545C222.309 135.984 218.299 140.025 213.893 143.598C207.522 148.851 199.718 152.283 193.758 158.007C189.312 162.275 187.276 168.609 183.106 173.151C179.905 176.491 176.214 179.318 172.163 181.532C169.635 182.979 166.392 182.765 163.846 184.178C157.761 187.557 152.397 192.123 146.482 195.793C141.495 198.889 136.431 201.888 131.162 204.467C126.094 207.077 120.824 209.265 115.403 211.01C109.918 212.359 104.365 213.414 98.7691 214.171C92.6201 215.318 86.3874 216.063 80.3115 217.553C75.2752 218.787 70.4979 220.941 65.5013 222.331C63.2803 223.05 60.9751 223.47 58.6452 223.581C55.6345 223.359 52.6385 222.966 49.6715 222.405C48.2096 222.094 46.7112 221.995 45.2214 222.109C43.4276 222.678 41.6729 223.366 39.9687 224.168C39.0432 224.553 38.0519 224.753 37.0504 224.755C34.2245 224.594 31.4298 224.076 28.732 223.214C26.8573 222.553 20.0497 218.072 19.6124 218.068C17.8376 218.05 16.2078 219.317 14.4326 219.317C13.4444 219.322 12.4588 219.215 11.4943 218.999C10.635 218.807 9.80696 218.494 9.03488 218.068C6.90572 216.31 5.18677 214.101 4.00005 211.598C3.60473 209.514 3.56201 207.379 3.87371 205.281C3.2217 207.633 2.83951 210.053 2.73461 212.493C2.71404 213.922 4.03482 215.056 4.92367 216.169C6.4951 218.464 8.38714 220.519 10.5413 222.27C11.3966 222.834 12.3516 223.226 13.3542 223.426C16.3601 224.101 19.99 223.73 22.5057 224.402C24.0307 224.81 25.1737 226.16 26.6644 226.681C28.7099 227.397 30.9568 227.388 33.0112 228.078C33.9598 228.396 39.4726 230.738 36.0024 232.342C34.9407 232.833 33.6375 232.217 32.5004 232.49C31.6187 232.67 30.8077 233.104 30.1659 233.74C29.9298 233.999 29.7109 234.273 29.5106 234.56C30.6192 233.785 31.944 233.385 33.2933 233.418C35.4353 233.395 38.308 234.366 40.1494 234.226C44.2596 233.917 46.0623 231.71 49.5985 230.404L49.6 230.399Z" fill="url(#paint5_radial_48_432)" style="mix-blend-mode:screen"/>
</g>
<g style="mix-blend-mode:multiply">
<path fill-rule="evenodd" clip-rule="evenodd" d="M60.7646 183.865C57.9621 184.103 55.1448 183.634 52.5673 182.5C49.9899 181.366 47.7334 179.603 46.002 177.37C47.117 182.934 56.222 186.72 62.2117 188.265C65.4743 189.106 67.3866 188.832 72.563 186.1C73.3529 185.683 74.4979 185.686 74.9705 184.924C75.9406 183.36 75.8001 181.302 76.5753 179.631C77.2266 178.227 78.5773 177.224 79.2017 175.808C79.355 175.474 79.4344 175.11 79.4344 174.742C79.4344 174.374 79.355 174.01 79.2017 173.676C78.6716 172.468 77.7439 171.481 76.5753 170.883C76.4592 170.837 76.3304 170.792 76.1928 170.747C76.3885 171.004 76.5489 171.286 76.6698 171.586C76.7794 172.148 76.7279 172.73 76.5211 173.264C76.3143 173.798 75.961 174.261 75.5023 174.6C73.7168 175.669 69.7437 175.802 68.2799 177.688C67.5287 178.655 68.2495 181.957 66.5291 182.686C64.7126 183.486 62.7469 183.889 60.7646 183.865Z" fill="url(#paint6_radial_48_432)" style="mix-blend-mode:screen"/>
</g>
<g style="mix-blend-mode:multiply">
<path fill-rule="evenodd" clip-rule="evenodd" d="M120.916 172.51C120.718 173.452 121.756 174.347 121.646 175.304C121.587 175.821 120.967 176.162 120.479 176.333C115.888 177.542 111.115 177.891 106.398 177.362C104.311 176.828 102.369 175.783 100.269 175.303C99.4792 175.188 98.6746 175.225 97.8985 175.413C94.7971 175.924 93.1149 176.331 90.4219 176.583C93.3602 176.83 96.3725 176.504 99.2996 176.913C104.864 178.406 110.615 179.074 116.371 178.897C120.21 178.755 124.024 178.213 127.752 177.28C129.354 176.842 130.412 175.173 131.983 174.634C133.914 173.971 136.185 174.609 138.039 173.751C139.633 173.011 140.289 170.915 141.832 170.076C143.566 169.397 145.381 168.952 147.231 168.753C150.047 168.096 152.86 167.416 155.694 166.841C157.011 166.512 158.383 166.465 159.719 166.704C154.039 165.726 148.228 165.825 142.584 166.997C139.839 167.339 137.855 166.923 137.186 169.616C137.134 169.974 137.011 170.318 136.822 170.626C136.634 170.934 136.385 171.2 136.091 171.408C135.262 171.845 134.323 172.024 133.392 171.922C130.705 171.663 128.125 170.652 125.44 170.379C123.995 170.231 121.277 170.811 120.916 172.51Z" fill="url(#paint7_radial_48_432)" style="mix-blend-mode:screen"/>
</g>
<g style="mix-blend-mode:multiply">
<path fill-rule="evenodd" clip-rule="evenodd" d="M123.185 261.01C119.056 262.793 114.67 263.909 110.491 265.567C109.039 266.138 107.646 266.852 106.332 267.699C102.946 270.428 99.3878 272.933 95.6809 275.2C92.6109 276.457 89.3582 277.202 86.0505 277.405C79.856 278.129 73.589 277.99 67.374 278.508C62.846 278.885 58.2162 280.793 53.7822 278.796C52.1088 284.078 51.8647 289.714 53.0751 295.122C53.8944 298.15 57.2191 299.977 59.9312 301.518C62.6705 302.808 65.6047 303.628 68.6125 303.944C74.0175 304.912 79.5646 304.953 84.9545 306.002C87.4012 306.557 89.776 307.396 92.0315 308.501C94.6309 309.68 97.0085 311.309 99.5458 312.618C101.946 313.982 104.433 315.185 106.99 316.22C109.217 317.059 111.55 317.579 113.921 317.764C117.309 317.839 120.698 317.667 124.061 317.249C127.136 316.984 130.206 316.632 133.257 316.17C133.622 316.115 133.985 316.058 134.348 316C135.833 315.762 137.252 315.204 138.725 314.897C144.063 313.783 149.48 313.042 154.776 311.736C158.735 310.759 162.604 309.428 166.448 308.06C172.458 305.922 178.394 303.579 184.323 301.224C192.889 297.819 201.467 294.439 209.93 290.784C212.708 289.575 215.412 288.201 218.028 286.668C226.529 281.72 235.031 276.755 243.271 271.377C249.535 267.289 255.601 262.885 261.51 258.292C266.894 254.106 272.066 249.641 277.122 245.059C281.481 241.108 285.606 236.897 289.743 232.709C291.104 231.332 292.122 229.609 293.612 228.372C293.841 228.181 294.273 228.595 294.342 228.886C295.422 233.488 279.023 252.655 275.155 255.939C272.163 258.479 268.972 260.775 265.962 263.291C261.821 266.754 257.865 270.437 253.706 273.878C250.665 276.394 247.63 278.939 244.367 281.155C238.717 284.994 232.833 288.353 226.933 292.403C222.74 295.28 218.192 298.827 214.165 301.445C211.101 303.249 207.846 304.704 204.462 305.782C199.436 307.75 194.532 310.041 189.434 311.81C186.539 312.815 183.48 313.254 180.534 314.089C175.791 315.432 172.11 316.796 167.198 317.731C176.549 318.7 181.981 321.527 187.61 318.941C189.932 317.874 191.808 315.931 194.176 314.971C197.872 313.551 201.679 312.445 205.558 311.665C215.254 309.531 229.774 307.161 234.886 303.872C237.586 301.556 240.167 299.102 242.619 296.52C244.719 294.848 247.291 293.812 249.475 292.256C257.415 287.228 264.801 281.363 271.508 274.76C278.765 266.784 283.359 256.699 289.747 248.001C295.058 240.769 302.826 234.747 306.38 225.947C307.6 221.405 308.526 216.789 309.153 212.127C310.099 208.204 311.368 204.368 312.946 200.658C319.625 185.703 321.8 186.598 323.744 167.578C324.242 163.163 324.045 158.698 323.16 154.345C321.913 151.018 320.451 147.776 318.783 144.642C317.495 141.052 316.851 137.257 315.719 133.614C314.953 131.151 314.072 128.721 313.092 126.337C312.086 123.887 310.873 121.529 309.762 119.125C310.653 123.808 311.777 128.452 312.435 133.173C313.687 142.403 314.078 151.731 313.602 161.035C312.057 189.305 301.273 210.134 281.721 230.284C277.22 235.161 272.445 239.776 267.421 244.105C264.981 245.87 262.335 247.327 259.542 248.443C255.826 250.187 251.929 251.517 248.162 253.147C244.281 254.659 240.481 256.377 236.781 258.294C234.528 259.781 232.383 261.427 230.36 263.219C228.046 265.003 225.877 266.993 223.43 268.585C220.512 270.49 217.464 272.185 214.31 273.658C208.064 276.56 201.692 279.194 195.268 281.671C189.585 284.363 183.575 286.291 177.393 287.405C176.675 287.503 175.695 287.487 175.278 286.89C174.965 286.442 175.523 285.667 176.007 285.42C181.065 282.901 185.942 280.026 190.601 276.819C194.834 273.89 198.357 270.006 202.566 267.041C205.896 264.696 209.871 263.364 213.144 260.94C215.584 259.056 217.767 256.856 219.637 254.397C223.172 249.925 225.869 244.821 229.413 240.357C231.6 237.533 234.097 234.969 236.857 232.711C239.504 230.644 242.396 228.916 245.465 227.566C249.411 225.787 253.975 225.472 257.722 223.302C260.3 221.685 262.451 219.464 263.992 216.828C266.547 212.722 267.512 207.759 269.974 203.596C273.713 197.279 278.181 191.424 282.523 185.512C285.941 180.858 289.468 176.272 293.248 171.911C294.362 170.638 295.667 169.546 297.114 168.677C297.407 168.499 297.732 168.382 298.07 168.331C298.408 168.28 298.753 168.297 299.084 168.381C300.316 168.739 300.442 170.437 303.17 170.145C307.431 169.69 309.014 163.582 310.1 160C311.458 154.141 312.192 148.153 312.289 142.137C312.266 141.391 312.129 140.432 311.414 140.079C311.064 139.906 310.581 140.451 309.973 140.244C309.742 140.118 309.547 139.936 309.403 139.714C309.26 139.493 309.174 139.239 309.152 138.976C308.198 133.383 307.874 127.699 307.182 122.068C306.937 119.183 306.547 116.312 306.015 113.467C305.579 111.755 304.943 110.101 304.118 108.541C303.865 108.03 303.5 107.436 302.951 107.292C302.601 107.201 302.436 107.807 302.148 108.027C301.826 108.273 301.528 108.635 301.127 108.688C300.539 108.766 299.585 108.952 299.376 108.392C299.075 107.573 298.838 106.732 298.667 105.876C297.596 100.71 296.858 95.6496 295.655 90.3809C295.409 89.6024 295.202 88.8119 295.035 88.0123C295.015 87.8455 295.143 87.5751 295.309 87.5894C295.554 87.6111 295.735 87.8711 295.856 88.0858C296.6 89.4029 297.202 90.7959 297.882 92.148C298.485 93.3506 299.116 94.6405 299.705 95.7503C300.241 96.7589 300.573 95.8983 300.581 95.6022C300.601 94.693 300.547 93.7836 300.419 92.8833C300.289 91.9648 300.099 91.0559 299.851 90.1623C298.905 86.6739 297.711 83.259 296.276 79.9441C294.819 75.346 293.114 70.8314 291.169 66.4202C289.536 64.8387 287.643 63.0933 285.635 61.2314C289.527 67.8681 291.906 75.2939 292.599 82.971C293.531 93.4356 292.642 103.984 289.972 114.14C287.912 120.343 283.101 125.275 280.342 131.195C277.83 136.584 277.662 143.121 274.214 147.956C261.202 162.891 246.84 176.574 231.314 188.83C217.277 199.038 187.703 217.829 170.913 222.059C158.541 225.176 145.443 224.354 132.976 227.058C124.33 228.933 116.44 233.496 107.879 235.733C94.7984 239.152 85.0142 240.165 71.1096 244.408C66.4439 246.026 61.4176 246.273 56.6177 245.121C52.2332 244.593 47.6455 244.331 45.8673 246.54C45.0862 247.51 46.2038 249.578 45.1372 250.215C44.2675 250.61 43.3265 250.82 42.3727 250.833C41.4189 250.846 40.4727 250.66 39.593 250.289C35.3907 248.854 31.8251 245.911 27.7011 244.26C26.6173 243.76 25.3905 243.671 24.2466 244.009C22.965 244.411 22.0708 245.273 20.989 245.363C20.5717 245.385 20.1546 245.317 19.7649 245.165C19.3752 245.013 19.0217 244.78 18.7274 244.481C16.5525 241.28 15.4346 237.47 15.533 233.592C15.392 234.381 15.2881 235.175 15.1755 235.979C14.7962 238.435 14.6253 240.919 14.6647 243.404C14.6837 243.703 14.7649 243.996 14.9032 244.262C15.0415 244.528 15.2337 244.762 15.4674 244.948C20.4429 248.33 25.6496 251.354 31.0484 253.996C32.4504 254.724 33.8978 255.361 35.3814 255.901C38.3541 256.824 41.3741 257.584 44.4281 258.18C52.6647 259.822 51.1372 257.604 58.5448 254.873C62.6152 253.333 66.783 252.068 71.0204 251.087C79.9535 249.099 89.1607 248.41 98.0139 246.088C104.537 244.377 110.641 241.33 116.983 239.032C121.567 237.088 126.27 235.443 131.063 234.106C133.107 233.685 135.227 233.838 137.191 234.547C138.676 235.135 139.93 236.192 140.766 237.561C141.456 238.735 141.738 240.106 141.568 241.46C141.428 242.715 140.861 243.884 139.963 244.766C138.213 246.412 135.749 247.119 133.908 248.664C132.236 250.073 130.763 251.705 129.531 253.516C128.545 254.962 128.472 256.96 127.342 258.295C126.179 259.507 124.757 260.438 123.184 261.015L123.185 261.01Z" fill="url(#paint8_radial_48_432)" style="mix-blend-mode:screen"/>
</g>
<g style="mix-blend-mode:multiply">
<path fill-rule="evenodd" clip-rule="evenodd" d="M90.9844 243.348C83.6352 245.331 75.2154 243.72 67.5224 245.365C63.905 245.987 60.2027 245.903 56.6167 245.118C52.2323 244.591 47.6446 244.328 45.8664 246.537C45.0853 247.507 46.2028 249.576 45.1362 250.213C44.2666 250.608 43.3255 250.818 42.3717 250.831C41.4179 250.843 40.4717 250.658 39.5921 250.286C35.3898 248.851 31.8241 245.909 27.7001 244.258C26.6163 243.757 25.3895 243.668 24.2456 244.007C22.964 244.409 22.0698 245.27 20.988 245.361C20.5707 245.382 20.1536 245.315 19.7639 245.163C19.3742 245.011 19.0207 244.777 18.7265 244.479C16.5515 241.278 15.4337 237.467 15.532 233.589C15.391 234.379 15.2872 235.173 15.1745 235.977C14.7952 238.432 14.6243 240.916 14.6637 243.401C14.6827 243.701 14.764 243.993 14.9022 244.259C15.0405 244.525 15.2327 244.759 15.4664 244.945C20.4424 248.329 25.6495 251.353 31.0489 253.996C32.4509 254.724 33.8983 255.361 35.3819 255.901C38.3546 256.824 41.3745 257.584 44.4285 258.18C52.6652 259.822 51.1377 257.604 58.5453 254.873C62.6156 253.333 66.7835 252.068 71.0209 251.087C79.954 249.099 89.1612 248.41 98.0144 246.088C104.537 244.377 110.641 241.33 116.983 239.032C121.567 237.088 126.27 235.443 131.063 234.106C133.108 233.685 135.227 233.838 137.192 234.547C138.676 235.135 139.931 236.192 140.767 237.561C141.456 238.735 141.739 240.106 141.569 241.459C141.429 242.715 140.862 243.883 139.964 244.766C139.354 245.319 138.682 245.8 137.963 246.2C139.066 245.732 140.121 245.158 141.114 244.484C145.524 241.304 145.362 237.374 155.267 232.649C163.2 228.864 147.816 229 146.293 229.046C139.812 228.433 133.277 228.755 126.886 230.002C116.836 232.786 103.333 240.017 90.9844 243.348Z" fill="url(#paint9_radial_48_432)" style="mix-blend-mode:screen"/>
</g>
<g style="mix-blend-mode:multiply">
<path fill-rule="evenodd" clip-rule="evenodd" d="M208.311 215.556C196.502 219.618 181.405 223.425 168.98 226.735C167.801 227.049 162.075 228.216 161.619 229.486C164.461 230.327 167.458 230.491 170.374 229.964C182.629 228.173 194.763 225.62 206.705 222.319C219.198 220.193 231.362 216.437 242.891 211.145C247.663 208.698 251.962 205.412 255.585 201.441C258.855 197.453 259.516 191.819 262.298 187.474C264.879 183.678 267.864 180.178 271.198 177.035C276.683 171.569 282.896 166.88 288.416 161.45C291.325 159.06 293.795 156.174 295.713 152.922C298.11 147.557 299.684 141.856 300.382 136.015C300.894 129.461 301.016 122.882 300.747 116.313C300.522 113.694 300.787 111.055 301.526 108.534C301.407 108.615 301.27 108.669 301.128 108.691C300.54 108.768 299.586 108.955 299.376 108.395C299.076 107.576 298.839 106.734 298.668 105.878C297.597 100.713 296.859 95.6522 295.656 90.3834C295.41 89.605 295.203 88.8144 295.036 88.0148C295.015 87.848 295.143 87.5776 295.31 87.5919C295.555 87.6136 295.736 87.8737 295.857 88.0883C296.6 89.4054 297.203 90.7985 297.882 92.1506C298.486 93.3531 299.117 94.643 299.706 95.7528C300.241 96.7615 300.574 95.9009 300.582 95.6048C300.602 94.6955 300.548 93.7861 300.42 92.8858C300.29 91.9673 300.1 91.0584 299.852 90.1648C298.906 86.6765 297.711 83.2615 296.277 79.9467C294.819 75.3477 293.114 70.8323 291.169 66.4203C290.982 66.2397 290.792 66.0568 290.599 65.8716C292.887 70.7183 294.221 75.9657 294.529 81.3239C294.539 81.8892 294.495 82.4542 294.398 83.0111C294.336 83.3343 293.734 83.3496 293.668 83.6723C293.625 85.8586 293.744 88.0451 294.023 90.2137C294.718 96.4389 295.087 102.697 295.128 108.961C295.323 117.024 294.489 125.078 292.647 132.927C290.363 138.701 287.32 144.14 283.601 149.099C279.797 156.381 275.302 163.275 270.179 169.683C265.909 174.334 259.275 176.204 254.713 180.564C236.771 197.711 238.933 205.02 208.311 215.556Z" fill="url(#paint10_radial_48_432)" style="mix-blend-mode:screen"/>
</g>
<g style="mix-blend-mode:multiply">
<path fill-rule="evenodd" clip-rule="evenodd" d="M94.34 296.918C90.9362 297.625 87.6025 298.639 84.3791 299.948C78.5733 301.482 72.4112 300.823 67.0547 298.094C56.7608 294.182 54.1922 288.354 54.9537 279.818C54.9703 279.629 54.9888 279.44 55.009 279.25C54.5903 279.126 54.1803 278.974 53.7818 278.794C52.1084 284.076 51.8643 289.712 53.0746 295.12C53.8939 298.148 57.2186 299.975 59.9307 301.516C62.67 302.806 65.6043 303.626 68.612 303.942C74.0171 304.91 79.5642 304.951 84.954 306C87.4008 306.555 89.7755 307.394 92.031 308.499C94.6305 309.678 97.0081 311.307 99.5453 312.616C101.946 313.98 104.432 315.183 106.989 316.218C109.216 317.057 111.55 317.576 113.92 317.762C117.308 317.837 120.697 317.665 124.061 317.247C127.135 316.982 130.205 316.63 133.257 316.168C133.621 316.113 133.985 316.056 134.347 315.998C135.833 315.76 137.252 315.202 138.725 314.895C144.063 313.781 149.48 313.04 154.775 311.734C158.734 310.757 162.604 309.426 166.448 308.058C172.457 305.92 178.393 303.577 184.323 301.222C192.889 297.817 201.467 294.437 209.93 290.782C212.708 289.573 215.412 288.199 218.028 286.666C226.529 281.718 235.031 276.753 243.271 271.375C249.534 267.287 255.601 262.883 261.51 258.29C266.894 254.104 272.065 249.639 277.122 245.057C281.48 241.106 285.606 236.895 289.743 232.707C291.104 231.33 292.122 229.607 293.612 228.37C293.84 228.179 294.273 228.593 294.341 228.884C295.421 233.486 279.022 252.653 275.155 255.937C274.763 256.267 274.37 256.595 273.975 256.918C285.322 248.717 290.481 242.225 299.275 227.08C300.328 225.266 301.347 223.424 302.329 221.557C304.765 216.956 306.888 212.195 308.683 207.304C309.525 205.132 310.089 202.86 310.361 200.544C310.247 200.354 309.732 201.064 309.118 202.048C308.207 203.51 307.076 205.578 306.713 206.204C303.205 212.605 299.179 218.703 294.676 224.436C292.256 227.374 289.674 230.172 286.942 232.817C282.776 236.955 278.612 241.118 274.102 244.873C270.472 247.896 266.395 250.331 262.576 253.106C257.494 256.799 252.321 260.373 247.401 264.28C244.045 266.945 241.285 270.358 237.77 272.808C234.022 275.173 230.123 277.285 226.097 279.13C220.984 281.762 215.779 284.213 210.631 286.775C207.316 288.426 204.162 290.442 200.709 291.774C194.361 294.225 187.669 295.691 181.303 298.096C177.921 299.374 174.94 301.613 171.527 302.801C164.72 305.17 156.533 305.213 149.64 307.212C137.783 310.651 133.946 314.071 123.716 314.382C121.098 314.443 118.479 314.35 115.872 314.102C112.444 313.8 110.734 312.48 110.398 310.827C109.855 308.163 112.878 304.625 117.977 303.095C124.151 301.243 130.56 300.295 136.8 298.685C149.631 295.374 168.623 291.672 180.427 287.805C185.983 285.984 191.299 283.505 196.651 281.133C196.191 281.313 195.729 281.492 195.267 281.67C189.584 284.362 183.574 286.29 177.392 287.404C176.674 287.502 175.694 287.486 175.276 286.889C174.963 286.441 175.521 285.666 176.006 285.419C181.064 282.9 185.94 280.025 190.599 276.818C194.832 273.889 198.356 270.005 202.564 267.04C205.894 264.695 209.869 263.363 213.142 260.939C215.404 259.202 217.44 257.186 219.202 254.938C215.229 258.194 210.538 260.44 205.524 261.487C202.094 262.187 198.726 263.17 195.456 264.427C191.876 266.895 185.014 279.555 171.527 284.276C155.182 289.648 138.301 293.198 121.188 294.862C112.269 295.874 103.215 295.558 94.34 296.918Z" fill="url(#paint11_radial_48_432)" style="mix-blend-mode:screen"/>
</g>
<path fill-rule="evenodd" clip-rule="evenodd" d="M106.333 267.699C102.946 270.428 99.3882 272.933 95.6813 275.2C92.6113 276.457 89.3586 277.202 86.0509 277.405C79.8564 278.129 73.5894 277.99 67.3743 278.508C63.843 279.241 60.2461 279.605 56.6406 279.594C59.827 280.175 63.0852 280.239 66.2916 279.783C78.0297 279.413 96.4398 280.692 101.421 280.013C104.991 279.399 108.38 277.993 111.344 275.896C115.925 272.849 106.887 272.756 112.802 270.309C120.867 266.972 142.005 268.015 147.091 259.282C147.458 258.781 147.691 258.193 147.768 257.575C147.844 256.958 147.762 256.33 147.529 255.753C146.854 254.717 144.561 255.694 144.027 254.577C143.564 253.608 144.762 252.408 145.632 251.784C153.586 246.326 162.098 241.742 171.021 238.111C175.614 236.264 180.347 234.789 185.174 233.7C199.628 230.525 171.89 231.399 162.704 233.848C156.558 235.506 150.997 238.868 146.653 243.552C145.244 245.1 143.623 246.436 141.838 247.521C137.934 249.206 132.39 249.317 129.532 253.515C128.546 254.961 128.473 256.959 127.344 258.293C126.18 259.506 124.758 260.436 123.185 261.013C119.056 262.796 114.67 263.912 110.491 265.571C109.038 266.142 107.646 266.852 106.333 267.699Z" fill="url(#paint12_radial_48_432)" style="mix-blend-mode:screen"/>
<g opacity="0.65">
<path fill-rule="evenodd" clip-rule="evenodd" d="M187.461 286.855C182.639 288.56 177.674 289.838 172.724 291.119C167.068 292.583 161.331 293.715 155.652 295.089C151.561 295.887 147.518 296.918 143.542 298.176C142.99 298.378 142.275 299.554 142.812 299.793C145.065 300.575 147.432 300.973 149.815 300.97C154.81 301.458 159.828 301.654 164.844 301.557C166.528 301.485 168.173 301.033 169.66 300.234C173.349 298.252 176.394 295.144 180.165 293.326C183.454 291.942 186.877 290.907 190.379 290.238C194.661 289.691 198.902 288.856 203.073 287.739C212.809 282.957 221.53 276.316 228.754 268.184C228.89 267.945 228.935 267.664 228.881 267.394C228.827 267.123 228.678 266.882 228.46 266.714C227.908 266.456 227.243 266.936 226.709 267.229C222.05 269.786 217.6 272.725 212.92 275.242C208.891 277.408 204.752 279.372 200.591 281.27C196.262 283.244 191.945 285.27 187.461 286.855Z" fill="url(#paint13_radial_48_432)" style="mix-blend-mode:screen"/>
</g>
<path fill-rule="evenodd" clip-rule="evenodd" d="M86.93 14.121C88.408 13.5234 89.5985 12.3544 91.0153 11.6216C103.349 6.29593 117.115 5.36252 130.046 8.97517C133.637 10.0114 137.553 9.53031 141.135 10.5923C144.245 11.5135 146.857 13.704 149.89 14.8563C152.964 15.4562 155.988 16.2918 158.936 17.3557C160.8 18.4196 161.095 21.4124 163.022 22.3545C166.283 23.9489 170.316 23.183 173.673 24.5598C181.996 27.9736 193.36 37.4639 194.539 47.0548C194.995 50.228 194.644 53.466 193.518 56.4647C192.093 59.9436 186.165 58.2767 184.471 59.1112C183.513 59.5834 183.282 60.9863 183.158 62.0517C182.643 66.4855 183.424 71.0501 182.574 75.431C181.077 83.1498 172.635 86.1116 165.794 87.928C156.576 90.3756 145.873 86.6731 147.702 75.1369C148.216 71.8885 151.249 69.5514 152.371 66.4623C153.269 63.9881 152.224 60.8551 153.684 58.67C157.007 53.6993 166.176 51.3371 167.4 49.5542C168.499 47.3789 168.907 44.9148 168.567 42.4977C168.609 40.2688 168.081 38.0666 167.035 36.1024C166.724 35.7018 166.284 35.4236 165.791 35.3161C165.298 35.2087 164.783 35.2787 164.335 35.5142C161.374 37.5374 160.331 42.855 153.976 45.5118C147.977 48.0196 136.504 48.0191 131.141 54.7741C130.814 55.152 130.579 55.6007 130.452 56.0852C130.325 56.5698 130.311 57.0772 130.411 57.5681C131.087 59.7596 133.406 61.2691 133.839 63.5232C133.899 64.2969 133.801 65.0747 133.55 65.8084C133.299 66.542 132.9 67.2156 132.38 67.7873C130.705 70.1701 128.509 72.132 125.96 73.5208C119.696 75.9005 113.317 77.961 106.848 79.6946C103.731 80.7802 100.718 82.1422 97.655 83.3704C82.9001 89.287 69.2046 87.8412 67.4514 89.6922C65.538 91.7154 66.0983 95.2866 64.3877 97.4845C58.44 105.126 52.2759 107.923 43.9599 102.337C40.8947 100.277 39.096 96.4734 35.7884 94.8385C33.5171 93.7149 30.7242 94.7457 28.2011 94.5424C23.9009 94.197 19.0526 92.2725 15.0697 95.7183C12.866 97.6261 11.4223 102.307 10.2249 103.022C9.33067 103.557 10.9105 96.7206 12.2969 93.9522C14.5653 89.4286 8.41685 85.7114 23.7515 72.6346C27.6347 68.8703 30.8215 64.4392 33.1625 59.5489C34.2534 57.0292 35.7305 54.698 37.5396 52.6404C39.5828 50.753 41.7523 49.0094 44.0329 47.422C47.6617 44.4869 52.5207 38.4024 57.0918 34.4833C58.9767 32.8667 61.4425 32.0229 63.2931 30.3669C67.5302 26.5741 70.8035 22.6101 74.165 19.4869C78.4113 15.5392 82.335 15.9784 86.93 14.121Z" fill="url(#paint14_radial_48_432)" style="mix-blend-mode:screen"/>
<g style="mix-blend-mode:multiply">
<path fill-rule="evenodd" clip-rule="evenodd" d="M119.181 51.4327C105.49 63.8108 113.994 64.6502 120.789 65.606C123.923 66.0467 127.961 67.6662 123.267 69.6638C119.211 71.3909 114.66 71.6919 110.573 73.3396C108.28 74.2634 106.548 76.2811 104.298 77.309C89.4778 84.0833 69.7557 79.9663 58.5553 81.6466C53.6091 82.3868 51.6443 86.8842 55.7727 90.9207C58.687 93.771 61.7473 93.7942 61.8393 95.9112C62.0323 100.265 55.9137 104.216 52.0527 105.275C54.5713 105.043 57.0005 104.217 59.1434 102.864C61.2864 101.511 63.083 99.6678 64.3879 97.4848C66.0984 95.2869 65.5382 91.7142 67.4516 89.6925C69.2048 87.8415 82.9003 89.2874 97.6551 83.3707C100.718 82.1425 103.732 80.7791 106.848 79.6949C113.318 77.9609 119.697 75.8999 125.962 73.5197C128.511 72.1309 130.707 70.1689 132.382 67.7861C132.903 67.2145 133.301 66.5408 133.552 65.8072C133.803 65.0736 133.902 64.2957 133.841 63.5221C133.407 61.2689 131.088 59.7585 130.413 57.567C130.314 57.0761 130.328 56.5687 130.454 56.0841C130.581 55.5995 130.816 55.1509 131.143 54.773C136.506 48.0179 147.979 48.0184 153.978 45.5106C160.333 42.8538 161.376 37.5353 164.338 35.5131C164.785 35.2776 165.3 35.2075 165.793 35.315C166.286 35.4224 166.726 35.7007 167.037 36.1013C168.083 38.0654 168.611 40.2677 168.569 42.4966C168.909 44.9137 168.501 47.3777 167.402 49.5531C166.286 51.1815 158.564 53.2862 154.692 57.4135C165.41 49.7456 173.089 52.9649 173.243 43.933C173.507 39.771 172.676 35.6124 170.834 31.8777C170.505 31.431 170.087 31.0585 169.607 30.7841C169.126 30.5096 168.594 30.3392 168.045 30.2838C167.495 30.2284 166.941 30.2892 166.416 30.4622C165.891 30.6353 165.408 30.9169 164.997 31.289C160.873 35.4662 159.034 40.5444 153.033 42.3165C149.047 43.4191 145.004 44.3026 140.923 44.9629C132.887 46.4048 125.903 45.3547 119.181 51.4327Z" fill="url(#paint15_radial_48_432)" style="mix-blend-mode:screen"/>
</g>
<g style="mix-blend-mode:multiply">
<path fill-rule="evenodd" clip-rule="evenodd" d="M158.579 18.7202C159.047 20.353 158.752 24.475 161.205 25.0419C166.347 26.2327 171.075 23.6889 176.891 27.5423C184.751 32.7494 192.842 39.3781 191.397 49.9515C190.865 53.84 187.442 52.9785 183.546 51.7507C180.937 50.9286 178.142 50.5664 177.62 52.978C176.365 58.7767 178.414 64.833 178.35 70.7679C178.211 83.5979 168.333 87.6093 159.142 88.6071C161.381 88.7383 163.627 88.5091 165.795 87.9281C172.636 86.1117 181.077 83.1499 182.574 75.4311C183.424 71.0501 182.643 66.4856 183.158 62.0518C183.282 60.9844 183.513 59.5845 184.471 59.1112C186.165 58.2768 192.094 59.9437 193.518 56.4648C194.644 53.4661 194.996 50.2281 194.539 47.0549C193.36 37.4639 181.996 27.9736 173.674 24.5598C170.317 23.1831 166.283 23.9489 163.022 22.3545C161.095 21.4125 160.8 18.4197 158.937 17.3557C157.794 16.747 156.564 16.3225 155.291 16.0979C156.098 16.3925 156.88 16.7531 157.629 17.1761C158.124 17.5549 158.463 18.105 158.579 18.7202Z" fill="url(#paint16_radial_48_432)" style="mix-blend-mode:screen"/>
</g>
</g>
<defs>
<radialGradient id="paint0_radial_48_432" cx="0" cy="0" r="1" gradientUnits="userSpaceOnUse" gradientTransform="translate(44.7219 23.253) scale(285.303 312.121)">
<stop stop-color="#00E0FF"/>
<stop offset="1"/>
</radialGradient>
<radialGradient id="paint1_radial_48_432" cx="0" cy="0" r="1" gradientUnits="userSpaceOnUse" gradientTransform="translate(44.7219 23.253) scale(285.303 312.121)">
<stop stop-color="#00E0FF"/>
<stop offset="1"/>
</radialGradient>
<radialGradient id="paint2_radial_48_432" cx="0" cy="0" r="1" gradientUnits="userSpaceOnUse" gradientTransform="translate(45.1326 28.7872) scale(189.732 191.182)">
<stop stop-color="#00E0FF"/>
<stop offset="1"/>
</radialGradient>
<radialGradient id="paint3_radial_48_432" cx="0" cy="0" r="1" gradientUnits="userSpaceOnUse" gradientTransform="translate(48.3654 22.7021) scale(291.102 314.804)">
<stop stop-color="#00E0FF"/>
<stop offset="1"/>
</radialGradient>
<radialGradient id="paint4_radial_48_432" cx="0" cy="0" r="1" gradientUnits="userSpaceOnUse" gradientTransform="translate(48.3654 22.7021) scale(291.102 314.804)">
<stop stop-color="#00E0FF"/>
<stop offset="1"/>
</radialGradient>
<radialGradient id="paint5_radial_48_432" cx="0" cy="0" r="1" gradientUnits="userSpaceOnUse" gradientTransform="translate(37.7637 72.359) scale(223.469 171.746)">
<stop stop-color="#00E0FF"/>
<stop offset="1"/>
</radialGradient>
<radialGradient id="paint6_radial_48_432" cx="0" cy="0" r="1" gradientUnits="userSpaceOnUse" gradientTransform="translate(50.7504 172.02) scale(30.2923 17.647)">
<stop stop-color="#00E0FF"/>
<stop offset="1"/>
</radialGradient>
<radialGradient id="paint7_radial_48_432" cx="0" cy="0" r="1" gradientUnits="userSpaceOnUse" gradientTransform="translate(100.264 166.952) scale(62.7885 12.6777)">
<stop stop-color="#00E0FF"/>
<stop offset="1"/>
</radialGradient>
<radialGradient id="paint8_radial_48_432" cx="0" cy="0" r="1" gradientUnits="userSpaceOnUse" gradientTransform="translate(58.5966 79.589) scale(280.298 254.561)">
<stop stop-color="#00E0FF"/>
<stop offset="1"/>
</radialGradient>
<radialGradient id="paint9_radial_48_432" cx="0" cy="0" r="1" gradientUnits="userSpaceOnUse" gradientTransform="translate(34.9498 230.872) scale(129.45 29.5091)">
<stop stop-color="#00E0FF"/>
<stop offset="1"/>
</radialGradient>
<radialGradient id="paint10_radial_48_432" cx="0" cy="0" r="1" gradientUnits="userSpaceOnUse" gradientTransform="translate(181.49 77.5339) scale(126.767 161.72)">
<stop stop-color="#00E0FF"/>
<stop offset="1"/>
</radialGradient>
<radialGradient id="paint11_radial_48_432" cx="0" cy="0" r="1" gradientUnits="userSpaceOnUse" gradientTransform="translate(88.9674 208.832) scale(233.808 115.358)">
<stop stop-color="#00E0FF"/>
<stop offset="1"/>
</radialGradient>
<radialGradient id="paint12_radial_48_432" cx="0" cy="0" r="1" gradientUnits="userSpaceOnUse" gradientTransform="translate(75.4779 235.093) scale(120.172 47.7773)">
<stop stop-color="#00E0FF"/>
<stop offset="1"/>
</radialGradient>
<radialGradient id="paint13_radial_48_432" cx="0" cy="0" r="1" gradientUnits="userSpaceOnUse" gradientTransform="translate(154.877 269.119) scale(78.1776 34.3722)">
<stop stop-color="#00E0FF"/>
<stop offset="1"/>
</radialGradient>
<radialGradient id="paint14_radial_48_432" cx="0" cy="0" r="1" gradientUnits="userSpaceOnUse" gradientTransform="translate(36.2067 13.7973) scale(167.415 96.8612)">
<stop stop-color="#00E0FF"/>
<stop offset="1"/>
</radialGradient>
<radialGradient id="paint15_radial_48_432" cx="0" cy="0" r="1" gradientUnits="userSpaceOnUse" gradientTransform="translate(69.2722 35.5853) scale(109.851 73.7903)">
<stop stop-color="#00E0FF"/>
<stop offset="1"/>
</radialGradient>
<radialGradient id="paint16_radial_48_432" cx="0" cy="0" r="1" gradientUnits="userSpaceOnUse" gradientTransform="translate(160.893 21.2443) scale(35.7378 71.3647)">
<stop stop-color="#00E0FF"/>
<stop offset="1"/>
</radialGradient>
<clipPath id="clip0_48_432">
<rect width="324" height="320" fill="white"/>
</clipPath>
</defs>
</svg>
