<svg width="174" height="167" viewBox="0 0 174 167" fill="none" xmlns="http://www.w3.org/2000/svg">
<g clip-path="url(#clip0_48_454)">
<path d="M157.873 100.133C157.883 110.212 155.62 120.162 151.253 129.236C146.887 138.31 140.53 146.273 132.662 152.526C132.461 152.687 132.261 152.848 132.06 153.005C132.02 153.035 131.98 153.07 131.94 153.1C131.744 153.251 131.549 153.407 131.348 153.558C121.506 161.026 109.782 165.582 97.4992 166.713C97.2835 166.733 97.063 166.754 96.8424 166.774C96.7421 166.779 96.6469 166.789 96.5466 166.794H96.5417C96.316 166.814 96.0904 166.829 95.8648 166.839C94.3558 166.945 92.8419 167 91.3129 167C80.364 167.017 69.5818 164.307 59.9302 159.114L59.9201 159.109L59.484 155.941L55.113 153.951L56.0605 156.857C42.5965 148.401 32.5777 135.397 27.8061 120.182C27.6909 119.82 27.5805 119.452 27.4703 119.085C27.4553 119.029 27.4401 118.979 27.4251 118.923C27.3147 118.566 27.2148 118.198 27.1143 117.831C24.1429 106.876 23.9789 95.3442 26.6375 84.3089C26.6976 84.037 26.7678 83.765 26.8379 83.4931C29.5119 73.0784 34.6417 63.4633 41.7941 55.4601C48.9466 47.4569 57.9114 41.3007 67.9312 37.5116C68.7032 38.2974 69.4618 39.0998 70.2072 39.919C70.503 40.2413 70.7938 40.5637 71.0846 40.8911C74.2262 39.622 77.4464 38.5588 80.7249 37.7081C81.6323 37.4713 82.5381 37.2564 83.4421 37.0635L83.6226 33.7143C86.1755 33.4188 88.7431 33.2708 91.3129 33.2711C105.807 33.2475 119.91 37.9994 131.459 46.7985C131.724 46.995 131.98 47.1964 132.241 47.4029C142.549 55.4796 150.267 66.4221 154.434 78.8698L153.406 80.1993L154.87 85.3111L155.943 84.0822C157.23 89.3344 157.878 94.724 157.873 100.133Z" fill="url(#paint0_linear_48_454)" style="mix-blend-mode:screen"/>
<g style="mix-blend-mode:multiply">
<path d="M29.7188 105.555C30.0917 102.697 30.7655 99.8868 31.7291 97.1716C32.2282 103.759 34.1564 110.158 37.3785 115.917C42.0029 124.835 48.7 133.201 57.9589 137.021C71.2187 142.493 86.1415 139.011 98.75 133.416C111.31 127.843 124.215 119.868 133.815 109.935C139.277 104.219 142.991 97.048 144.518 89.2742C146.045 81.5005 145.32 73.4499 142.429 66.0776C149.194 78.4769 155.059 91.1244 153.898 105.216C152.812 118.387 145.473 130.55 135.484 139.151C125.495 147.751 113.036 153.05 100.275 156.263C88.0082 159.352 74.8201 160.572 62.875 156.401C42.0688 149.135 26.8693 127.422 29.7188 105.555Z" fill="url(#paint1_linear_48_454)" style="mix-blend-mode:screen"/>
</g>
<path style="mix-blend-mode:screen" d="M106.518 68.2683C101.62 78.8089 91.7544 86.6407 82.1087 92.5634C73.5813 97.8062 64.2717 102.47 54.2803 102.903C48.8009 103.145 42.9103 101.881 39.1053 97.9069C35.6612 94.3109 34.4635 89.0631 34.4381 84.0724C34.3584 70.0412 42.2338 57.5913 53.2129 49.075C58.333 45.0971 64.0763 42.0028 70.2076 39.919C70.5034 40.2414 70.7942 40.5637 71.0849 40.8911C74.2266 39.622 77.4468 38.5588 80.7253 37.7082C92.386 37.0987 105.791 42.7996 108.403 55.169C109.196 59.6254 108.535 64.22 106.518 68.2683Z" fill="url(#paint2_linear_48_454)"/>
<path style="mix-blend-mode:screen" d="M102.512 86.562L102.746 87.3478C97.5779 88.9548 92.762 91.5377 88.5572 94.9581C84.355 98.3505 80.8219 102.503 78.14 107.201C76.8155 109.544 75.7179 112.01 74.8623 114.564C73.9776 117.11 73.3114 119.727 72.8709 122.387C72.0005 127.764 72.1422 133.258 73.2888 138.582L73.3946 139.054L72.9513 139.213C70.3041 140.112 67.5048 140.472 64.7175 140.271C61.9302 140.07 59.2109 139.312 56.7186 138.042L57.0972 137.315C61.7863 139.61 67.1804 139.981 72.1371 138.349C70.9667 133.043 70.7671 127.567 71.5481 122.189C71.9094 119.426 72.5435 116.706 73.4413 114.07C74.3661 111.442 75.5402 108.909 76.9472 106.506C77.2837 105.932 77.1272 106.006 77.4895 105.449C75.1435 104.534 72.8457 103.499 70.6049 102.349L68.7577 101.365L66.9377 100.329C66.3425 99.9646 65.7424 99.6067 65.1376 99.2556C64.543 98.8884 63.9515 98.5147 63.3745 98.1198C61.1063 96.4853 58.9343 94.7201 56.8695 92.8332C54.8167 90.9427 52.8635 88.9459 51.0179 86.8508L51.6209 86.297C53.511 88.3009 55.5213 90.1868 57.6404 91.9444C59.7472 93.7061 61.9469 95.3526 64.2299 96.8768C64.8011 97.2553 65.3578 97.6551 65.9115 98.0613C66.4751 98.4522 67.0443 98.8353 67.6191 99.2106L69.3673 100.299L71.1459 101.338C73.3626 102.589 75.643 103.723 77.9776 104.734C80.7379 100.717 84.0742 97.132 87.8783 94.0952C92.247 90.691 97.21 88.1362 102.512 86.562ZM148.528 118.359C148.216 114.134 147.221 109.988 145.581 106.085L145.305 105.426L144.763 105.874C141.857 108.307 138.671 110.382 135.273 112.054L135.629 112.794C138.894 111.243 141.984 109.347 144.849 107.138C146.195 110.765 146.991 114.575 147.21 118.44C147.318 120.477 147.242 122.52 146.984 124.543C146.71 126.556 146.262 128.541 145.646 130.476C144.39 134.372 142.433 138.004 139.871 141.188C137.313 144.398 134.204 147.122 130.691 149.231L130.271 149.483L130.541 149.886C131.013 150.616 131.39 151.403 131.664 152.228C131.76 152.515 131.855 152.807 131.94 153.099C131.98 153.069 132.02 153.034 132.06 153.004C132.261 152.848 132.461 152.686 132.662 152.525C132.607 152.333 132.547 152.142 132.486 151.951C132.25 151.2 131.938 150.476 131.554 149.79C135.053 147.721 138.172 145.061 140.773 141.929C143.481 138.662 145.598 134.945 147.03 130.945C147.734 128.932 148.198 126.842 148.413 124.72C148.645 122.608 148.683 120.478 148.528 118.359ZM135.836 77.3453L129.237 80.3952L125.937 81.9202C125.05 82.3281 124.165 82.7399 123.273 83.1389C122.672 81.9762 121.983 80.8626 121.309 79.7412C120.513 78.4364 119.702 77.1414 118.862 75.8649C117.183 73.3121 115.416 70.8213 113.607 68.3653L112.944 68.8435C114.669 71.3388 116.286 73.9082 117.831 76.5152C118.604 77.8186 119.366 79.1283 120.103 80.4518C120.85 81.7695 121.525 83.126 122.316 84.4186L122.69 85.0296L123.261 84.7197C124.327 84.1421 125.411 83.601 126.489 83.047L129.724 81.3917L136.196 78.0809L135.836 77.3453ZM131.789 47.2733C131.448 47.4546 131.117 47.646 130.786 47.8475C129.648 48.5433 128.576 49.3423 127.583 50.2346C124.902 48.6611 122.093 47.3184 119.186 46.2207L116.9 45.3998C116.129 45.1581 115.361 44.9067 114.579 44.6847C113.797 44.4882 113.005 44.317 112.218 44.1353L109.832 43.6971C106.642 43.1718 103.413 42.9341 100.181 42.987C96.9563 43.0379 93.7413 43.3631 90.5709 43.959L90.7164 44.7698C93.8422 44.252 97.0089 44.0244 100.176 44.0899C103.336 44.1551 106.485 44.4819 109.591 45.0669L111.907 45.56C112.669 45.7564 113.431 45.9629 114.198 46.1443C114.95 46.3659 115.717 46.5572 116.479 46.7586L118.74 47.4688C121.73 48.501 124.624 49.7952 127.388 51.3366L127.734 51.5331L128.01 51.2661C129.368 49.9315 130.903 48.791 132.572 47.8767C132.31 47.6711 132.055 47.4698 131.789 47.2733ZM62.9613 51.3729C64.3435 50.3774 65.7692 49.4542 67.2385 48.6035C67.6051 48.3907 67.961 48.1607 68.3092 47.915C68.6667 47.6855 69.0313 47.4676 69.3969 47.2506L70.5101 46.6287L71.6418 46.0387C73.1655 45.272 74.7325 44.5954 76.3348 44.0124L76.0812 43.2325C74.4091 43.7239 72.7669 44.313 71.1632 44.9968L69.9655 45.5278L68.7827 46.0938C68.0129 46.5066 67.2 46.8488 66.4557 47.3134C64.9831 48.2621 63.5748 49.3078 62.24 50.4438C60.9113 51.5762 59.6415 52.7764 58.4354 54.0397L59.0093 54.6233C60.2543 53.454 61.5747 52.3684 62.9613 51.3729ZM52.305 69.2099C52.5309 69.552 52.8595 69.8167 53.1112 70.1352C53.3846 70.4378 53.6647 70.733 53.9513 71.0208C54.525 71.592 55.1311 72.1295 55.7665 72.6304L56.3128 72.0204C55.7777 71.4637 55.2752 70.8765 54.8077 70.2615C54.5764 69.954 54.3529 69.6418 54.1373 69.325C54.0314 69.1653 53.9269 69.0048 53.8334 68.8366C53.7524 68.663 53.6537 68.4983 53.5389 68.3452C53.0729 67.7429 52.6246 67.1222 52.2001 66.4798C51.7717 65.836 51.3914 65.1614 51.0622 64.4612L50.3038 64.766C50.5637 65.5297 50.8409 66.2934 51.1681 67.0402C51.4919 67.7911 51.8722 68.5166 52.305 69.2099ZM31.1678 118.463C30.7167 118.524 30.2603 118.569 29.8092 118.604L29.1324 118.65C29.0189 118.657 28.905 118.657 28.7915 118.65C28.6782 118.633 28.5627 118.636 28.4506 118.66C28.1048 118.745 27.7538 118.831 27.4029 118.927C27.5182 119.349 27.6334 119.768 27.7588 120.18C28.0646 120.185 28.3704 120.175 28.6762 120.15C28.9118 120.13 29.1275 119.979 29.3581 119.939L30.0348 119.728C30.4809 119.582 30.9272 119.425 31.3683 119.264L31.1678 118.463ZM94.6612 162.15C93.7346 159.837 92.9411 157.473 92.2849 155.069L92.1447 154.555L91.6032 154.646C88.7366 155.123 85.8361 155.366 82.9303 155.371C80.0285 155.457 77.1241 155.344 74.2375 155.033C71.3461 154.714 68.4812 154.187 65.6649 153.456C62.8421 152.725 60.0812 151.77 57.408 150.602L57.0721 151.352C59.7654 152.591 62.5431 153.637 65.384 154.48C68.2309 155.32 71.1368 155.943 74.077 156.343C77.0228 156.756 79.9967 156.933 82.9704 156.872C85.7617 156.736 88.5414 156.42 91.2923 155.925C91.9859 158.176 92.8009 160.387 93.7337 162.548C94.3675 164.015 95.0789 165.448 95.865 166.838C96.0906 166.829 96.3162 166.813 96.5419 166.793H96.5468C96.6471 166.788 96.7423 166.778 96.8426 166.773C96.0259 165.276 95.2976 163.732 94.6612 162.15ZM44.7269 65.8097C41.7527 68.6155 39.1632 71.8063 37.0266 75.2981L36.2345 76.6176C35.9789 77.0608 35.7232 77.504 35.4925 77.9623C35.267 78.4257 35.0614 78.899 34.8508 79.3624L34.2643 80.7877C33.5829 82.5118 33.0069 84.2761 32.5394 86.0707C30.7247 85.4916 28.9048 84.9124 27.0951 84.3182C27.0249 84.5901 26.9548 84.8621 26.8945 85.134C28.8547 85.8491 30.7998 86.5844 32.7449 87.3198L33.2918 87.5213L33.4723 86.937C34.0541 85.0276 34.7471 83.1543 35.5478 81.3266L36.1745 79.9718C36.39 79.5286 36.6256 79.0905 36.8363 78.6371C37.0668 78.199 37.2774 77.7458 37.4829 77.2924C37.7085 76.8494 37.9391 76.4112 38.1748 75.9681C40.1169 72.4739 42.5125 69.2544 45.2988 66.3941L44.7269 65.8097Z" fill="url(#paint3_linear_48_454)"/>
<path d="M87.0345 93.7064C83.4027 96.5275 80.233 99.9026 77.6407 103.709C75.306 102.697 73.0257 101.563 70.8091 100.312L69.0304 99.2733L67.2822 98.1853C66.7082 97.8091 66.139 97.426 65.5745 97.036C65.0209 96.6298 64.4643 96.23 63.8931 95.8515C61.61 94.3273 59.4103 92.6808 57.3034 90.9189C55.1843 89.1612 53.1741 87.275 51.284 85.271L50.6816 85.8249C52.5272 87.92 54.4803 89.9168 56.5331 91.8072C58.598 93.6942 60.7699 95.4594 63.0381 97.0939C63.6152 97.4884 64.2067 97.8624 64.8013 98.2297C65.4069 98.5799 66.0069 98.9378 66.6013 99.3033L68.4213 100.339L70.2686 101.323C72.5094 102.473 74.8072 103.508 77.1532 104.423C76.7909 104.98 76.4409 105.545 76.1034 106.117C74.6961 108.52 73.5218 111.053 72.5967 113.681C71.6991 116.318 71.0649 119.037 70.7035 121.8C69.9475 127.152 70.1727 132.598 71.3678 137.869C66.4109 139.5 61.0163 139.129 56.3271 136.834L55.9485 137.561C58.4407 138.831 61.1601 139.589 63.9474 139.79C66.7347 139.991 69.5339 139.631 72.1812 138.732L72.6245 138.573L72.5187 138.101C71.3475 132.812 71.1802 127.349 72.0257 121.997C72.466 119.338 73.1322 116.721 74.017 114.175C74.8725 111.621 75.9701 109.155 77.2946 106.811C79.9764 102.113 83.5095 97.9611 87.7116 94.5688C91.9168 91.1486 96.7331 88.5658 101.902 86.959L101.668 86.1731C96.3658 87.7474 91.4031 90.3023 87.0345 93.7064Z" fill="url(#paint4_linear_48_454)" style="mix-blend-mode:screen"/>
<path d="M147.571 124.332C147.356 126.455 146.891 128.544 146.187 130.557C144.755 134.557 142.638 138.275 139.931 141.541C137.329 144.674 134.211 147.333 130.711 149.403C131.095 150.089 131.407 150.813 131.644 151.563C131.799 152.047 131.934 152.525 132.06 153.003C131.824 153.19 131.588 153.376 131.348 153.557C131.177 152.978 131.011 152.399 130.822 151.84C130.547 151.015 130.17 150.228 129.699 149.498L129.428 149.095L129.848 148.844C133.361 146.734 136.47 144.01 139.028 140.801C141.59 137.616 143.548 133.985 144.803 130.088C145.42 128.154 145.867 126.168 146.141 124.156C146.4 122.132 146.475 120.089 146.367 118.052C146.149 114.187 145.353 110.377 144.006 106.75C141.142 108.959 138.051 110.856 134.787 112.406L134.431 111.666C137.828 109.994 141.014 107.919 143.921 105.486L144.462 105.038L144.738 105.698C146.378 109.601 147.374 113.746 147.685 117.971C147.84 120.091 147.802 122.22 147.571 124.332Z" fill="url(#paint5_linear_48_454)" style="mix-blend-mode:screen"/>
<path d="M134.991 76.9561L128.392 80.0063L125.093 81.5314C124.206 81.9399 123.32 82.351 122.428 82.7499C121.828 81.5873 121.138 80.4738 120.465 79.3524C119.669 78.0475 118.857 76.7524 118.018 75.4759C116.339 72.9231 114.572 70.4322 112.763 67.9763L112.1 68.4545C113.825 70.9498 115.441 73.5192 116.987 76.1262C117.76 77.4295 118.522 78.7392 119.259 80.0628C120.006 81.3803 120.681 82.737 121.472 84.0296L121.846 84.6405L122.417 84.3305C123.483 83.7529 124.567 83.2119 125.645 82.658L128.88 81.0026L135.352 77.6919L134.991 76.9561Z" fill="url(#paint6_linear_48_454)" style="mix-blend-mode:screen"/>
<path d="M132.241 47.4029C130.573 48.3173 129.038 49.4578 127.679 50.7924L127.403 51.0594L127.057 50.8628C124.293 49.3215 121.399 48.0273 118.409 46.9951L116.149 46.2849C115.386 46.0834 114.62 45.8921 113.867 45.6705C113.1 45.4892 112.339 45.2827 111.576 45.0863L109.26 44.5932C106.154 44.0081 103.005 43.6812 99.8455 43.616C96.6781 43.5506 93.5114 43.7781 90.3855 44.2959L90.2402 43.4852C93.4106 42.8893 96.6256 42.5641 99.8506 42.5131C103.082 42.4602 106.312 42.6979 109.501 43.2233L111.887 43.6614C112.674 43.8427 113.466 44.0136 114.248 44.2108C115.031 44.4325 115.797 44.6842 116.57 44.926L118.855 45.7469C121.762 46.8445 124.571 48.1873 127.253 49.7609C128.246 48.8685 129.318 48.0694 130.456 47.3736C130.787 47.1722 131.118 46.9807 131.459 46.7994C131.724 46.9951 131.98 47.1964 132.241 47.4029Z" fill="url(#paint7_linear_48_454)" style="mix-blend-mode:screen"/>
<path d="M62.1171 50.9836C63.4992 49.988 64.925 49.0649 66.3943 48.2141C66.7608 48.0014 67.1168 47.7712 67.465 47.5256C67.8224 47.2961 68.1872 47.0782 68.5526 46.8612L69.666 46.2392L70.7975 45.6494C72.3212 44.8826 73.8882 44.206 75.4905 43.6229L75.2371 42.843C73.5649 43.3344 71.9228 43.9236 70.319 44.6074L69.1214 45.1384L67.9385 45.7043C67.1688 46.1172 66.3558 46.4594 65.6115 46.9241C64.1388 47.8729 62.7303 48.9189 61.3954 50.055C60.0668 51.1874 58.7969 52.3876 57.5908 53.6509L58.1648 54.2344C59.41 53.0651 60.7302 51.9791 62.1171 50.9836Z" fill="url(#paint8_linear_48_454)" style="mix-blend-mode:screen"/>
<path d="M52.3049 68.0811C52.5308 68.4233 52.8594 68.6878 53.1111 69.0064C53.3845 69.309 53.6646 69.6042 53.9512 69.892C54.5248 70.4633 55.1309 71.0007 55.7665 71.5015L56.3127 70.8917C55.7776 70.335 55.2751 69.7477 54.8077 69.1326C54.5763 68.8252 54.3528 68.5131 54.1372 68.1963C54.0313 68.0364 53.9268 67.8759 53.8333 67.7079C53.7523 67.5342 53.6536 67.3695 53.5388 67.2163C53.0728 66.6141 52.6245 65.9935 52.2 65.3509C51.7717 64.7072 51.3914 64.0326 51.0621 63.3325L50.3037 63.6371C50.5636 64.4008 50.8408 65.1645 51.168 65.9114C51.4919 66.6624 51.8719 67.3877 52.3049 68.0811Z" fill="url(#paint9_linear_48_454)" style="mix-blend-mode:screen"/>
<path d="M31.0787 118.168C30.6375 118.329 30.1913 118.485 29.7452 118.631L29.0683 118.843C28.8378 118.883 28.6222 119.034 28.3866 119.054C28.0808 119.079 27.775 119.089 27.4692 119.084C27.3438 118.671 27.2286 118.253 27.1133 117.83C27.4639 117.734 27.8145 117.649 28.161 117.563C28.2731 117.54 28.3886 117.536 28.5019 117.553C28.6154 117.561 28.7293 117.561 28.8428 117.553L29.5196 117.508C29.9707 117.473 30.4269 117.427 30.8782 117.367L31.0787 118.168Z" fill="url(#paint10_linear_48_454)" style="mix-blend-mode:screen"/>
<path d="M97.499 166.713C97.183 166.743 96.8623 166.773 96.5464 166.793H96.5415C95.5713 165.159 94.7072 163.463 93.9545 161.717C93.0217 159.555 92.2067 157.345 91.5132 155.094C88.7622 155.588 85.9825 155.905 83.1911 156.041C80.2174 156.102 77.2436 155.925 74.2978 155.512C71.3576 155.112 68.4517 154.489 65.6049 153.649C62.764 152.805 59.9863 151.76 57.293 150.521L57.6288 149.771C60.302 150.939 63.0629 151.894 65.8856 152.626C68.702 153.357 71.5669 153.884 74.4582 154.203C77.3448 154.514 80.2492 154.627 83.151 154.541C86.0568 154.536 88.9574 154.293 91.8239 153.815L92.3654 153.725L92.5056 154.239C93.1619 156.643 93.9553 159.007 94.8819 161.32C95.6251 163.178 96.4997 164.98 97.499 166.713Z" fill="url(#paint11_linear_48_454)" style="mix-blend-mode:screen"/>
<path d="M45.0407 65.5689C42.2544 68.4292 39.8588 71.6487 37.9167 75.1429C37.6811 75.5861 37.4506 76.0243 37.2249 76.4672C37.0194 76.9204 36.8089 77.3736 36.5782 77.8119C36.3678 78.2651 36.1321 78.7033 35.9165 79.1465L35.2898 80.5012C34.4892 82.3289 33.7962 84.2023 33.2143 86.1117L33.034 86.6959L32.4871 86.4944C30.542 85.7592 28.5968 85.0238 26.6367 84.3087C26.6967 84.0368 26.767 83.7647 26.8371 83.4928C28.647 84.0871 30.4667 84.6662 32.2815 85.2454C32.749 83.4508 33.3251 81.6865 34.0064 79.9623L34.593 78.537C34.8033 78.0737 35.0091 77.6003 35.2347 77.1369C35.4653 76.6787 35.7209 76.2353 35.9766 75.7922L36.7688 74.4727C38.9053 70.9809 41.4947 67.7901 44.469 64.9844L45.0407 65.5689Z" fill="url(#paint12_linear_48_454)" style="mix-blend-mode:screen"/>
<path d="M59.6194 156.917L59.9202 159.108L59.9303 159.113C59.825 158.383 59.7197 157.652 59.6194 156.917ZM153.407 80.1992L153.477 80.1035C151.399 82.6535 149.041 84.9597 146.448 86.9785C140.58 76.6527 133.306 67.2005 124.836 58.8956C119.71 59.6758 114.631 60.7384 109.621 62.0786C107.154 62.7334 104.708 63.4553 102.282 64.2442C101.705 64.4306 101.128 64.622 100.552 64.8183C97.4637 65.8608 94.4073 67.0074 91.3827 68.2582C89.4442 65.7382 87.637 63.119 85.9685 60.4111C88.064 59.1874 90.1395 58.0541 92.245 56.9764C94.4507 55.8433 96.6867 54.7705 99.0028 53.718C94.5689 46.5687 89.4115 39.899 83.6126 33.8149L83.4422 37.0634C79.2227 37.9858 75.0887 39.2663 71.0847 40.891C70.9392 40.7197 70.7889 40.5585 70.6384 40.3979C74.0922 44.2567 77.1367 48.4662 79.7225 52.9585C69.6876 57.7929 60.8735 64.8487 53.9421 73.5958C47.0107 82.3429 42.1421 92.554 39.702 103.462C39.701 102.842 39.5373 102.233 39.2275 101.696C38.9177 101.159 38.4727 100.714 37.9373 100.405L37.9322 100.4C37.2782 99.9202 36.5178 99.6073 35.7165 99.4886C34.7177 99.4389 33.7244 99.664 32.8436 100.14C31.9628 100.615 31.2281 101.324 30.7185 102.188C29.7244 103.937 29.188 105.911 29.1594 107.924C28.8628 115.059 30.6695 122.123 34.3529 128.23C35.6412 130.33 37.9322 132.143 40.3537 131.715C41.5446 131.468 42.6 130.782 43.3114 129.791H43.3165C43.7581 129.213 44.1065 128.569 44.3491 127.883C44.887 126.014 45.094 124.066 44.9609 122.126C47.3621 123.3 49.2371 124.503 51.6385 125.676C51.0422 135.236 52.222 144.824 55.1176 153.95L59.4841 155.939L59.6194 156.917C58.082 145.982 57.0998 134.975 56.6767 123.939C51.2993 120.915 46.4065 117.093 42.1634 112.603C43.3922 103.271 46.5571 94.3021 51.4535 86.2765C56.3499 78.2509 62.8688 71.3472 70.5884 66.012C70.7738 66.2788 70.9643 66.5407 71.1548 66.7977C74.4492 70.9981 78.0182 74.9738 81.8379 78.6983C84.6707 77.3587 88.27 76.0744 91.1023 74.7348C98.4224 81.1642 103.383 89.8755 105.19 99.4736C99.66 101.541 94.7269 104.954 90.8317 109.406C89.4845 110.966 88.2939 112.657 87.2773 114.452C85.2955 117.913 84.067 121.756 83.673 125.729C83.279 129.701 83.7283 133.713 84.9914 137.498C85.6326 139.286 86.4842 140.99 87.5281 142.575L87.5381 142.59C90.835 147.74 96.0123 151.384 101.956 152.738C109.15 154.234 116.665 151.937 123.067 148.321C124.541 147.493 125.966 146.578 127.333 145.581C129.091 144.313 130.728 142.885 132.226 141.316C133.292 140.193 134.265 138.983 135.134 137.699C136.272 136.021 137.183 134.197 137.84 132.276C140.327 124.948 138.627 116.648 134.682 109.995C134.05 108.93 133.356 107.904 132.601 106.923C129.253 102.263 124.412 98.9012 118.89 97.3994C117.38 97.0364 115.831 96.8605 114.278 96.8756C111.039 88.6971 106.715 80.9955 101.425 73.9794C103.991 72.7857 106.693 71.6072 109.466 70.5195C114.397 68.5144 119.493 66.9456 124.695 65.8307C132.697 74.201 139.995 83.5735 144.813 94.1295C148.501 91.5985 151.877 88.6366 154.87 85.306L153.407 80.1992ZM55.1577 50.3944C51.9561 51.236 49.0744 53.0112 46.8759 55.4962C44.8154 57.6416 41.8527 60.9253 41.6621 64.0477C41.644 64.3182 41.6541 64.59 41.6922 64.8584C41.7668 65.3246 41.9369 65.7701 42.1917 66.1668C42.4465 66.5635 42.7805 66.9027 43.1725 67.1631C43.5645 67.4235 44.0061 67.5993 44.4692 67.6794C44.9324 67.7595 45.407 67.7421 45.8631 67.6285C47.0046 67.3521 48.089 66.8765 49.0667 66.2233C53.1079 63.9984 56.4975 60.7476 58.8972 56.7954C60.6973 53.5269 59.5445 49.4677 55.1577 50.3944Z" fill="url(#paint13_linear_48_454)" style="mix-blend-mode:screen"/>
<path d="M120.224 97.9621C118.733 101.542 116.552 104.791 113.807 107.521L109.185 102.842C107.054 104.968 104.528 106.651 101.75 107.798L104.246 113.897C100.7 115.362 96.9016 116.114 93.067 116.108H92.9968V109.515C92.265 109.515 91.543 109.474 90.8312 109.404C94.7264 104.952 99.6595 101.539 105.189 99.4718C103.383 89.8738 98.4219 81.1625 91.1018 74.733C88.2691 76.0727 84.6699 77.357 81.8375 78.6966C78.0177 74.9721 74.4487 70.9964 71.1543 66.7959C71.5203 66.3829 71.8963 65.985 72.2874 65.5922L76.9191 70.2624C79.0454 68.1346 81.566 66.4459 84.3387 65.2917L81.8373 59.198C85.1424 57.8257 88.6698 57.073 92.2448 56.9771C90.1393 58.0548 88.0638 59.188 85.9682 60.4117C87.6368 63.1197 89.444 65.7389 91.3825 68.2588C94.4106 67.0097 97.467 65.8631 100.552 64.8189C100.988 64.9701 101.419 65.1363 101.84 65.312L102.281 64.2443C104.708 63.4536 107.154 62.7318 109.621 62.0786C111.152 63.1286 112.582 64.3208 113.892 65.6393L109.25 70.298C109.32 70.3684 109.395 70.444 109.466 70.5196C106.693 71.6073 103.991 72.7858 101.424 73.9795C106.715 80.9951 111.039 88.6963 114.278 96.8742C115.831 96.8592 117.38 97.0351 118.89 97.398L120.224 97.9621Z" fill="url(#paint14_linear_48_454)" style="mix-blend-mode:screen"/>
<path d="M109.621 62.0786C110.055 62.2648 110.479 62.4733 110.892 62.7033C111.276 62.9715 111.645 63.259 112 63.5646C112.718 64.1643 113.408 64.7965 114.069 65.4612L114.247 65.6394L114.069 65.8175L111.748 68.1468L110.591 69.3148C110.161 69.6593 109.709 69.9823 109.25 70.2979C109.565 69.837 109.887 69.3836 110.23 68.9517L111.394 67.7905L113.715 65.4612V65.8173C113.065 65.1646 112.387 64.5428 111.68 63.9519C111.331 63.6504 110.955 63.385 110.609 63.0804L109.621 62.0786Z" fill="url(#paint15_linear_48_454)" style="mix-blend-mode:screen"/>
<path d="M71.1543 66.7976L72.2128 65.5191L72.2765 65.4422L72.362 65.5192L73.585 66.6212C73.9897 66.9916 74.4124 67.3439 74.7821 67.7492L77.0971 70.0846H76.7425C78.8921 67.9335 81.4403 66.226 84.2431 65.0587L84.1073 65.3872L81.6058 59.2938L81.5103 59.0611L81.7418 58.965C83.4051 58.2743 85.1279 57.7378 86.8885 57.3623C87.767 57.1672 88.661 57.05 89.56 57.0122C90.4539 56.9531 91.3503 56.9413 92.2455 56.9767C91.3561 57.0642 90.4725 57.1782 89.5975 57.3315C88.7215 57.4815 87.8627 57.7007 86.9925 57.855C85.262 58.2242 83.5687 58.7516 81.9338 59.4305L82.0698 59.1018L84.5713 65.1956L84.6667 65.4281L84.4356 65.5243C81.6933 66.666 79.2001 68.3361 77.0966 70.4404L76.9191 70.6182L76.742 70.4404L74.4247 68.1072C74.0225 67.7344 73.6731 67.3087 73.3058 66.901L72.2128 65.6687H72.3616L71.1543 66.7976Z" fill="url(#paint16_linear_48_454)" style="mix-blend-mode:screen"/>
<path d="M120.224 97.9622C119.554 99.7864 118.697 101.536 117.668 103.184C117.155 104.012 116.58 104.8 115.949 105.542C115.329 106.293 114.674 107.012 113.984 107.7L113.806 107.877L113.63 107.698L109.008 103.02L109.362 103.021C107.207 105.169 104.654 106.872 101.846 108.031L101.983 107.702L104.479 113.801L104.574 114.034L104.342 114.13C100.743 115.615 96.8881 116.373 92.9973 116.36L92.7471 116.359V116.108L92.7437 114.46C92.7451 113.91 92.7775 113.361 92.793 112.811L92.9095 109.515L92.9977 109.603L90.8311 109.405L92.9967 109.427L93.082 109.428L93.0851 109.515L93.2016 112.812C93.217 113.361 93.2494 113.911 93.2508 114.46L93.2475 116.109L92.9969 115.857C96.8222 115.87 100.613 115.125 104.151 113.665L104.015 113.994L101.518 107.895L101.423 107.661L101.655 107.566C104.402 106.431 106.901 104.766 109.009 102.664L109.186 102.487L109.363 102.666L113.985 107.344L113.631 107.343C114.308 106.667 114.952 105.96 115.562 105.221C116.174 104.484 116.725 103.702 117.304 102.938C118.43 101.374 119.408 99.7087 120.224 97.9622Z" fill="url(#paint17_linear_48_454)" style="mix-blend-mode:screen"/>
<path d="M137.84 132.274C137.183 134.195 136.272 136.02 135.134 137.698C134.035 138.518 132.84 139.198 131.574 139.723L132.226 141.315C130.729 142.884 129.091 144.312 127.333 145.581C126.677 145.646 126.015 145.676 125.348 145.676H125.298V140.952C123.146 140.948 121.016 140.517 119.031 139.682L117.217 144.044C114.662 142.972 112.344 141.404 110.394 139.431L113.727 136.097C112.21 134.564 111.006 132.747 110.183 130.748L105.837 132.552C104.785 129.992 104.247 127.248 104.252 124.479L108.954 124.463C108.952 122.296 109.378 120.149 110.208 118.148L105.866 116.33C106.931 113.763 108.49 111.432 110.453 109.471L113.772 112.815C115.297 111.291 117.104 110.081 119.091 109.253L117.296 104.882C119.824 103.834 122.532 103.292 125.267 103.285H125.367V108.009C127.518 108.007 129.648 108.434 131.634 109.263L132.601 106.921C133.356 107.902 134.051 108.928 134.683 109.994C138.627 116.647 140.327 124.947 137.84 132.274Z" fill="url(#paint18_linear_48_454)" style="mix-blend-mode:screen"/>
<path d="M125.297 140.952C123.137 140.99 120.991 140.598 118.982 139.8L119.148 139.732L117.419 144.13L117.34 144.333L117.131 144.248C116.481 143.993 115.846 143.701 115.229 143.373C114.613 143.043 114.015 142.68 113.438 142.284C112.28 141.5 111.2 140.604 110.215 139.608L110.039 139.43L110.216 139.252L113.55 135.918L113.549 136.274C112.008 134.718 110.786 132.873 109.951 130.844L110.278 130.981L105.932 132.785L105.7 132.88L105.604 132.648C104.541 130.057 103.996 127.281 104.001 124.479V124.228L104.251 124.227L108.953 124.212L108.703 124.463C108.702 122.262 109.134 120.083 109.976 118.051L110.111 118.38L105.769 116.562L105.538 116.466L105.634 116.233C106.712 113.635 108.289 111.277 110.276 109.292L110.454 109.114L110.631 109.293L113.949 112.637L113.595 112.636C115.144 111.089 116.978 109.861 118.994 109.021L118.858 109.35L117.063 104.978L116.968 104.745L117.2 104.65C118.492 104.115 119.833 103.709 121.204 103.438C121.889 103.299 122.58 103.197 123.276 103.133C123.971 103.074 124.669 103.053 125.366 103.068L125.587 103.072L125.583 103.286L125.492 108.01L125.366 107.884C127.525 107.925 129.655 108.395 131.633 109.265C129.639 108.478 127.509 108.095 125.366 108.137L125.243 108.139L125.241 108.011L125.149 103.287L125.366 103.505C124.002 103.538 122.642 103.681 121.301 103.933C119.962 104.197 118.652 104.594 117.391 105.116L117.527 104.787L119.322 109.159L119.418 109.391L119.186 109.487C117.229 110.303 115.45 111.494 113.948 112.994L113.77 113.171L113.594 112.993L110.275 109.648H110.63C108.69 111.586 107.15 113.889 106.097 116.426L105.962 116.097L110.304 117.915L110.535 118.012L110.439 118.244C109.623 120.215 109.203 122.328 109.204 124.463V124.714L108.954 124.714L104.252 124.73L104.502 124.478C104.497 127.214 105.029 129.925 106.067 132.455L105.74 132.318L110.086 130.515L110.318 130.419L110.414 130.651C111.224 132.619 112.41 134.409 113.904 135.919L114.081 136.097L113.903 136.274L110.569 139.608L110.57 139.252C111.532 140.225 112.586 141.1 113.718 141.866C114.283 142.248 114.872 142.594 115.469 142.924C116.069 143.248 116.675 143.564 117.301 143.839L117.012 143.958L118.913 139.633L118.965 139.513L119.079 139.564C121.041 140.434 123.154 140.905 125.297 140.952Z" fill="url(#paint19_linear_48_454)" style="mix-blend-mode:screen"/>
<path d="M83.6149 33.8174C89.4134 39.9003 94.5703 46.5693 99.0032 53.7179L97.3148 54.4955C93.4104 48.1417 88.7522 42.2878 83.4425 37.0626L83.6149 33.8174ZM39.702 103.462L40.6015 103.348C46.6429 80.9153 60.0982 65.6604 79.7225 54.4961V52.958C69.5263 57.5602 60.5738 64.5456 53.6119 73.3312C46.65 82.1167 41.8807 92.4477 39.702 103.462ZM31.3249 117.367C27.5947 100.531 34.378 99.4174 37.9323 100.399C37.2783 99.9195 36.5178 99.6067 35.7165 99.488C34.7178 99.4382 33.7244 99.6633 32.8436 100.139C31.9629 100.615 31.2281 101.323 30.7185 102.187C29.7245 103.936 29.188 105.91 29.1594 107.924C28.8627 115.059 30.6694 122.123 34.3529 128.23C35.6412 130.33 37.9323 132.143 40.3537 131.715C41.5446 131.468 42.6 130.782 43.3114 129.791C42.9406 130.053 35.2698 135.165 31.3249 117.367ZM51.6385 125.677C51.0049 136.263 52.5089 146.869 56.0601 156.856L57.5437 155.056C54.6237 145.293 53.5176 135.074 54.2807 124.909L47.3687 121.051L44.9609 122.126L51.6385 125.677ZM85.9689 60.4116V62.9304L91.0157 69.9604C101.746 66.0411 112.757 62.9461 123.954 60.7022C132.268 68.783 139.627 77.8008 145.884 87.5767L146.448 86.9787C140.581 76.6526 133.307 67.2003 124.836 58.8957C113.353 60.6607 102.121 63.804 91.3831 68.2582L85.9689 60.4116ZM83.3971 135.996C83.352 135.77 83.3219 135.609 83.3019 135.523C83.3225 135.683 83.3543 135.841 83.3971 135.996ZM134.683 109.994C130.281 102.58 122.872 96.7888 114.279 96.8744C111.039 88.6963 106.716 80.9951 101.425 73.9794V76.8199C106.211 83.5379 110.099 90.8576 112.99 98.5918C112.99 98.5918 130.882 96.2724 135.921 120.709C140.954 145.14 107.526 156.368 95.6645 148.995C92.6958 147.215 89.965 145.062 87.538 142.589C90.8349 147.739 96.0122 151.383 101.956 152.737C109.15 154.233 116.665 151.936 123.067 148.32C129.534 144.664 135.444 139.325 137.841 132.274C140.327 124.947 138.628 116.647 134.683 109.994ZM83.8711 124.241C86.1945 113.958 93.8436 105.885 104.37 101.035L105.19 99.4731C92.2715 104.872 85.9163 113.497 83.8711 124.241ZM155.943 84.0822L154.605 84.381C151.562 87.7352 148.151 90.7332 144.437 93.3177L144.814 94.1296C148.946 91.2849 152.688 87.9069 155.943 84.0822ZM42.5293 66.0568C42.4904 65.7892 42.4795 65.5182 42.4969 65.2483C42.6889 62.124 45.6493 58.8416 47.7137 56.6934C49.9113 54.2082 52.7934 52.4339 55.9952 51.5948C56.5749 51.4184 57.1879 51.3821 57.7841 51.4889C58.3804 51.5957 58.9432 51.8426 59.4265 52.2093C58.862 50.7909 57.4538 49.9096 55.1591 50.3967C51.9571 51.2357 49.0749 53.0102 46.8773 55.4955C44.8134 57.6435 41.853 60.9259 41.6606 64.0504C41.6433 64.3203 41.6542 64.5912 41.6931 64.8588C41.7992 65.6189 42.1697 66.3168 42.739 66.8289C42.6393 66.5806 42.5689 66.3215 42.5293 66.0568Z" fill="url(#paint20_linear_48_454)" style="mix-blend-mode:screen"/>
<path style="mix-blend-mode:screen" d="M59.7958 78.5685C58.9053 79.8303 58.0977 81.4913 58.825 82.8546C59.2226 83.3902 59.7408 83.8234 60.3372 84.119C60.9336 84.4145 61.5912 84.5639 62.2561 84.5549C65.249 84.8891 68.2773 84.6757 71.1945 83.9252C71.9775 83.8135 72.7264 83.5294 73.3875 83.0932C74.0487 82.657 74.6057 82.0795 75.019 81.402C75.4467 79.9389 75.3012 78.3668 74.6123 77.0079C74.1127 75.2893 73.2636 73.6934 72.1187 72.3212C67.8054 67.8164 62.1845 75.1836 59.7958 78.5685Z" fill="url(#paint21_linear_48_454)"/>
<path style="mix-blend-mode:screen" d="M63.7246 55.571C63.346 56.2261 63.0348 57.1276 63.5553 57.676C63.8121 57.8616 64.112 57.9779 64.4263 58.0136C64.7407 58.0493 65.0588 58.0032 65.3504 57.8799C67.6894 57.2889 69.9514 56.424 72.0897 55.303C72.8448 54.9507 73.5302 54.4638 74.1126 53.866C74.4014 53.5646 74.6179 53.201 74.7456 52.8029C74.8734 52.4047 74.909 51.9825 74.8498 51.5684C74.6834 51.0109 74.3507 50.5181 73.8966 50.1565C73.4426 49.7949 72.889 49.5821 72.3107 49.5466C68.4343 49.1082 65.4792 52.5391 63.7246 55.571Z" fill="url(#paint22_linear_48_454)"/>
<path d="M132.22 130.727C131.911 131.219 131.496 131.634 131.006 131.942C130.515 132.25 129.962 132.442 129.387 132.505C128.206 132.486 127.08 132.001 126.253 131.154C125.425 130.34 124.834 129.316 124.541 128.191C124.248 127.066 124.266 125.882 124.591 124.766C124.968 123.6 125.637 122.55 126.533 121.717C127.43 120.884 128.524 120.296 129.711 120.009C128.032 119.953 126.357 120.219 124.777 120.795C123.189 121.38 121.845 122.486 120.961 123.933C120.371 125.093 120.086 126.386 120.132 127.687C120.179 128.989 120.556 130.257 121.227 131.372C122.59 133.583 124.568 135.345 126.916 136.44C125.099 136.665 123.258 136.294 121.667 135.384C116.876 132.85 113.746 127.983 115.284 122.432C115.722 120.851 116.517 119.393 117.607 118.17C118.697 116.948 120.053 115.994 121.569 115.383C123.085 114.773 124.721 114.521 126.349 114.648C127.978 114.775 129.555 115.278 130.959 116.116C133.801 117.814 134.563 122.833 134.183 125.883C133.917 127.63 133.245 129.29 132.22 130.727Z" fill="url(#paint23_linear_48_454)" style="mix-blend-mode:screen"/>
<path d="M29.6401 27.4039C28.9439 27.1546 28.1888 27.123 27.4743 27.3133C27.5195 27.9428 27.6449 28.5522 27.6847 29.1817C27.6997 29.4385 26.0554 30.2746 25.8148 30.4106C25.1274 30.8071 24.4119 31.1521 23.6741 31.443C22.436 31.9394 21.1318 32.25 19.8036 32.3646C18.1647 32.5035 16.5152 32.2897 14.965 31.7374C13.4149 31.185 11.9999 30.3069 10.8145 29.1615C10.4286 28.7637 8.5686 27.3687 8.62877 26.734C8.62372 26.724 8.62877 26.7189 8.62877 26.714C8.71403 26.155 9.18522 25.616 9.27048 25.057H9.26642C8.66481 25.1023 7.89211 24.9361 7.29625 24.9815C5.92731 23.2956 4.92371 21.3413 4.34965 19.2435C3.77559 17.1457 3.6437 14.9507 3.96242 12.7987C4.25356 10.717 4.97818 8.72021 6.08903 6.93866C7.19988 5.15712 8.67203 3.63078 10.4095 2.45916L10.5448 2.36843C10.8595 2.6248 11.2068 2.83799 11.5775 3.0024C11.6628 3.04269 11.743 3.08298 11.8332 3.1182L11.8532 3.1282C12.1139 2.47353 12.6353 1.6829 12.906 1.01808C12.9214 0.989073 12.9348 0.958989 12.9461 0.928059C19.6688 -0.779143 26.743 -0.83465 31.8616 6.97173C36.7889 14.4966 33.8562 21.8691 29.6401 27.4039Z" fill="url(#paint24_linear_48_454)" style="mix-blend-mode:screen"/>
<path d="M6.17188 18.7529C7.39491 20.6172 9.12064 22.0935 11.1476 23.0094C13.1745 23.9253 15.419 24.243 17.6189 23.9255C19.8095 23.5596 21.8973 22.7286 23.7429 21.4879C25.5886 20.2472 27.1496 18.6253 28.3218 16.7305C29.3074 15.3587 29.9831 13.7874 30.3019 12.1263C30.6206 10.4651 30.5748 8.75408 30.1675 7.11255C31.2951 8.96644 32.0311 11.0335 32.3298 13.1853C32.6284 15.337 32.4834 17.5275 31.9037 19.6206C31.4602 21.4565 30.6102 23.1682 29.4171 24.6285C28.1601 26.0364 26.6031 27.1413 24.8621 27.8609C23.0295 28.6945 21.0475 29.1459 19.0362 29.1878C17.0249 29.2296 15.026 28.8609 13.1607 28.1042C11.2933 27.2813 9.66889 25.9882 8.44457 24.35C7.22026 22.7118 6.43745 20.7839 6.17188 18.7529Z" fill="url(#paint25_linear_48_454)" style="mix-blend-mode:screen"/>
<path style="mix-blend-mode:screen" d="M10.2243 4.24176C11.9231 2.72664 13.991 1.69047 16.2177 1.23859C18.296 0.867928 20.5419 0.785935 22.0979 2.47299C22.8438 3.29789 23.2768 4.36024 23.321 5.47376C23.2846 6.48878 22.8641 7.4516 22.1453 8.16587C20.6563 10.1379 18.7053 11.7097 16.4658 12.7416C14.2316 13.7667 11.8597 14.4569 9.42593 14.79C8.63461 14.9917 7.7991 14.9247 7.04963 14.5995C6.64861 14.3177 6.32416 13.9395 6.10584 13.4995C5.88753 13.0595 5.78229 12.5716 5.79971 12.0803C5.79969 10.4461 6.31753 8.85441 7.27822 7.53571C8.11166 6.31225 9.10224 5.2047 10.2243 4.24176Z" fill="url(#paint26_linear_48_454)"/>
<path style="mix-blend-mode:screen" d="M27.6854 29.1817L27.4751 27.3133L18.7388 15.8419C18.8023 15.7902 18.8636 15.7358 18.9273 15.6844C18.5563 15.6442 18.1302 15.5989 17.7592 15.5586C14.2413 18.0291 11.3357 21.2789 9.26684 25.057H9.27189C9.18663 25.616 8.71544 26.155 8.63017 26.714C8.63017 26.7189 8.62512 26.724 8.63017 26.734C11.2252 23.004 14.2863 19.6241 17.7382 16.6773C20.4632 21.287 23.8107 25.4951 27.6854 29.1817Z" fill="url(#paint27_linear_48_454)"/>
<path d="M18.1603 15.5133C14.5655 17.9542 11.5513 21.162 9.3326 24.9078C8.65455 24.7506 7.94664 24.7822 7.28516 24.9993C9.89396 21.1907 13.2414 17.9506 17.1269 15.4731C17.4628 15.5717 17.8178 15.5855 18.1603 15.5133Z" fill="url(#paint28_linear_48_454)" style="mix-blend-mode:screen"/>
<path style="mix-blend-mode:screen" d="M18.1601 15.5132C17.8177 15.5831 17.4635 15.5692 17.1274 15.4729C13.7101 11.8592 11.3812 7.34723 10.4102 2.45914L10.5455 2.36841C10.8602 2.62478 11.2075 2.83797 11.5782 3.00237C12.9483 7.56012 15.1834 11.8085 18.1601 15.5132Z" fill="url(#paint29_linear_48_454)"/>
<path d="M18.9267 15.6442C18.6683 15.6933 18.4011 15.6635 18.1597 15.5585C15.2085 11.9018 13.0532 7.66398 11.833 3.11867L11.8531 3.12868C12.1138 2.474 12.6352 1.68337 12.9058 1.01855C14.2278 6.15071 16.2542 11.0731 18.9267 15.6442Z" fill="url(#paint30_linear_48_454)" style="mix-blend-mode:screen"/>
<path d="M18.9264 15.6442C21.7968 20.1549 25.4215 24.1333 29.6404 27.4039L27.4746 27.3133C23.6839 23.9969 20.5273 20.0134 18.1602 15.5586L18.9264 15.6442Z" fill="url(#paint31_linear_48_454)" style="mix-blend-mode:screen"/>
<path style="mix-blend-mode:screen" d="M9.0473 5.34925C9.15583 5.2612 9.29067 5.21235 9.43017 5.21053C9.56966 5.20872 9.70572 5.25405 9.81649 5.33925C9.93231 5.46587 10.0044 5.62664 10.0221 5.79768C10.1251 6.39205 10.0199 7.00391 9.72435 7.52911C9.67564 7.63941 9.6024 7.737 9.51026 7.8144C9.41812 7.8918 9.30954 7.94694 9.19286 7.97557C8.87887 8.01304 8.62042 7.72001 8.50318 7.425C8.36617 7.06533 8.34499 6.67154 8.44261 6.29913C8.54023 5.92672 8.75173 5.59449 9.0473 5.34925ZM11.1713 14.9779C11.2107 15.3007 11.3486 15.6033 11.5659 15.8442C11.7331 15.994 11.9403 16.0912 12.162 16.1238C12.3836 16.1563 12.6099 16.1228 12.8128 16.0274C13.0131 15.9271 13.189 15.7836 13.3277 15.607C13.4663 15.4305 13.5644 15.2253 13.6149 15.0063C13.7236 14.5867 13.6626 14.141 13.4451 13.7665C13.3538 13.6151 13.2334 13.4834 13.0909 13.3791C12.9485 13.2749 12.7868 13.2001 12.6153 13.1593C12.4438 13.1184 12.2659 13.1122 12.092 13.141C11.9181 13.1698 11.7517 13.2331 11.6024 13.3272C11.0375 13.6558 11.0668 14.3979 11.1713 14.9779ZM7.4465 20.1235C7.46151 20.1474 7.47736 20.171 7.49404 20.1939C7.63436 20.3894 7.82412 20.5437 8.0437 20.6408C8.26329 20.7379 8.50471 20.7743 8.74298 20.7462C8.98034 20.7111 9.20241 20.6074 9.38218 20.4478C9.56194 20.2882 9.69164 20.0795 9.75549 19.8472C9.79695 19.5458 9.77677 19.239 9.69619 18.9457C9.6156 18.6524 9.47631 18.3787 9.28682 18.1413C8.90496 17.7102 8.20027 18.0596 7.80985 18.3275C7.52534 18.5179 7.3274 18.8137 7.25932 19.1502C7.19123 19.4867 7.25853 19.8367 7.4465 20.1235ZM17.0606 21.5925C17.3035 21.6729 17.5658 21.6711 17.8075 21.5875C18.0493 21.5039 18.2571 21.343 18.3992 21.1295C18.5202 20.9269 18.5799 20.6933 18.5708 20.4571C18.5618 20.221 18.4844 19.9927 18.3482 19.8C18.2063 19.6115 18.0166 19.4648 17.799 19.3753C17.5813 19.2857 17.3437 19.2566 17.111 19.291C15.8355 19.4859 16.0016 21.2136 17.0606 21.5925ZM16.7161 7.37513C17.0027 7.51877 17.3282 7.56415 17.643 7.50434C17.9577 7.44453 18.2442 7.28281 18.4588 7.04392C18.6641 6.79684 18.7971 6.49735 18.843 6.17881C18.8889 5.86028 18.8458 5.5352 18.7187 5.23979C18.6021 4.93262 18.3697 4.68404 18.0717 4.54806C17.7737 4.45223 17.4527 4.45623 17.1571 4.55947C16.8785 4.62814 16.6202 4.76287 16.4041 4.95239C16.2641 5.13121 16.1611 5.33626 16.101 5.55555C16.0409 5.77484 16.0249 6.00398 16.0539 6.22955C16.083 6.45513 16.1565 6.67262 16.2702 6.86932C16.3839 7.06602 16.5355 7.23797 16.7161 7.37513ZM22.4737 18.1526C22.6816 18.3939 22.9687 18.5523 23.2829 18.5992C23.4592 18.6032 23.6343 18.5688 23.796 18.4983C23.9578 18.4277 24.1024 18.3228 24.2198 18.1906C24.484 17.9196 24.6604 17.5746 24.7258 17.201C24.7912 16.8274 24.7426 16.4427 24.5863 16.0974C24.4301 15.752 24.1735 15.4623 23.8503 15.2662C23.5271 15.07 23.1524 14.9767 22.7754 14.9985C22.5197 15.0051 22.2722 15.0901 22.0661 15.2422C21.2597 15.8842 21.9125 17.5689 22.4737 18.1526ZM29.4865 25.4239C29.6865 25.3295 29.858 25.1837 29.9837 25.0011C30.1093 24.8185 30.1845 24.6057 30.2017 24.3845C30.2084 24.2015 30.1774 24.0192 30.1108 23.8488C30.0441 23.6784 29.9432 23.5236 29.8144 23.3942C29.553 23.1361 29.2154 22.9701 28.8522 22.921C28.6608 22.8839 28.4632 22.8949 28.2771 22.9532C28.091 23.0114 27.9221 23.1151 27.7856 23.2548C27.649 23.3946 27.5491 23.5662 27.4946 23.7542C27.4401 23.9422 27.4328 24.1409 27.4733 24.3325C27.5239 24.5432 27.6182 24.7408 27.7499 24.9126C27.8815 25.0843 28.0477 25.2263 28.2376 25.3293C28.4275 25.4322 28.6368 25.4939 28.852 25.5103C29.0672 25.5267 29.2834 25.4969 29.4865 25.4239ZM21.8296 28.9124C22.1486 29.199 22.5481 29.3792 22.9733 29.4283C23.248 29.4873 23.5341 29.462 23.7943 29.3557C24.0546 29.2494 24.2771 29.067 24.433 28.8322C24.5041 28.6754 24.5397 28.5048 24.5372 28.3325C24.5348 28.1602 24.4944 27.9906 24.419 27.8359C24.2649 27.5272 24.0388 27.2606 23.7598 27.0588C23.469 26.8201 23.1264 26.6533 22.7597 26.5721C22.5764 26.5327 22.3871 26.5303 22.203 26.5652C22.0188 26.6 21.8433 26.6714 21.6869 26.7751C20.9734 27.2837 21.2787 28.3942 21.8296 28.9124Z" fill="url(#paint32_linear_48_454)"/>
<path d="M170.778 161.529C170.311 161.361 169.803 161.34 169.323 161.468C169.354 161.891 169.438 162.3 169.465 162.723C169.475 162.896 168.37 163.458 168.209 163.549C167.747 163.815 167.266 164.047 166.77 164.243C165.939 164.576 165.063 164.785 164.17 164.862C163.069 164.955 161.961 164.811 160.92 164.44C159.878 164.069 158.928 163.479 158.131 162.71C157.872 162.442 156.622 161.505 156.663 161.079C156.659 161.072 156.663 161.069 156.663 161.065C156.72 160.689 157.037 160.327 157.094 159.952H157.09C156.686 159.982 156.168 159.87 155.767 159.901C154.847 158.768 154.173 157.455 153.787 156.046C153.401 154.636 153.313 153.161 153.527 151.716C153.723 150.317 154.209 148.976 154.956 147.779C155.702 146.582 156.691 145.556 157.858 144.769L157.949 144.708C158.161 144.881 158.394 145.024 158.643 145.135C158.7 145.162 158.754 145.189 158.815 145.212L158.829 145.219C159.004 144.779 159.354 144.248 159.536 143.801C159.547 143.782 159.556 143.761 159.563 143.74C164.08 142.593 168.833 142.556 172.271 147.801C175.581 152.856 173.611 157.81 170.778 161.529Z" fill="url(#paint33_linear_48_454)" style="mix-blend-mode:screen"/>
<path d="M155.012 155.716C155.833 156.969 156.993 157.96 158.355 158.576C159.716 159.191 161.224 159.405 162.702 159.191C164.174 158.945 165.577 158.387 166.817 157.554C168.057 156.72 169.106 155.63 169.893 154.357C170.555 153.436 171.009 152.38 171.223 151.264C171.438 150.148 171.407 148.998 171.133 147.896C171.891 149.141 172.385 150.53 172.586 151.975C172.786 153.421 172.689 154.893 172.299 156.299C172.027 157.543 171.453 158.699 170.627 159.665C169.802 160.631 168.751 161.377 167.568 161.836C166.337 162.396 165.005 162.699 163.654 162.727C162.303 162.755 160.96 162.507 159.707 161.999C158.452 161.446 157.361 160.577 156.538 159.477C155.716 158.376 155.19 157.081 155.012 155.716Z" fill="url(#paint34_linear_48_454)" style="mix-blend-mode:screen"/>
<path style="mix-blend-mode:screen" d="M157.734 145.967C158.875 144.949 160.265 144.253 161.761 143.949C162.434 143.733 163.152 143.695 163.845 143.841C164.537 143.986 165.18 144.309 165.711 144.779C166.213 145.333 166.503 146.047 166.533 146.795C166.509 147.477 166.226 148.124 165.743 148.604C164.743 149.929 163.432 150.985 161.927 151.678C160.426 152.367 158.832 152.831 157.197 153.054C156.666 153.19 156.104 153.145 155.601 152.926C155.331 152.737 155.113 152.483 154.967 152.187C154.82 151.892 154.749 151.564 154.761 151.234C154.761 150.136 155.109 149.066 155.755 148.18C156.315 147.358 156.98 146.614 157.734 145.967Z" fill="url(#paint35_linear_48_454)"/>
<path style="mix-blend-mode:screen" d="M169.465 162.723L169.323 161.468L163.454 153.761C163.497 153.726 163.538 153.69 163.58 153.655C163.331 153.628 163.045 153.598 162.795 153.571C160.431 155.23 158.479 157.414 157.089 159.952H157.093C157.036 160.328 156.719 160.69 156.662 161.065C156.662 161.069 156.658 161.072 156.662 161.08C158.405 158.574 160.462 156.303 162.781 154.323C164.612 157.42 166.861 160.247 169.465 162.723Z" fill="url(#paint36_linear_48_454)"/>
<path d="M163.066 153.54C160.651 155.18 158.626 157.335 157.135 159.852C156.68 159.746 156.204 159.767 155.76 159.913C157.512 157.354 159.761 155.177 162.372 153.513C162.597 153.579 162.836 153.589 163.066 153.54Z" fill="url(#paint37_linear_48_454)" style="mix-blend-mode:screen"/>
<path style="mix-blend-mode:screen" d="M163.065 153.54C162.835 153.587 162.597 153.578 162.372 153.513C160.076 151.085 158.511 148.054 157.858 144.77L157.949 144.709C158.161 144.881 158.394 145.025 158.643 145.135C159.564 148.197 161.066 151.051 163.065 153.54Z" fill="url(#paint38_linear_48_454)"/>
<path d="M163.581 153.628C163.408 153.661 163.228 153.641 163.066 153.571C161.083 151.114 159.635 148.267 158.815 145.213L158.829 145.22C159.005 144.78 159.355 144.249 159.537 143.802C160.425 147.25 161.786 150.557 163.581 153.628Z" fill="url(#paint39_linear_48_454)" style="mix-blend-mode:screen"/>
<path d="M163.581 153.628C165.509 156.658 167.944 159.331 170.778 161.529L169.323 161.468C166.777 159.24 164.656 156.564 163.065 153.571L163.581 153.628Z" fill="url(#paint40_linear_48_454)" style="mix-blend-mode:screen"/>
<path style="mix-blend-mode:screen" d="M156.943 146.712C157.017 146.652 157.107 146.62 157.201 146.618C157.295 146.617 157.386 146.648 157.461 146.705C157.538 146.79 157.587 146.898 157.599 147.013C157.668 147.412 157.597 147.824 157.399 148.176C157.366 148.25 157.317 148.316 157.255 148.368C157.193 148.42 157.12 148.457 157.042 148.476C156.831 148.501 156.657 148.305 156.579 148.106C156.487 147.865 156.472 147.6 156.538 147.35C156.603 147.1 156.745 146.876 156.943 146.712ZM158.37 153.181C158.397 153.397 158.49 153.601 158.636 153.762C158.748 153.863 158.887 153.929 159.036 153.95C159.185 153.972 159.337 153.95 159.473 153.886C159.608 153.819 159.726 153.722 159.819 153.604C159.912 153.485 159.978 153.347 160.012 153.2C160.085 152.918 160.044 152.619 159.898 152.367C159.837 152.265 159.756 152.177 159.66 152.106C159.565 152.036 159.456 151.986 159.341 151.958C159.226 151.931 159.106 151.927 158.989 151.946C158.872 151.965 158.76 152.008 158.66 152.071C158.281 152.293 158.3 152.791 158.37 153.181ZM155.867 156.638L155.899 156.685C155.994 156.817 156.121 156.92 156.269 156.985C156.416 157.051 156.578 157.075 156.738 157.056C156.898 157.033 157.047 156.963 157.168 156.856C157.289 156.749 157.376 156.608 157.419 156.452C157.447 156.25 157.433 156.044 157.379 155.847C157.325 155.649 157.231 155.466 157.104 155.306C156.847 155.016 156.375 155.251 156.112 155.431C155.921 155.559 155.788 155.758 155.742 155.984C155.696 156.21 155.741 156.445 155.867 156.638ZM162.327 157.624C162.49 157.679 162.666 157.677 162.829 157.621C162.991 157.565 163.131 157.457 163.226 157.314C163.307 157.177 163.347 157.02 163.341 156.862C163.335 156.703 163.283 156.55 163.192 156.42C163.096 156.294 162.969 156.195 162.823 156.135C162.676 156.075 162.517 156.055 162.361 156.078C161.504 156.209 161.616 157.37 162.327 157.624ZM162.096 148.073C162.288 148.169 162.507 148.2 162.718 148.16C162.93 148.119 163.122 148.011 163.266 147.85C163.404 147.684 163.494 147.483 163.524 147.269C163.555 147.055 163.526 146.837 163.441 146.639C163.363 146.432 163.207 146.265 163.006 146.174C162.806 146.109 162.59 146.112 162.392 146.181C162.205 146.227 162.031 146.318 161.886 146.445C161.792 146.565 161.723 146.703 161.682 146.85C161.642 146.998 161.631 147.152 161.651 147.303C161.67 147.455 161.72 147.601 161.796 147.733C161.872 147.865 161.974 147.981 162.096 148.073ZM165.964 155.314C166.104 155.476 166.296 155.583 166.508 155.614C166.626 155.617 166.744 155.594 166.852 155.546C166.961 155.499 167.058 155.428 167.137 155.34C167.314 155.158 167.433 154.926 167.477 154.675C167.521 154.424 167.488 154.165 167.383 153.933C167.278 153.701 167.106 153.506 166.889 153.375C166.671 153.243 166.42 153.18 166.166 153.195C165.994 153.199 165.828 153.257 165.689 153.359C165.149 153.79 165.587 154.922 165.964 155.314ZM170.676 160.199C170.81 160.136 170.926 160.038 171.01 159.915C171.095 159.792 171.145 159.649 171.157 159.501C171.161 159.378 171.14 159.255 171.096 159.141C171.051 159.026 170.983 158.922 170.897 158.835C170.721 158.662 170.494 158.551 170.25 158.518C170.122 158.493 169.989 158.5 169.864 158.539C169.739 158.578 169.625 158.648 169.534 158.742C169.442 158.836 169.375 158.951 169.338 159.077C169.301 159.204 169.297 159.337 169.324 159.466C169.358 159.607 169.421 159.74 169.51 159.855C169.598 159.97 169.71 160.066 169.837 160.135C169.965 160.204 170.105 160.245 170.249 160.256C170.394 160.267 170.54 160.248 170.676 160.199ZM165.532 162.543C165.746 162.736 166.014 162.857 166.3 162.889C166.485 162.929 166.677 162.912 166.852 162.841C167.027 162.769 167.176 162.647 167.281 162.489C167.328 162.384 167.352 162.269 167.351 162.153C167.349 162.038 167.322 161.924 167.271 161.82C167.168 161.612 167.016 161.433 166.828 161.298C166.633 161.137 166.403 161.025 166.157 160.971C166.033 160.944 165.906 160.943 165.783 160.966C165.659 160.989 165.541 161.037 165.436 161.107C164.956 161.448 165.161 162.195 165.532 162.543Z" fill="url(#paint41_linear_48_454)"/>
<path d="M10.0936 130.131C9.82497 130.06 9.54116 130.072 9.27957 130.166C9.31645 130.401 9.38278 130.625 9.4177 130.86C9.43172 130.955 8.84273 131.321 8.75635 131.38C8.51149 131.55 8.25445 131.702 7.9873 131.835C7.53936 132.06 7.06078 132.218 6.56699 132.304C5.95758 132.408 5.333 132.381 4.73494 132.224C4.13689 132.066 3.5791 131.783 3.09882 131.392C2.94161 131.255 2.20131 130.792 2.20327 130.552V130.545C2.2173 130.333 2.37689 130.116 2.39119 129.904H2.38852C2.16415 129.94 1.86965 129.902 1.64822 129.938C1.08214 129.351 0.644362 128.651 0.362876 127.884C0.0813894 127.116 -0.0376081 126.298 0.0134928 125.482C0.0566088 124.693 0.264747 123.922 0.62434 123.22C0.983933 122.517 1.48691 121.898 2.10048 121.404L2.1483 121.365C2.27421 121.451 2.41098 121.52 2.55498 121.57C2.58808 121.582 2.61949 121.595 2.65441 121.605L2.66226 121.608C2.73911 121.355 2.90936 121.042 2.98958 120.784C2.99435 120.773 2.99834 120.761 3.0015 120.75C5.4653 119.895 8.11295 119.648 10.2773 122.408C12.3621 125.068 11.4973 127.923 10.0936 130.131Z" fill="url(#paint42_linear_48_454)" style="mix-blend-mode:screen"/>
<path d="M1.0293 127.642C1.54648 128.301 2.23961 128.798 3.02778 129.077C3.81596 129.355 4.66664 129.402 5.48052 129.213C6.2894 129.006 7.04501 128.628 7.69694 128.104C8.34888 127.58 8.88213 126.923 9.26113 126.176C9.58685 125.63 9.79023 125.02 9.85708 124.388C9.92393 123.756 9.85264 123.116 9.64818 122.514C10.1292 123.173 10.4703 123.923 10.6503 124.72C10.8304 125.516 10.8454 126.341 10.6946 127.144C10.5867 127.845 10.3225 128.514 9.92192 129.099C9.49574 129.666 8.9476 130.13 8.31833 130.455C7.65828 130.826 6.93017 131.058 6.17811 131.138C5.42604 131.218 4.66565 131.144 3.94297 130.92C3.21763 130.671 2.56837 130.239 2.05796 129.665C1.54755 129.091 1.19324 128.394 1.0293 127.642Z" fill="url(#paint43_linear_48_454)" style="mix-blend-mode:screen"/>
<path style="mix-blend-mode:screen" d="M2.08733 122.077C2.67557 121.455 3.41722 121.001 4.23686 120.761C4.60223 120.608 5.00077 120.553 5.39362 120.601C5.78647 120.649 6.16021 120.798 6.47839 121.035C6.78383 121.32 6.97967 121.704 7.03162 122.12C7.05008 122.501 6.92309 122.875 6.67654 123.166C6.18127 123.952 5.50024 124.603 4.69403 125.061C3.88972 125.516 3.02323 125.851 2.12225 126.053C1.83228 126.154 1.51727 126.156 1.22628 126.058C1.06715 125.965 0.933643 125.834 0.837922 125.676C0.7422 125.518 0.687307 125.339 0.678241 125.154C0.62665 124.542 0.770314 123.93 1.08843 123.405C1.36176 122.92 1.69763 122.474 2.08733 122.077Z" fill="url(#paint44_linear_48_454)"/>
<path style="mix-blend-mode:screen" d="M9.41728 130.86L9.27914 130.166L5.64367 126.15C5.66583 126.128 5.68715 126.106 5.7093 126.085L5.26784 126.075C4.02852 127.113 3.04324 128.423 2.3881 129.904H2.39006C2.37604 130.115 2.21645 130.333 2.20215 130.545V130.552C3.05595 129.073 4.09527 127.709 5.29463 126.495C6.46163 128.134 7.84903 129.603 9.41728 130.86Z" fill="url(#paint45_linear_48_454)"/>
<path d="M5.41687 126.045C4.14794 127.074 3.12073 128.372 2.40854 129.846C2.14958 129.809 1.88542 129.843 1.64453 129.946C2.50095 128.436 3.652 127.115 5.0287 126.063C5.15759 126.089 5.29092 126.083 5.41687 126.045Z" fill="url(#paint46_linear_48_454)" style="mix-blend-mode:screen"/>
<path style="mix-blend-mode:screen" d="M5.41716 126.045C5.29106 126.082 5.15794 126.088 5.02899 126.063C3.63455 124.819 2.61926 123.203 2.10059 121.404L2.14841 121.365C2.27432 121.451 2.41108 121.52 2.55509 121.57C3.21281 123.233 4.1847 124.753 5.41716 126.045Z" fill="url(#paint47_linear_48_454)"/>
<path d="M5.70807 126.07C5.61282 126.096 5.5118 126.094 5.41806 126.062C4.19685 124.787 3.25534 123.269 2.6543 121.605L2.66215 121.608C2.739 121.355 2.90925 121.042 2.98946 120.784C3.64727 122.664 4.56224 124.443 5.70807 126.07Z" fill="url(#paint48_linear_48_454)" style="mix-blend-mode:screen"/>
<path d="M5.70798 126.069C6.92595 127.667 8.40949 129.041 10.0931 130.131L9.27908 130.166C7.7542 129.046 6.44573 127.655 5.41797 126.062L5.70798 126.069Z" fill="url(#paint49_linear_48_454)" style="mix-blend-mode:screen"/>
<path style="mix-blend-mode:screen" d="M1.68207 122.53C1.71996 122.493 1.76895 122.471 1.82117 122.466C1.87338 122.461 1.92579 122.473 1.96997 122.502C2.01735 122.545 2.04946 122.603 2.06155 122.667C2.11913 122.886 2.09931 123.119 2.00545 123.325C1.99076 123.368 1.96643 123.407 1.93435 123.439C1.90228 123.471 1.86332 123.495 1.82048 123.509C1.70409 123.533 1.59807 123.432 1.54478 123.325C1.48189 123.195 1.46131 123.048 1.48595 122.905C1.51058 122.762 1.57918 122.631 1.68207 122.53ZM2.78264 126.068C2.80759 126.188 2.86883 126.297 2.95794 126.38C3.02533 126.431 3.10606 126.46 3.19009 126.465C3.27413 126.47 3.35778 126.45 3.43067 126.408C3.5026 126.364 3.56394 126.305 3.6103 126.234C3.65666 126.163 3.68688 126.083 3.6988 126C3.72618 125.839 3.68918 125.674 3.59587 125.541C3.55689 125.487 3.50765 125.441 3.45099 125.407C3.39434 125.372 3.33142 125.349 3.26589 125.34C3.20036 125.33 3.13353 125.333 3.0693 125.349C3.00506 125.366 2.94471 125.395 2.89174 125.435C2.69065 125.577 2.72514 125.854 2.78264 126.068ZM1.55039 128.114L1.57044 128.139C1.62919 128.208 1.70515 128.26 1.79045 128.289C1.87575 128.319 1.96731 128.324 2.05566 128.306C2.14343 128.286 2.22329 128.24 2.28554 128.174C2.34778 128.109 2.38972 128.026 2.40625 127.937C2.41224 127.823 2.39496 127.709 2.35549 127.601C2.31602 127.494 2.25518 127.396 2.17668 127.313C2.02004 127.164 1.76719 127.317 1.62976 127.43C1.52922 127.511 1.46443 127.628 1.44956 127.756C1.43469 127.884 1.47094 128.013 1.55039 128.114ZM5.19778 128.357C5.29128 128.379 5.38949 128.37 5.47739 128.331C5.5653 128.292 5.63805 128.225 5.68454 128.141C5.72345 128.061 5.73839 127.972 5.7275 127.884C5.71662 127.795 5.68039 127.712 5.62326 127.645C5.56415 127.579 5.48846 127.53 5.40412 127.503C5.31977 127.477 5.22986 127.473 5.14379 127.493C4.67246 127.607 4.78927 128.249 5.19778 128.357ZM4.61847 123.043C4.73035 123.088 4.85371 123.094 4.96969 123.062C5.08566 123.029 5.18785 122.96 5.26061 122.863C5.32969 122.764 5.37002 122.648 5.37711 122.527C5.38419 122.406 5.35774 122.286 5.30071 122.179C5.24739 122.068 5.15243 121.982 5.03651 121.941C4.92185 121.915 4.80175 121.926 4.69433 121.975C4.59217 122.009 4.49975 122.068 4.4248 122.146C4.37805 122.217 4.34594 122.297 4.33037 122.381C4.31479 122.465 4.31606 122.552 4.33409 122.635C4.35212 122.719 4.38656 122.798 4.43539 122.868C4.48422 122.938 4.54646 122.998 4.61847 123.043ZM7.11649 126.896C7.20207 126.979 7.3146 127.029 7.4337 127.037C7.49987 127.032 7.56437 127.014 7.62272 126.982C7.68107 126.951 7.73189 126.907 7.77167 126.853C7.86199 126.743 7.91709 126.609 7.92972 126.467C7.94235 126.325 7.91192 126.182 7.84242 126.058C7.77293 125.933 7.66763 125.833 7.54035 125.77C7.41307 125.707 7.26976 125.684 7.12925 125.704C7.03374 125.715 6.94376 125.754 6.87135 125.818C6.59018 126.085 6.88776 126.695 7.11649 126.896ZM9.97337 129.395C10.0454 129.353 10.105 129.293 10.1464 129.221C10.1877 129.148 10.2091 129.066 10.2085 128.983C10.2052 128.914 10.1878 128.847 10.1574 128.785C10.1271 128.724 10.0844 128.669 10.0321 128.625C9.92608 128.536 9.79434 128.485 9.65672 128.478C9.58386 128.471 9.51023 128.481 9.44239 128.509C9.37454 128.537 9.3146 128.581 9.2679 128.638C9.2212 128.694 9.1892 128.762 9.17475 128.834C9.16031 128.906 9.16386 128.981 9.1851 129.051C9.21081 129.128 9.25239 129.199 9.30716 129.259C9.36192 129.319 9.42864 129.367 9.50298 129.399C9.57732 129.432 9.65762 129.448 9.73866 129.447C9.8197 129.447 9.89967 129.429 9.97337 129.395ZM7.21619 130.946C7.34478 131.043 7.50012 131.098 7.66088 131.103C7.76565 131.116 7.87199 131.098 7.96612 131.05C8.06025 131.001 8.13781 130.926 8.18873 130.833C8.21034 130.772 8.21823 130.707 8.21183 130.642C8.20543 130.578 8.1849 130.516 8.15171 130.46C8.08416 130.35 7.99108 130.257 7.88035 130.19C7.76385 130.11 7.63026 130.059 7.49035 130.04C7.42047 130.031 7.34951 130.036 7.28163 130.055C7.21376 130.074 7.15032 130.106 7.09503 130.15C6.84401 130.363 6.99336 130.77 7.21619 130.946Z" fill="url(#paint50_linear_48_454)"/>
</g>
<defs>
<linearGradient id="paint0_linear_48_454" x1="53.7113" y1="36.2976" x2="124.833" y2="152.268" gradientUnits="userSpaceOnUse">
<stop stop-color="#00E0FF"/>
<stop offset="0.359375" stop-color="#00E0FF" stop-opacity="0.6"/>
<stop offset="0.682292" stop-color="#00E0FF" stop-opacity="0.2"/>
<stop offset="1" stop-color="#1C2602"/>
</linearGradient>
<linearGradient id="paint1_linear_48_454" x1="56.4916" y1="68.1824" x2="98.351" y2="160.103" gradientUnits="userSpaceOnUse">
<stop stop-color="#00E0FF"/>
<stop offset="0.359375" stop-color="#00E0FF" stop-opacity="0.6"/>
<stop offset="0.682292" stop-color="#00E0FF" stop-opacity="0.2"/>
<stop offset="1" stop-color="#1C2602"/>
</linearGradient>
<linearGradient id="paint2_linear_48_454" x1="50.5965" y1="39.1412" x2="83.0373" y2="99.6306" gradientUnits="userSpaceOnUse">
<stop stop-color="#00E0FF"/>
<stop offset="0.359375" stop-color="#00E0FF" stop-opacity="0.6"/>
<stop offset="0.682292" stop-color="#00E0FF" stop-opacity="0.2"/>
<stop offset="1" stop-color="#1C2602"/>
</linearGradient>
<linearGradient id="paint3_linear_48_454" x1="53.3709" y1="45.7829" x2="119.621" y2="152.44" gradientUnits="userSpaceOnUse">
<stop stop-color="#00E0FF"/>
<stop offset="0.359375" stop-color="#00E0FF" stop-opacity="0.6"/>
<stop offset="0.682292" stop-color="#00E0FF" stop-opacity="0.2"/>
<stop offset="1" stop-color="#1C2602"/>
</linearGradient>
<linearGradient id="paint4_linear_48_454" x1="61.8224" y1="86.5061" x2="91.5884" y2="132.271" gradientUnits="userSpaceOnUse">
<stop stop-color="#00E0FF"/>
<stop offset="0.359375" stop-color="#00E0FF" stop-opacity="0.6"/>
<stop offset="0.682292" stop-color="#00E0FF" stop-opacity="0.2"/>
<stop offset="1" stop-color="#1C2602"/>
</linearGradient>
<linearGradient id="paint5_linear_48_454" x1="133.419" y1="106.136" x2="159.342" y2="122.196" gradientUnits="userSpaceOnUse">
<stop stop-color="#00E0FF"/>
<stop offset="0.359375" stop-color="#00E0FF" stop-opacity="0.6"/>
<stop offset="0.682292" stop-color="#00E0FF" stop-opacity="0.2"/>
<stop offset="1" stop-color="#1C2602"/>
</linearGradient>
<linearGradient id="paint6_linear_48_454" x1="117.157" y1="68.3535" x2="124.46" y2="85.0449" gradientUnits="userSpaceOnUse">
<stop stop-color="#00E0FF"/>
<stop offset="0.359375" stop-color="#00E0FF" stop-opacity="0.6"/>
<stop offset="0.682292" stop-color="#00E0FF" stop-opacity="0.2"/>
<stop offset="1" stop-color="#1C2602"/>
</linearGradient>
<linearGradient id="paint7_linear_48_454" x1="99.3756" y1="42.6994" x2="100.625" y2="52.7515" gradientUnits="userSpaceOnUse">
<stop stop-color="#00E0FF"/>
<stop offset="0.359375" stop-color="#00E0FF" stop-opacity="0.6"/>
<stop offset="0.682292" stop-color="#00E0FF" stop-opacity="0.2"/>
<stop offset="1" stop-color="#1C2602"/>
</linearGradient>
<linearGradient id="paint8_linear_48_454" x1="61.4841" y1="43.1008" x2="66.0728" y2="54.9122" gradientUnits="userSpaceOnUse">
<stop stop-color="#00E0FF"/>
<stop offset="0.359375" stop-color="#00E0FF" stop-opacity="0.6"/>
<stop offset="0.682292" stop-color="#00E0FF" stop-opacity="0.2"/>
<stop offset="1" stop-color="#1C2602"/>
</linearGradient>
<linearGradient id="paint9_linear_48_454" x1="51.6107" y1="63.5174" x2="56.4015" y2="69.2901" gradientUnits="userSpaceOnUse">
<stop stop-color="#00E0FF"/>
<stop offset="0.359375" stop-color="#00E0FF" stop-opacity="0.6"/>
<stop offset="0.682292" stop-color="#00E0FF" stop-opacity="0.2"/>
<stop offset="1" stop-color="#1C2602"/>
</linearGradient>
<linearGradient id="paint10_linear_48_454" x1="27.9758" y1="117.406" x2="28.4827" y2="119.322" gradientUnits="userSpaceOnUse">
<stop stop-color="#00E0FF"/>
<stop offset="0.359375" stop-color="#00E0FF" stop-opacity="0.6"/>
<stop offset="0.682292" stop-color="#00E0FF" stop-opacity="0.2"/>
<stop offset="1" stop-color="#1C2602"/>
</linearGradient>
<linearGradient id="paint11_linear_48_454" x1="66.038" y1="150.156" x2="70.9596" y2="169.198" gradientUnits="userSpaceOnUse">
<stop stop-color="#00E0FF"/>
<stop offset="0.359375" stop-color="#00E0FF" stop-opacity="0.6"/>
<stop offset="0.682292" stop-color="#00E0FF" stop-opacity="0.2"/>
<stop offset="1" stop-color="#1C2602"/>
</linearGradient>
<linearGradient id="paint12_linear_48_454" x1="30.6397" y1="65.4758" x2="42.9266" y2="82.5368" gradientUnits="userSpaceOnUse">
<stop stop-color="#00E0FF"/>
<stop offset="0.359375" stop-color="#00E0FF" stop-opacity="0.6"/>
<stop offset="0.682292" stop-color="#00E0FF" stop-opacity="0.2"/>
<stop offset="1" stop-color="#1C2602"/>
</linearGradient>
<linearGradient id="paint13_linear_48_454" x1="56.4776" y1="36.6507" x2="122.868" y2="145.791" gradientUnits="userSpaceOnUse">
<stop stop-color="#00E0FF"/>
<stop offset="0.359375" stop-color="#00E0FF" stop-opacity="0.6"/>
<stop offset="0.682292" stop-color="#00E0FF" stop-opacity="0.2"/>
<stop offset="1" stop-color="#1C2602"/>
</linearGradient>
<linearGradient id="paint14_linear_48_454" x1="81.8273" y1="58.3153" x2="115.51" y2="104.102" gradientUnits="userSpaceOnUse">
<stop stop-color="#00E0FF"/>
<stop offset="0.359375" stop-color="#00E0FF" stop-opacity="0.6"/>
<stop offset="0.682292" stop-color="#00E0FF" stop-opacity="0.2"/>
<stop offset="1" stop-color="#1C2602"/>
</linearGradient>
<linearGradient id="paint15_linear_48_454" x1="110.337" y1="62.2646" x2="115.241" y2="67.1487" gradientUnits="userSpaceOnUse">
<stop stop-color="#00E0FF"/>
<stop offset="0.359375" stop-color="#00E0FF" stop-opacity="0.6"/>
<stop offset="0.682292" stop-color="#00E0FF" stop-opacity="0.2"/>
<stop offset="1" stop-color="#1C2602"/>
</linearGradient>
<linearGradient id="paint16_linear_48_454" x1="75.7418" y1="57.266" x2="81.3165" y2="71.3646" gradientUnits="userSpaceOnUse">
<stop stop-color="#00E0FF"/>
<stop offset="0.359375" stop-color="#00E0FF" stop-opacity="0.6"/>
<stop offset="0.682292" stop-color="#00E0FF" stop-opacity="0.2"/>
<stop offset="1" stop-color="#1C2602"/>
</linearGradient>
<linearGradient id="paint17_linear_48_454" x1="97.2243" y1="98.3785" x2="104.545" y2="117.537" gradientUnits="userSpaceOnUse">
<stop stop-color="#00E0FF"/>
<stop offset="0.359375" stop-color="#00E0FF" stop-opacity="0.6"/>
<stop offset="0.682292" stop-color="#00E0FF" stop-opacity="0.2"/>
<stop offset="1" stop-color="#1C2602"/>
</linearGradient>
<linearGradient id="paint18_linear_48_454" x1="111.811" y1="104.245" x2="136.044" y2="136.788" gradientUnits="userSpaceOnUse">
<stop stop-color="#00E0FF"/>
<stop offset="0.359375" stop-color="#00E0FF" stop-opacity="0.6"/>
<stop offset="0.682292" stop-color="#00E0FF" stop-opacity="0.2"/>
<stop offset="1" stop-color="#1C2602"/>
</linearGradient>
<linearGradient id="paint19_linear_48_454" x1="110.011" y1="103.997" x2="134.531" y2="130.891" gradientUnits="userSpaceOnUse">
<stop stop-color="#00E0FF"/>
<stop offset="0.359375" stop-color="#00E0FF" stop-opacity="0.6"/>
<stop offset="0.682292" stop-color="#00E0FF" stop-opacity="0.2"/>
<stop offset="1" stop-color="#1C2602"/>
</linearGradient>
<linearGradient id="paint20_linear_48_454" x1="56.7111" y1="36.602" x2="121.091" y2="145.301" gradientUnits="userSpaceOnUse">
<stop stop-color="#00E0FF"/>
<stop offset="0.359375" stop-color="#00E0FF" stop-opacity="0.6"/>
<stop offset="0.682292" stop-color="#00E0FF" stop-opacity="0.2"/>
<stop offset="1" stop-color="#1C2602"/>
</linearGradient>
<linearGradient id="paint21_linear_48_454" x1="62.179" y1="71.2153" x2="68.8014" y2="84.3514" gradientUnits="userSpaceOnUse">
<stop stop-color="#00E0FF"/>
<stop offset="0.359375" stop-color="#00E0FF" stop-opacity="0.6"/>
<stop offset="0.682292" stop-color="#00E0FF" stop-opacity="0.2"/>
<stop offset="1" stop-color="#1C2602"/>
</linearGradient>
<linearGradient id="paint22_linear_48_454" x1="65.8028" y1="49.7013" x2="69.5967" y2="58.164" gradientUnits="userSpaceOnUse">
<stop stop-color="#00E0FF"/>
<stop offset="0.359375" stop-color="#00E0FF" stop-opacity="0.6"/>
<stop offset="0.682292" stop-color="#00E0FF" stop-opacity="0.2"/>
<stop offset="1" stop-color="#1C2602"/>
</linearGradient>
<linearGradient id="paint23_linear_48_454" x1="119.106" y1="115.111" x2="131.312" y2="132.819" gradientUnits="userSpaceOnUse">
<stop stop-color="#00E0FF"/>
<stop offset="0.359375" stop-color="#00E0FF" stop-opacity="0.6"/>
<stop offset="0.682292" stop-color="#00E0FF" stop-opacity="0.2"/>
<stop offset="1" stop-color="#1C2602"/>
</linearGradient>
<linearGradient id="paint24_linear_48_454" x1="10.458" y1="0.733417" x2="28.0796" y2="28.0291" gradientUnits="userSpaceOnUse">
<stop stop-color="#00E0FF"/>
<stop offset="0.359375" stop-color="#00E0FF" stop-opacity="0.6"/>
<stop offset="0.682292" stop-color="#00E0FF" stop-opacity="0.2"/>
<stop offset="1" stop-color="#1C2602"/>
</linearGradient>
<linearGradient id="paint25_linear_48_454" x1="11.8943" y1="7.61223" x2="22.586" y2="28.4824" gradientUnits="userSpaceOnUse">
<stop stop-color="#00E0FF"/>
<stop offset="0.359375" stop-color="#00E0FF" stop-opacity="0.6"/>
<stop offset="0.682292" stop-color="#00E0FF" stop-opacity="0.2"/>
<stop offset="1" stop-color="#1C2602"/>
</linearGradient>
<linearGradient id="paint26_linear_48_454" x1="9.60926" y1="1.33306" x2="16.1048" y2="14.7612" gradientUnits="userSpaceOnUse">
<stop stop-color="#00E0FF"/>
<stop offset="0.359375" stop-color="#00E0FF" stop-opacity="0.6"/>
<stop offset="0.682292" stop-color="#00E0FF" stop-opacity="0.2"/>
<stop offset="1" stop-color="#1C2602"/>
</linearGradient>
<linearGradient id="paint27_linear_48_454" x1="12.7731" y1="15.8669" x2="18.7326" y2="29.5236" gradientUnits="userSpaceOnUse">
<stop stop-color="#00E0FF"/>
<stop offset="0.359375" stop-color="#00E0FF" stop-opacity="0.6"/>
<stop offset="0.682292" stop-color="#00E0FF" stop-opacity="0.2"/>
<stop offset="1" stop-color="#1C2602"/>
</linearGradient>
<linearGradient id="paint28_linear_48_454" x1="9.65057" y1="15.6887" x2="14.3778" y2="24.529" gradientUnits="userSpaceOnUse">
<stop stop-color="#00E0FF"/>
<stop offset="0.359375" stop-color="#00E0FF" stop-opacity="0.6"/>
<stop offset="0.682292" stop-color="#00E0FF" stop-opacity="0.2"/>
<stop offset="1" stop-color="#1C2602"/>
</linearGradient>
<linearGradient id="paint29_linear_48_454" x1="12.0958" y1="2.6669" x2="19.9595" y2="10.2364" gradientUnits="userSpaceOnUse">
<stop stop-color="#00E0FF"/>
<stop offset="0.359375" stop-color="#00E0FF" stop-opacity="0.6"/>
<stop offset="0.682292" stop-color="#00E0FF" stop-opacity="0.2"/>
<stop offset="1" stop-color="#1C2602"/>
</linearGradient>
<linearGradient id="paint30_linear_48_454" x1="13.3759" y1="1.35009" x2="21.8872" y2="8.10175" gradientUnits="userSpaceOnUse">
<stop stop-color="#00E0FF"/>
<stop offset="0.359375" stop-color="#00E0FF" stop-opacity="0.6"/>
<stop offset="0.682292" stop-color="#00E0FF" stop-opacity="0.2"/>
<stop offset="1" stop-color="#1C2602"/>
</linearGradient>
<linearGradient id="paint31_linear_48_454" x1="20.6572" y1="15.8267" x2="27.0318" y2="25.9472" gradientUnits="userSpaceOnUse">
<stop stop-color="#00E0FF"/>
<stop offset="0.359375" stop-color="#00E0FF" stop-opacity="0.6"/>
<stop offset="0.682292" stop-color="#00E0FF" stop-opacity="0.2"/>
<stop offset="1" stop-color="#1C2602"/>
</linearGradient>
<linearGradient id="paint32_linear_48_454" x1="12.2293" y1="5.04437" x2="25.9661" y2="25.735" gradientUnits="userSpaceOnUse">
<stop stop-color="#00E0FF"/>
<stop offset="0.359375" stop-color="#00E0FF" stop-opacity="0.6"/>
<stop offset="0.682292" stop-color="#00E0FF" stop-opacity="0.2"/>
<stop offset="1" stop-color="#1C2602"/>
</linearGradient>
<linearGradient id="paint33_linear_48_454" x1="157.891" y1="143.61" x2="169.73" y2="161.949" gradientUnits="userSpaceOnUse">
<stop stop-color="#00E0FF"/>
<stop offset="0.359375" stop-color="#00E0FF" stop-opacity="0.6"/>
<stop offset="0.682292" stop-color="#00E0FF" stop-opacity="0.2"/>
<stop offset="1" stop-color="#1C2602"/>
</linearGradient>
<linearGradient id="paint34_linear_48_454" x1="158.856" y1="148.231" x2="166.04" y2="162.253" gradientUnits="userSpaceOnUse">
<stop stop-color="#00E0FF"/>
<stop offset="0.359375" stop-color="#00E0FF" stop-opacity="0.6"/>
<stop offset="0.682292" stop-color="#00E0FF" stop-opacity="0.2"/>
<stop offset="1" stop-color="#1C2602"/>
</linearGradient>
<linearGradient id="paint35_linear_48_454" x1="157.321" y1="143.966" x2="161.721" y2="153.017" gradientUnits="userSpaceOnUse">
<stop stop-color="#00E0FF"/>
<stop offset="0.359375" stop-color="#00E0FF" stop-opacity="0.6"/>
<stop offset="0.682292" stop-color="#00E0FF" stop-opacity="0.2"/>
<stop offset="1" stop-color="#1C2602"/>
</linearGradient>
<linearGradient id="paint36_linear_48_454" x1="159.445" y1="153.778" x2="163.449" y2="162.953" gradientUnits="userSpaceOnUse">
<stop stop-color="#00E0FF"/>
<stop offset="0.359375" stop-color="#00E0FF" stop-opacity="0.6"/>
<stop offset="0.682292" stop-color="#00E0FF" stop-opacity="0.2"/>
<stop offset="1" stop-color="#1C2602"/>
</linearGradient>
<linearGradient id="paint37_linear_48_454" x1="157.349" y1="153.658" x2="160.525" y2="159.597" gradientUnits="userSpaceOnUse">
<stop stop-color="#00E0FF"/>
<stop offset="0.359375" stop-color="#00E0FF" stop-opacity="0.6"/>
<stop offset="0.682292" stop-color="#00E0FF" stop-opacity="0.2"/>
<stop offset="1" stop-color="#1C2602"/>
</linearGradient>
<linearGradient id="paint38_linear_48_454" x1="158.991" y1="144.91" x2="164.274" y2="149.995" gradientUnits="userSpaceOnUse">
<stop stop-color="#00E0FF"/>
<stop offset="0.359375" stop-color="#00E0FF" stop-opacity="0.6"/>
<stop offset="0.682292" stop-color="#00E0FF" stop-opacity="0.2"/>
<stop offset="1" stop-color="#1C2602"/>
</linearGradient>
<linearGradient id="paint39_linear_48_454" x1="159.852" y1="144.025" x2="165.57" y2="148.561" gradientUnits="userSpaceOnUse">
<stop stop-color="#00E0FF"/>
<stop offset="0.359375" stop-color="#00E0FF" stop-opacity="0.6"/>
<stop offset="0.682292" stop-color="#00E0FF" stop-opacity="0.2"/>
<stop offset="1" stop-color="#1C2602"/>
</linearGradient>
<linearGradient id="paint40_linear_48_454" x1="164.743" y1="153.751" x2="169.026" y2="160.55" gradientUnits="userSpaceOnUse">
<stop stop-color="#00E0FF"/>
<stop offset="0.359375" stop-color="#00E0FF" stop-opacity="0.6"/>
<stop offset="0.682292" stop-color="#00E0FF" stop-opacity="0.2"/>
<stop offset="1" stop-color="#1C2602"/>
</linearGradient>
<linearGradient id="paint41_linear_48_454" x1="159.081" y1="146.507" x2="168.31" y2="160.409" gradientUnits="userSpaceOnUse">
<stop stop-color="#00E0FF"/>
<stop offset="0.359375" stop-color="#00E0FF" stop-opacity="0.6"/>
<stop offset="0.682292" stop-color="#00E0FF" stop-opacity="0.2"/>
<stop offset="1" stop-color="#1C2602"/>
</linearGradient>
<linearGradient id="paint42_linear_48_454" x1="2.50769" y1="120.445" x2="9.1431" y2="130.712" gradientUnits="userSpaceOnUse">
<stop stop-color="#00E0FF"/>
<stop offset="0.359375" stop-color="#00E0FF" stop-opacity="0.6"/>
<stop offset="0.682292" stop-color="#00E0FF" stop-opacity="0.2"/>
<stop offset="1" stop-color="#1C2602"/>
</linearGradient>
<linearGradient id="paint43_linear_48_454" x1="3.15395" y1="122.71" x2="7.47604" y2="130.701" gradientUnits="userSpaceOnUse">
<stop stop-color="#00E0FF"/>
<stop offset="0.359375" stop-color="#00E0FF" stop-opacity="0.6"/>
<stop offset="0.682292" stop-color="#00E0FF" stop-opacity="0.2"/>
<stop offset="1" stop-color="#1C2602"/>
</linearGradient>
<linearGradient id="paint44_linear_48_454" x1="2.05249" y1="120.71" x2="4.79658" y2="125.869" gradientUnits="userSpaceOnUse">
<stop stop-color="#00E0FF"/>
<stop offset="0.359375" stop-color="#00E0FF" stop-opacity="0.6"/>
<stop offset="0.682292" stop-color="#00E0FF" stop-opacity="0.2"/>
<stop offset="1" stop-color="#1C2602"/>
</linearGradient>
<linearGradient id="paint45_linear_48_454" x1="3.77148" y1="126.183" x2="5.75766" y2="131.089" gradientUnits="userSpaceOnUse">
<stop stop-color="#00E0FF"/>
<stop offset="0.359375" stop-color="#00E0FF" stop-opacity="0.6"/>
<stop offset="0.682292" stop-color="#00E0FF" stop-opacity="0.2"/>
<stop offset="1" stop-color="#1C2602"/>
</linearGradient>
<linearGradient id="paint46_linear_48_454" x1="2.46504" y1="126.133" x2="4.56609" y2="129.462" gradientUnits="userSpaceOnUse">
<stop stop-color="#00E0FF"/>
<stop offset="0.359375" stop-color="#00E0FF" stop-opacity="0.6"/>
<stop offset="0.682292" stop-color="#00E0FF" stop-opacity="0.2"/>
<stop offset="1" stop-color="#1C2602"/>
</linearGradient>
<linearGradient id="paint47_linear_48_454" x1="2.82196" y1="121.472" x2="5.60587" y2="124.681" gradientUnits="userSpaceOnUse">
<stop stop-color="#00E0FF"/>
<stop offset="0.359375" stop-color="#00E0FF" stop-opacity="0.6"/>
<stop offset="0.682292" stop-color="#00E0FF" stop-opacity="0.2"/>
<stop offset="1" stop-color="#1C2602"/>
</linearGradient>
<linearGradient id="paint48_linear_48_454" x1="3.31851" y1="120.904" x2="6.47755" y2="123.884" gradientUnits="userSpaceOnUse">
<stop stop-color="#00E0FF"/>
<stop offset="0.359375" stop-color="#00E0FF" stop-opacity="0.6"/>
<stop offset="0.682292" stop-color="#00E0FF" stop-opacity="0.2"/>
<stop offset="1" stop-color="#1C2602"/>
</linearGradient>
<linearGradient id="paint49_linear_48_454" x1="6.43485" y1="126.155" x2="8.47428" y2="129.96" gradientUnits="userSpaceOnUse">
<stop stop-color="#00E0FF"/>
<stop offset="0.359375" stop-color="#00E0FF" stop-opacity="0.6"/>
<stop offset="0.682292" stop-color="#00E0FF" stop-opacity="0.2"/>
<stop offset="1" stop-color="#1C2602"/>
</linearGradient>
<linearGradient id="paint50_linear_48_454" x1="3.35214" y1="122.135" x2="8.3245" y2="129.91" gradientUnits="userSpaceOnUse">
<stop stop-color="#00E0FF"/>
<stop offset="0.359375" stop-color="#00E0FF" stop-opacity="0.6"/>
<stop offset="0.682292" stop-color="#00E0FF" stop-opacity="0.2"/>
<stop offset="1" stop-color="#1C2602"/>
</linearGradient>
<clipPath id="clip0_48_454">
<rect width="174" height="167" fill="white"/>
</clipPath>
</defs>
</svg>
