<svg width="31" height="33" viewBox="0 0 31 33" fill="none" xmlns="http://www.w3.org/2000/svg">
<path d="M25.8472 27.4039C25.1509 27.1546 24.3958 27.123 23.6814 27.3133C23.7265 27.9428 23.8519 28.5522 23.8917 29.1817C23.9067 29.4385 22.2625 30.2746 22.0218 30.4106C21.3345 30.8071 20.619 31.1521 19.8811 31.443C18.643 31.9394 17.3388 32.25 16.0106 32.3646C14.3717 32.5035 12.7222 32.2897 11.1721 31.7374C9.62198 31.185 8.20698 30.3069 7.02151 29.1615C6.63558 28.7637 4.77564 27.3687 4.8358 26.734C4.83075 26.724 4.8358 26.7189 4.8358 26.714C4.92106 26.155 5.39225 25.616 5.47752 25.057H5.47345C4.87184 25.1023 4.09914 24.9361 3.50328 24.9815C2.13434 23.2956 1.13075 21.3413 0.556682 19.2435C-0.017382 17.1457 -0.149271 14.9507 0.169453 12.7987C0.460591 10.717 1.18521 8.72021 2.29606 6.93866C3.40691 5.15712 4.87906 3.63078 6.61651 2.45916L6.75184 2.36843C7.06658 2.6248 7.41385 2.83799 7.78453 3.0024C7.8698 3.04269 7.95001 3.08298 8.04018 3.1182L8.06024 3.1282C8.32094 2.47353 8.84233 1.6829 9.11299 1.01808C9.12848 0.989073 9.14188 0.958989 9.1531 0.928059C15.8759 -0.779143 22.95 -0.83465 28.0687 6.97173C32.996 14.4966 30.0632 21.8691 25.8472 27.4039Z" fill="url(#paint0_linear_48_518)" style="mix-blend-mode:screen"/>
<path d="M2.37891 18.7529C3.60194 20.6172 5.32768 22.0935 7.3546 23.0094C9.38152 23.9253 11.626 24.243 13.8259 23.9255C16.0166 23.5596 18.1044 22.7286 19.95 21.4879C21.7956 20.2472 23.3566 18.6253 24.5289 16.7305C25.5144 15.3587 26.1901 13.7874 26.5089 12.1263C26.8277 10.4651 26.7818 8.75408 26.3745 7.11255C27.5021 8.96644 28.2381 11.0335 28.5368 13.1853C28.8355 15.337 28.6905 17.5275 28.1108 19.6206C27.6672 21.4565 26.8173 23.1682 25.6241 24.6285C24.3671 26.0364 22.8101 27.1413 21.0691 27.8609C19.2365 28.6945 17.2545 29.1459 15.2432 29.1878C13.2319 29.2296 11.2331 28.8609 9.36769 28.1042C7.50032 27.2813 5.87592 25.9882 4.65161 24.35C3.42729 22.7118 2.64449 20.7839 2.37891 18.7529Z" fill="url(#paint1_linear_48_518)" style="mix-blend-mode:screen"/>
<path style="mix-blend-mode:screen" d="M6.43132 4.24176C8.13013 2.72664 10.198 1.69047 12.4247 1.23859C14.503 0.867928 16.7489 0.785935 18.3049 2.47299C19.0508 3.29789 19.4838 4.36024 19.5281 5.47376C19.4916 6.48878 19.0711 7.4516 18.3523 8.16587C16.8633 10.1379 14.9123 11.7097 12.6728 12.7416C10.4386 13.7667 8.0667 14.4569 5.63296 14.79C4.84164 14.9917 4.00613 14.9247 3.25666 14.5995C2.85564 14.3177 2.53119 13.9395 2.31287 13.4995C2.09456 13.0595 1.98932 12.5716 2.00674 12.0803C2.00673 10.4461 2.52457 8.85441 3.48525 7.53571C4.31869 6.31225 5.30927 5.2047 6.43132 4.24176Z" fill="url(#paint2_linear_48_518)"/>
<path style="mix-blend-mode:screen" d="M23.8924 29.1817L23.6821 27.3133L14.9458 15.8419C15.0093 15.7902 15.0706 15.7358 15.1343 15.6844C14.7634 15.6442 14.3372 15.5989 13.9663 15.5586C10.4483 18.0291 7.54271 21.2789 5.47387 25.057H5.47892C5.39366 25.616 4.92247 26.155 4.8372 26.714C4.8372 26.7189 4.83216 26.724 4.8372 26.734C7.43227 23.004 10.4933 19.6241 13.9452 16.6773C16.6702 21.287 20.0178 25.4951 23.8924 29.1817Z" fill="url(#paint3_linear_48_518)"/>
<path d="M14.3673 15.5133C10.7726 17.9542 7.75832 21.162 5.53963 24.9078C4.86158 24.7506 4.15367 24.7822 3.49219 24.9993C6.10099 21.1907 9.44847 17.9506 13.3339 15.4731C13.6699 15.5717 14.0248 15.5855 14.3673 15.5133Z" fill="url(#paint4_linear_48_518)" style="mix-blend-mode:screen"/>
<path style="mix-blend-mode:screen" d="M14.3672 15.5132C14.0247 15.5831 13.6705 15.5692 13.3345 15.4729C9.91713 11.8592 7.5882 7.34723 6.61719 2.45914L6.75251 2.36841C7.06725 2.62478 7.41453 2.83797 7.78521 3.00237C9.15537 7.56012 11.3904 11.8085 14.3672 15.5132Z" fill="url(#paint5_linear_48_518)"/>
<path d="M15.1337 15.6442C14.8753 15.6933 14.6081 15.6635 14.3668 15.5585C11.4155 11.9018 9.2602 7.66398 8.04004 3.11867L8.06009 3.12868C8.32079 2.474 8.84219 1.68337 9.11284 1.01855C10.4348 6.15071 12.4612 11.0731 15.1337 15.6442Z" fill="url(#paint6_linear_48_518)" style="mix-blend-mode:screen"/>
<path d="M15.1334 15.6442C18.0038 20.1549 21.6285 24.1333 25.8474 27.4039L23.6816 27.3133C19.8909 23.9969 16.7344 20.0134 14.3672 15.5586L15.1334 15.6442Z" fill="url(#paint7_linear_48_518)" style="mix-blend-mode:screen"/>
<path style="mix-blend-mode:screen" d="M5.25433 5.34925C5.36286 5.2612 5.4977 5.21235 5.6372 5.21053C5.7767 5.20872 5.91275 5.25405 6.02352 5.33925C6.13934 5.46587 6.21143 5.62664 6.2291 5.79768C6.33213 6.39205 6.22692 7.00391 5.93138 7.52911C5.88268 7.63941 5.80943 7.737 5.71729 7.8144C5.62515 7.8918 5.51657 7.94694 5.39989 7.97557C5.0859 8.01304 4.82745 7.72001 4.71021 7.425C4.57321 7.06533 4.55202 6.67154 4.64964 6.29913C4.74726 5.92672 4.95876 5.59449 5.25433 5.34925ZM7.37834 14.9779C7.41777 15.3007 7.55561 15.6033 7.77296 15.8442C7.94012 15.994 8.14737 16.0912 8.36902 16.1238C8.59066 16.1563 8.81694 16.1228 9.0198 16.0274C9.22018 15.9271 9.39601 15.7836 9.53469 15.607C9.67336 15.4305 9.77146 15.2253 9.82194 15.0063C9.93068 14.5867 9.86962 14.141 9.65212 13.7665C9.5608 13.6151 9.44041 13.4834 9.29795 13.3791C9.15549 13.2749 8.99381 13.2001 8.82233 13.1593C8.65084 13.1184 8.47297 13.1122 8.29907 13.141C8.12518 13.1698 7.95873 13.2331 7.80942 13.3272C7.24455 13.6558 7.27386 14.3979 7.37834 14.9779ZM3.65354 20.1235C3.66854 20.1474 3.68439 20.171 3.70108 20.1939C3.84139 20.3894 4.03115 20.5437 4.25074 20.6408C4.47032 20.7379 4.71174 20.7743 4.95001 20.7462C5.18737 20.7111 5.40944 20.6074 5.58921 20.4478C5.76897 20.2882 5.89867 20.0795 5.96252 19.8472C6.00398 19.5458 5.9838 19.239 5.90322 18.9457C5.82263 18.6524 5.68334 18.3787 5.49385 18.1413C5.11199 17.7102 4.4073 18.0596 4.01689 18.3275C3.73237 18.5179 3.53444 18.8137 3.46635 19.1502C3.39826 19.4867 3.46556 19.8367 3.65354 20.1235ZM13.2677 21.5925C13.5105 21.6729 13.7728 21.6711 14.0146 21.5875C14.2563 21.5039 14.4641 21.343 14.6062 21.1295C14.7273 20.9269 14.7869 20.6933 14.7778 20.4571C14.7688 20.221 14.6914 19.9927 14.5552 19.8C14.4133 19.6115 14.2237 19.4648 14.006 19.3753C13.7883 19.2857 13.5507 19.2566 13.318 19.291C12.0426 19.4859 12.2086 21.2136 13.2677 21.5925ZM12.9231 7.37513C13.2097 7.51877 13.5353 7.56415 13.85 7.50434C14.1647 7.44453 14.4513 7.28281 14.6658 7.04392C14.8711 6.79684 15.0041 6.49735 15.05 6.17881C15.0959 5.86028 15.0529 5.5352 14.9257 5.23979C14.8092 4.93262 14.5767 4.68404 14.2788 4.54806C13.9807 4.45223 13.6598 4.45623 13.3642 4.55947C13.0855 4.62814 12.8273 4.76287 12.6111 4.95239C12.4712 5.13121 12.3681 5.33626 12.308 5.55555C12.2479 5.77484 12.2319 6.00398 12.2609 6.22955C12.29 6.45513 12.3635 6.67262 12.4772 6.86932C12.5909 7.06602 12.7425 7.23797 12.9231 7.37513ZM18.6808 18.1526C18.8886 18.3939 19.1757 18.5523 19.4899 18.5992C19.6662 18.6032 19.8413 18.5688 20.0031 18.4983C20.1648 18.4277 20.3094 18.3228 20.4269 18.1906C20.691 17.9196 20.8674 17.5746 20.9328 17.201C20.9982 16.8274 20.9496 16.4427 20.7934 16.0974C20.6371 15.752 20.3805 15.4623 20.0573 15.2662C19.7341 15.07 19.3594 14.9767 18.9824 14.9985C18.7268 15.0051 18.4792 15.0901 18.2731 15.2422C17.4668 15.8842 18.1196 17.5689 18.6808 18.1526ZM25.6935 25.4239C25.8935 25.3295 26.0651 25.1837 26.1907 25.0011C26.3163 24.8185 26.3916 24.6057 26.4087 24.3845C26.4154 24.2015 26.3844 24.0192 26.3178 23.8488C26.2512 23.6784 26.1503 23.5236 26.0214 23.3942C25.7601 23.1361 25.4225 22.9701 25.0593 22.921C24.8678 22.8839 24.6703 22.8949 24.4842 22.9532C24.298 23.0114 24.1292 23.1151 23.9926 23.2548C23.8561 23.3946 23.7561 23.5662 23.7016 23.7542C23.6471 23.9422 23.6398 24.1409 23.6803 24.3325C23.731 24.5432 23.8252 24.7408 23.9569 24.9126C24.0886 25.0843 24.2548 25.2263 24.4446 25.3293C24.6345 25.4322 24.8439 25.4939 25.059 25.5103C25.2742 25.5267 25.4904 25.4969 25.6935 25.4239ZM18.0367 28.9124C18.3556 29.199 18.7552 29.3792 19.1803 29.4283C19.455 29.4873 19.7411 29.462 20.0014 29.3557C20.2616 29.2494 20.4841 29.067 20.64 28.8322C20.7111 28.6754 20.7467 28.5048 20.7443 28.3325C20.7419 28.1602 20.7015 27.9906 20.626 27.8359C20.4719 27.5272 20.2458 27.2606 19.9669 27.0588C19.6761 26.8201 19.3335 26.6533 18.9667 26.5721C18.7834 26.5327 18.5942 26.5303 18.41 26.5652C18.2258 26.6 18.0504 26.6714 17.8939 26.7751C17.1804 27.2837 17.4857 28.3942 18.0367 28.9124Z" fill="url(#paint8_linear_48_518)"/>
<defs>
<linearGradient id="paint0_linear_48_518" x1="6.66505" y1="0.733417" x2="24.2866" y2="28.0291" gradientUnits="userSpaceOnUse">
<stop stop-color="#00E0FF"/>
<stop offset="0.359375" stop-color="#00E0FF" stop-opacity="0.6"/>
<stop offset="0.682292" stop-color="#00E0FF" stop-opacity="0.2"/>
<stop offset="1" stop-color="#1C2602"/>
</linearGradient>
<linearGradient id="paint1_linear_48_518" x1="8.10129" y1="7.61223" x2="18.793" y2="28.4824" gradientUnits="userSpaceOnUse">
<stop stop-color="#00E0FF"/>
<stop offset="0.359375" stop-color="#00E0FF" stop-opacity="0.6"/>
<stop offset="0.682292" stop-color="#00E0FF" stop-opacity="0.2"/>
<stop offset="1" stop-color="#1C2602"/>
</linearGradient>
<linearGradient id="paint2_linear_48_518" x1="5.81629" y1="1.33306" x2="12.3118" y2="14.7612" gradientUnits="userSpaceOnUse">
<stop stop-color="#00E0FF"/>
<stop offset="0.359375" stop-color="#00E0FF" stop-opacity="0.6"/>
<stop offset="0.682292" stop-color="#00E0FF" stop-opacity="0.2"/>
<stop offset="1" stop-color="#1C2602"/>
</linearGradient>
<linearGradient id="paint3_linear_48_518" x1="8.98008" y1="15.8669" x2="14.9396" y2="29.5236" gradientUnits="userSpaceOnUse">
<stop stop-color="#00E0FF"/>
<stop offset="0.359375" stop-color="#00E0FF" stop-opacity="0.6"/>
<stop offset="0.682292" stop-color="#00E0FF" stop-opacity="0.2"/>
<stop offset="1" stop-color="#1C2602"/>
</linearGradient>
<linearGradient id="paint4_linear_48_518" x1="5.8576" y1="15.6887" x2="10.5848" y2="24.529" gradientUnits="userSpaceOnUse">
<stop stop-color="#00E0FF"/>
<stop offset="0.359375" stop-color="#00E0FF" stop-opacity="0.6"/>
<stop offset="0.682292" stop-color="#00E0FF" stop-opacity="0.2"/>
<stop offset="1" stop-color="#1C2602"/>
</linearGradient>
<linearGradient id="paint5_linear_48_518" x1="8.30286" y1="2.6669" x2="16.1665" y2="10.2364" gradientUnits="userSpaceOnUse">
<stop stop-color="#00E0FF"/>
<stop offset="0.359375" stop-color="#00E0FF" stop-opacity="0.6"/>
<stop offset="0.682292" stop-color="#00E0FF" stop-opacity="0.2"/>
<stop offset="1" stop-color="#1C2602"/>
</linearGradient>
<linearGradient id="paint6_linear_48_518" x1="9.58296" y1="1.35009" x2="18.0942" y2="8.10175" gradientUnits="userSpaceOnUse">
<stop stop-color="#00E0FF"/>
<stop offset="0.359375" stop-color="#00E0FF" stop-opacity="0.6"/>
<stop offset="0.682292" stop-color="#00E0FF" stop-opacity="0.2"/>
<stop offset="1" stop-color="#1C2602"/>
</linearGradient>
<linearGradient id="paint7_linear_48_518" x1="16.8642" y1="15.8267" x2="23.2389" y2="25.9472" gradientUnits="userSpaceOnUse">
<stop stop-color="#00E0FF"/>
<stop offset="0.359375" stop-color="#00E0FF" stop-opacity="0.6"/>
<stop offset="0.682292" stop-color="#00E0FF" stop-opacity="0.2"/>
<stop offset="1" stop-color="#1C2602"/>
</linearGradient>
<linearGradient id="paint8_linear_48_518" x1="8.43638" y1="5.04437" x2="22.1731" y2="25.735" gradientUnits="userSpaceOnUse">
<stop stop-color="#00E0FF"/>
<stop offset="0.359375" stop-color="#00E0FF" stop-opacity="0.6"/>
<stop offset="0.682292" stop-color="#00E0FF" stop-opacity="0.2"/>
<stop offset="1" stop-color="#1C2602"/>
</linearGradient>
</defs>
</svg>
