<svg width="376" height="72" viewBox="0 0 376 72" fill="none" xmlns="http://www.w3.org/2000/svg">
<path d="M185.045 71L75.7264 71L8.88901 7.62939e-06L367.111 7.62939e-06L303.228 71L185.045 71Z" fill="#00E0FF"/>
<line y1="-1" x2="95.557" y2="-1" transform="matrix(-0.669278 0.743012 -0.896779 -0.442479 374 0)" stroke="#00E0FF" stroke-width="2"/>
<line y1="-1" x2="98.4615" y2="-1" transform="matrix(-0.692837 -0.721094 0.884923 -0.465738 70.2178 71)" stroke="#00E0FF" stroke-width="2"/>
<path d="M90.7234 38.9234C90.4662 38.7466 90.2813 38.5697 90.1688 38.3929C90.0563 38.2161 90 37.9749 90 37.6695V28.6028C90 28.3617 90.0402 28.2009 90.1206 28.1206C90.2009 28.0402 90.3617 28 90.6028 28H104.709C105.224 28 105.634 28.1206 105.939 28.3617C106.261 28.6028 106.574 28.9083 106.879 29.278C107.201 29.6478 107.482 30.0496 107.723 30.4837C107.981 30.9177 108.182 31.3759 108.326 31.8582C108.487 32.3404 108.567 32.8227 108.567 33.305V35.1135C108.567 35.3546 108.527 35.5154 108.447 35.5957C108.366 35.6761 108.206 35.7163 107.965 35.7163H104.589C104.348 35.7163 104.187 35.6761 104.106 35.5957C104.026 35.5154 103.986 35.3546 103.986 35.1135V34.7518C103.986 34.366 103.905 34.0364 103.745 33.7631L103.238 32.9433C102.933 32.461 102.499 32.2199 101.936 32.2199H95.1844C94.9433 32.2199 94.7825 32.26 94.7021 32.3404C94.6217 32.4208 94.5816 32.5816 94.5816 32.8227V35.4752C94.5816 35.7163 94.5976 35.9012 94.6298 36.0298C94.678 36.1584 94.7905 36.287 94.9674 36.4156L106.445 44.156C106.638 44.2846 106.711 44.4374 106.662 44.6142C106.614 44.791 106.502 44.8794 106.325 44.8794H100.248C99.766 44.8794 99.348 44.7589 98.9943 44.5177L90.7234 38.9234Z" fill="black"/>
<path d="M112.418 41.2624C112.418 41.0213 112.458 40.8605 112.539 40.7801C112.619 40.6998 112.78 40.6596 113.021 40.6596H124.354C124.917 40.6596 125.351 40.4184 125.656 39.9362L126.163 39.1163C126.323 38.843 126.404 38.5135 126.404 38.1277V33.8355C126.404 33.6104 126.331 33.4979 126.187 33.4979C126.074 33.4979 125.93 33.5541 125.753 33.6667L119.507 37.8865C119.154 38.1277 118.736 38.2482 118.253 38.2482H113.021C112.78 38.2482 112.619 38.208 112.539 38.1277C112.458 38.0473 112.418 37.8865 112.418 37.6454V28.6028C112.418 28.3617 112.458 28.2009 112.539 28.1206C112.619 28.0402 112.78 28 113.021 28H116.397C116.638 28 116.799 28.0402 116.879 28.1206C116.959 28.2009 117 28.3617 117 28.6028V33.739C117 33.9801 117.072 34.1007 117.217 34.1007C117.297 34.1007 117.442 34.0364 117.651 33.9078L125.873 28.3617C126.018 28.2652 126.179 28.1849 126.356 28.1206C126.548 28.0402 126.766 28 127.007 28H130.383C130.624 28 130.784 28.0402 130.865 28.1206C130.945 28.2009 130.985 28.3617 130.985 28.6028V39.5745C130.985 40.0567 130.905 40.539 130.744 41.0213C130.6 41.5035 130.399 41.9617 130.141 42.3957C129.9 42.8298 129.619 43.2317 129.297 43.6014C128.992 43.9712 128.679 44.2766 128.357 44.5177C128.052 44.7589 127.642 44.8794 127.127 44.8794H113.021C112.78 44.8794 112.619 44.8392 112.539 44.7589C112.458 44.6785 112.418 44.5177 112.418 44.2766V41.2624Z" fill="black"/>
<path d="M135.439 32.2199C135.198 32.2199 135.037 32.1797 134.957 32.0993C134.876 32.0189 134.836 31.8582 134.836 31.617V28.6028C134.836 28.3617 134.876 28.2009 134.957 28.1206C135.037 28.0402 135.198 28 135.439 28H146.362C146.603 28 146.82 28.0241 147.013 28.0723C147.206 28.1206 147.407 28.217 147.616 28.3617L152.68 31.7617C152.953 31.9385 153.138 32.1154 153.235 32.2922C153.347 32.469 153.403 32.7102 153.403 33.0156V36.4638C153.403 36.6407 153.355 36.7773 153.259 36.8738C153.162 36.9541 153.042 36.9943 152.897 36.9943C152.752 36.9943 152.608 36.9461 152.463 36.8496L146.652 32.9433C146.427 32.7825 146.153 32.6217 145.832 32.461C145.51 32.3002 145.197 32.2199 144.891 32.2199H135.439ZM135.439 44.8794C135.198 44.8794 135.037 44.8392 134.957 44.7589C134.876 44.6785 134.836 44.5177 134.836 44.2766V41.2624C134.836 41.0213 134.876 40.8605 134.957 40.7801C135.037 40.6998 135.198 40.6596 135.439 40.6596H145.663C145.904 40.6596 146.057 40.5953 146.121 40.4667C146.185 40.3381 146.081 40.1853 145.808 40.0085L144.096 38.8511C143.822 38.6742 143.565 38.5135 143.324 38.3688C143.083 38.208 142.81 38.1277 142.504 38.1277H135.463C135.206 38.1277 135.037 38.0875 134.957 38.0071C134.876 37.9267 134.836 37.766 134.836 37.5248V34.5106C134.836 34.2695 134.876 34.1087 134.957 34.0284C135.037 33.948 135.198 33.9078 135.439 33.9078H143.806C144.047 33.9078 144.264 33.94 144.457 34.0043C144.65 34.0525 144.851 34.1409 145.06 34.2695L152.68 39.4057C152.921 39.5664 153.098 39.7433 153.21 39.9362C153.339 40.113 153.403 40.3541 153.403 40.6596V44.2766C153.403 44.5177 153.363 44.6785 153.283 44.7589C153.202 44.8392 153.042 44.8794 152.801 44.8794H135.439Z" fill="black"/>
<path d="M157.857 44.8794C157.616 44.8794 157.455 44.8392 157.375 44.7589C157.294 44.6785 157.254 44.5177 157.254 44.2766V40.6596C157.254 40.1773 157.326 39.695 157.471 39.2128C157.632 38.7305 157.833 38.2723 158.074 37.8383C158.331 37.4043 158.612 37.0024 158.918 36.6326C159.239 36.2629 159.561 35.9574 159.882 35.7163C160.204 35.4752 160.614 35.3546 161.112 35.3546H171.312C171.618 35.3546 171.819 35.435 171.915 35.5957C172.011 35.7565 172.019 35.9574 171.939 36.1986C171.762 36.6969 171.505 37.2113 171.167 37.7418C170.846 38.2563 170.412 38.7466 169.865 39.2128C169.576 39.4539 169.174 39.5745 168.66 39.5745H163.114C162.84 39.5745 162.631 39.5905 162.487 39.6227C162.342 39.6548 162.229 39.7674 162.149 39.9603L162.077 40.1532C162.012 40.33 162.012 40.4586 162.077 40.539C162.157 40.6194 162.318 40.6596 162.559 40.6596H175.219C175.46 40.6596 175.62 40.6998 175.701 40.7801C175.781 40.8605 175.821 41.0213 175.821 41.2624V44.2766C175.821 44.5177 175.781 44.6785 175.701 44.7589C175.62 44.8392 175.46 44.8794 175.219 44.8794H157.857ZM157.857 32.2199C157.616 32.2199 157.455 32.1797 157.375 32.0993C157.294 32.0189 157.254 31.8582 157.254 31.617V28.6028C157.254 28.3617 157.294 28.2009 157.375 28.1206C157.455 28.0402 157.616 28 157.857 28H168.78C169.021 28 169.238 28.0241 169.431 28.0723C169.624 28.1206 169.825 28.217 170.034 28.3617L175.098 31.7617C175.371 31.9385 175.556 32.1154 175.653 32.2922C175.765 32.469 175.821 32.7102 175.821 33.0156V36.6085C175.821 36.7853 175.773 36.922 175.677 37.0184C175.58 37.0988 175.46 37.139 175.315 37.139C175.17 37.139 175.026 37.0908 174.881 36.9943L168.853 32.9433C168.628 32.7825 168.378 32.6217 168.105 32.461C167.848 32.3002 167.567 32.2199 167.261 32.2199H157.857Z" fill="black"/>
<path d="M180.275 44.8794C180.034 44.8794 179.873 44.8392 179.793 44.7589C179.712 44.6785 179.672 44.5177 179.672 44.2766V28.6028C179.672 28.3617 179.712 28.2009 179.793 28.1206C179.873 28.0402 180.034 28 180.275 28H194.381C194.896 28 195.306 28.1206 195.611 28.3617C195.932 28.6189 196.246 28.9324 196.551 29.3021C196.873 29.6558 197.154 30.0496 197.395 30.4837C197.653 30.9177 197.854 31.3759 197.998 31.8582C198.159 32.3404 198.239 32.8227 198.239 33.305V38.2482C198.239 38.4894 198.199 38.6501 198.119 38.7305C198.038 38.8109 197.878 38.8511 197.637 38.8511H194.261C194.02 38.8511 193.859 38.8109 193.778 38.7305C193.698 38.6501 193.658 38.4894 193.658 38.2482V34.7518C193.658 34.366 193.577 34.0364 193.417 33.7631L192.91 32.9433C192.605 32.461 192.171 32.2199 191.608 32.2199H184.856C184.615 32.2199 184.454 32.26 184.374 32.3404C184.294 32.4208 184.254 32.5816 184.254 32.8227V33.9078C184.254 34.1489 184.278 34.3901 184.326 34.6312C184.374 34.8723 184.527 35.0813 184.784 35.2582L197.998 44.156C198.191 44.2846 198.263 44.4374 198.215 44.6142C198.167 44.791 198.054 44.8794 197.878 44.8794H192.018C191.552 44.8794 191.134 44.7589 190.764 44.5177L184.905 40.5631C184.696 40.4345 184.551 40.3702 184.471 40.3702C184.326 40.3702 184.254 40.4908 184.254 40.7319V44.2766C184.254 44.5177 184.213 44.6785 184.133 44.7589C184.053 44.8392 183.892 44.8794 183.651 44.8794H180.275Z" fill="black"/>
<path d="M202.693 44.8794C202.452 44.8794 202.291 44.8392 202.211 44.7589C202.13 44.6785 202.09 44.5177 202.09 44.2766V40.4184C202.09 39.9362 202.162 39.4539 202.307 38.9716C202.468 38.4894 202.669 38.0312 202.91 37.5972C203.167 37.1631 203.448 36.7612 203.754 36.3915C204.075 36.0217 204.397 35.7163 204.718 35.4752C205.04 35.234 205.45 35.1135 205.948 35.1135H215.642C215.947 35.1135 216.148 35.1939 216.245 35.3546C216.341 35.5154 216.349 35.7163 216.269 35.9574C216.092 36.4558 215.835 36.9702 215.497 37.5007C215.176 38.0151 214.742 38.5054 214.195 38.9716C213.906 39.2128 213.504 39.3333 212.989 39.3333H208.721C208.159 39.3333 207.724 39.5745 207.419 40.0567L206.913 40.8766C206.752 41.1499 206.672 41.4794 206.672 41.8652V44.2766C206.672 44.5177 206.631 44.6785 206.551 44.7589C206.471 44.8392 206.31 44.8794 206.069 44.8794H202.693ZM202.693 32.2199C202.452 32.2199 202.291 32.1797 202.211 32.0993C202.13 32.0189 202.09 31.8582 202.09 31.617V28.6028C202.09 28.3617 202.13 28.2009 202.211 28.1206C202.291 28.0402 202.452 28 202.693 28H213.616C213.857 28 214.074 28.0241 214.267 28.0723C214.46 28.1206 214.661 28.217 214.87 28.3617L219.934 31.7617C220.207 31.9385 220.392 32.1154 220.489 32.2922C220.601 32.469 220.657 32.7102 220.657 33.0156V36.6085C220.657 36.7853 220.609 36.922 220.513 37.0184C220.416 37.0988 220.296 37.139 220.151 37.139C220.006 37.139 219.862 37.0908 219.717 36.9943L213.689 32.9433C213.463 32.7825 213.214 32.6217 212.941 32.461C212.684 32.3002 212.403 32.2199 212.097 32.2199H202.693Z" fill="black"/>
<path d="M224.76 41.4312C224.487 41.2544 224.294 41.0775 224.182 40.9007C224.085 40.7239 224.037 40.4827 224.037 40.1773V28.6028C224.037 28.3617 224.077 28.2009 224.158 28.1206C224.238 28.0402 224.399 28 224.64 28H228.016C228.257 28 228.418 28.0402 228.498 28.1206C228.578 28.2009 228.619 28.3617 228.619 28.6028V37.983C228.619 38.2241 228.627 38.409 228.643 38.5376C228.675 38.6501 228.795 38.7787 229.004 38.9234L230.524 39.9362C230.749 40.0969 230.99 40.2577 231.247 40.4184C231.52 40.5792 231.81 40.6596 232.115 40.6596H242.002C242.243 40.6596 242.403 40.6998 242.484 40.7801C242.564 40.8605 242.604 41.0213 242.604 41.2624V44.2766C242.604 44.5177 242.564 44.6785 242.484 44.7589C242.403 44.8392 242.243 44.8794 242.002 44.8794H230.596C230.355 44.8794 230.138 44.8553 229.945 44.8071C229.768 44.7589 229.567 44.6624 229.342 44.5177L224.76 41.4312Z" fill="black"/>
<path d="M248.377 44.5177C248.055 44.2766 247.734 43.9712 247.412 43.6014C247.107 43.2317 246.826 42.8298 246.568 42.3957C246.327 41.9617 246.126 41.5035 245.966 41.0213C245.821 40.539 245.749 40.0567 245.749 39.5745V28.6028C245.749 28.3617 245.789 28.2009 245.869 28.1206C245.949 28.0402 246.11 28 246.351 28H249.727C249.968 28 250.129 28.0402 250.21 28.1206C250.29 28.2009 250.33 28.3617 250.33 28.6028V38.1277C250.33 38.5135 250.41 38.843 250.571 39.1163L251.078 39.9362C251.383 40.4184 251.817 40.6596 252.38 40.6596H252.621C252.926 40.6596 253.208 40.5792 253.465 40.4184C253.738 40.2577 253.987 40.0969 254.212 39.9362L259.204 36.5603C259.477 36.3835 259.63 36.1745 259.662 35.9333C259.71 35.6922 259.734 35.4511 259.734 35.2099V28.6028C259.734 28.3617 259.775 28.2009 259.855 28.1206C259.935 28.0402 260.096 28 260.337 28H263.713C263.954 28 264.115 28.0402 264.195 28.1206C264.276 28.2009 264.316 28.3617 264.316 28.6028V44.2766C264.316 44.5177 264.276 44.6785 264.195 44.7589C264.115 44.8392 263.954 44.8794 263.713 44.8794H260.337C260.096 44.8794 259.935 44.8392 259.855 44.7589C259.775 44.6785 259.734 44.5177 259.734 44.2766V41.9135C259.734 41.6723 259.67 41.5518 259.541 41.5518C259.429 41.5518 259.276 41.6161 259.083 41.7447L254.96 44.5177C254.606 44.7589 254.188 44.8794 253.706 44.8794H249.607C249.108 44.8794 248.698 44.7589 248.377 44.5177Z" fill="black"/>
<path d="M268.167 40.8525C268.167 40.547 268.223 40.3059 268.335 40.1291C268.464 39.9522 268.649 39.7754 268.89 39.5986L272.941 36.8738C273.311 36.6326 273.311 36.3915 272.941 36.1504L268.89 33.4255C268.617 33.2487 268.424 33.0719 268.311 32.895C268.215 32.7182 268.167 32.4771 268.167 32.1716V28.6028C268.167 28.3617 268.207 28.2009 268.287 28.1206C268.367 28.0402 268.528 28 268.769 28H272.145C272.386 28 272.547 28.0402 272.628 28.1206C272.708 28.2009 272.748 28.3617 272.748 28.6028V29.9773C272.748 30.2184 272.756 30.4033 272.772 30.5319C272.804 30.6444 272.925 30.773 273.134 30.9177L276.679 33.2809C277.032 33.522 277.289 33.6426 277.45 33.6426C277.611 33.6426 277.868 33.522 278.222 33.2809L281.767 30.9177C281.976 30.773 282.088 30.6444 282.104 30.5319C282.136 30.4033 282.152 30.2184 282.152 29.9773V28.6028C282.152 28.3617 282.193 28.2009 282.273 28.1206C282.353 28.0402 282.514 28 282.755 28H286.131C286.372 28 286.533 28.0402 286.613 28.1206C286.694 28.2009 286.734 28.3617 286.734 28.6028V32.1716C286.734 32.4771 286.678 32.7182 286.565 32.895C286.469 33.0719 286.284 33.2487 286.011 33.4255L281.959 36.1504C281.606 36.3915 281.606 36.6326 281.959 36.8738L286.011 39.5986C286.252 39.7754 286.428 39.9522 286.541 40.1291C286.67 40.3059 286.734 40.547 286.734 40.8525V44.4695C286.734 44.6624 286.686 44.7991 286.589 44.8794C286.509 44.9598 286.404 45 286.276 45C286.115 45 285.962 44.9518 285.818 44.8553L278.222 39.7433C277.868 39.5021 277.611 39.3816 277.45 39.3816C277.289 39.3816 277.032 39.5021 276.679 39.7433L269.083 44.8553C268.938 44.9518 268.785 45 268.625 45C268.496 45 268.384 44.9598 268.287 44.8794C268.207 44.7991 268.167 44.6624 268.167 44.4695V40.8525Z" fill="black"/>
</svg>
