<svg width="807" height="823" viewBox="0 0 807 823" fill="none" xmlns="http://www.w3.org/2000/svg">
<g filter="url(#filter0_d_38_417)">
<path fill-rule="evenodd" clip-rule="evenodd" d="M306.308 563.195C350.422 588.664 400.812 592.855 446.115 579.083C467.498 572.537 487.977 561.606 505.844 547.019C521.951 533.993 536.09 517.684 547.059 498.686C550.963 491.924 554.545 484.976 557.297 477.978C570.351 446.445 573.731 412.332 567.832 380.161C563.74 356.76 554.94 334.077 541.977 314.142C533.731 301.653 523.776 289.894 512.247 279.374C503.244 271.171 493.498 264.256 482.55 257.935C452.281 240.46 419.247 232.98 387.003 234.542C373.303 235.219 359.689 237.234 346.619 241.28C304.091 253.22 265.917 281.413 242.121 322.63C240.262 325.85 238.217 329.392 236.68 332.798C227.607 350.744 222.311 369.583 219.828 388.757C219.306 391.891 219.107 395.211 218.908 398.53C217.44 417.433 219.292 436.534 224.192 454.819C235.202 498.958 263.803 538.655 306.308 563.195Z" fill="url(#paint0_radial_38_417)"/>
<path fill-rule="evenodd" clip-rule="evenodd" d="M542.016 388.439C549.452 375.559 544.347 341.27 527.026 316.243C505.073 285.107 473.703 266.566 464.003 269.982C461.277 270.984 458.824 273.003 456.965 276.223C455.849 278.155 454.684 280.917 454.027 283.542C449.561 302.431 458.766 337.799 475.729 360.473C492.234 382.453 511.109 389.916 523.409 393.153C534.506 396.984 539.599 392.626 542.016 388.439Z" fill="url(#paint1_radial_38_417)"/>
<path fill-rule="evenodd" clip-rule="evenodd" d="M444.566 274.645C445.495 273.035 445.781 271.054 445.051 269.344C442.637 262.369 422.039 258.634 414.434 257.678C402.357 256.287 394.602 257.82 392.371 261.684C391.441 263.294 391.342 264.954 391.564 266.8L391.836 267.816C393.742 274.926 403.066 283.315 413.855 283.963C421.833 284.275 437.85 281.072 443.178 275.562C443.822 275.933 444.194 275.289 444.566 274.645Z" fill="url(#paint2_radial_38_417)"/>
<path fill-rule="evenodd" clip-rule="evenodd" d="M413.769 282.625C421.238 283.074 437.442 279.548 442.398 274.682C443.65 273.258 444.393 271.97 443.799 270.768C441.064 263.607 398.901 255.58 393.745 263.766C393.002 265.054 392.902 266.714 393.31 268.237C394.807 273.824 403.488 281.842 413.769 282.625Z" fill="url(#paint3_radial_38_417)"/>
<path fill-rule="evenodd" clip-rule="evenodd" d="M413.769 282.625C421.238 283.074 437.442 279.548 442.398 274.682C439.958 273.703 409.985 262.408 393.496 267.915C394.807 273.824 403.488 281.842 413.769 282.625Z" fill="url(#paint4_radial_38_417)"/>
<path opacity="0.3" fill-rule="evenodd" clip-rule="evenodd" d="M368.031 491.71C370.875 491.546 373.499 491.297 376.293 490.609C378.343 489.885 380.257 488.856 382.357 488.657C389.789 487.741 396.57 491.122 403.626 491.829C407.569 492.091 411.448 490.558 415.392 490.82C417.101 490.975 418.555 491.791 420.314 492.471C422.293 493.236 424.037 492.647 426.002 492.143C428.271 491.505 430.051 490.171 431.696 488.532C432.951 487.248 433.411 485.404 434.092 483.645C435.538 479.908 436.459 476.219 436.805 472.056C437.201 468.418 436.853 464.745 437.03 461.021C437.22 458.567 438.121 456.893 439.411 454.865C440.616 453.056 441.247 450.772 442.012 448.793C443.373 445.275 446.628 442.743 449.358 440.26C451.308 438.487 453.222 437.458 455.981 437.514C459.265 437.52 461.903 438.541 464.278 435.668C465.703 433.944 465.979 431.271 466.305 429.122C466.546 427.193 467.531 425.299 468.212 423.54C469.572 420.022 469.749 416.299 469.486 412.405C468.953 407.902 467.37 403.498 465.618 399.534C464.674 397.4 464.645 394.861 463.701 392.726C462.573 389.762 461.53 386.578 460.316 383.834C458.294 379.26 456.357 374.466 454.639 369.757C453.681 366.353 451.893 363.134 450.325 360C449.027 357.475 446.594 355.27 444.685 353.015C441.089 348.591 436.662 344.351 431.896 340.99C426.555 337.155 420.859 332.929 414.617 330.767C409.34 328.726 404.758 326.195 399.481 324.154C409.546 327.542 417.511 331.128 424.781 335.205C418.341 330.944 411.56 327.563 404.084 324.671C383.416 316.676 361.991 315.213 341.943 319.338C333.426 321.098 325.093 323.689 317.3 327.499C291.821 339.129 270.656 360.516 259.77 388.66C258.919 390.858 257.983 393.277 257.353 395.561C253.419 407.689 251.94 420.008 252.255 432.263C254.093 436.007 256.37 439.921 258.903 443.176C259.882 444.566 261.251 445.601 262.23 446.991C263.294 448.161 263.393 449.21 265.017 449.586C265.982 449.706 267.251 449.692 268.301 449.592C271.585 449.598 274.839 447.066 277.314 445.243C280.874 442.575 283.284 438.958 286.709 435.985C288.964 434.077 290.318 433.843 292.977 432.849C294.417 432.395 295.502 431.551 296.856 431.317C300.7 430.529 305.523 431.13 308.956 432.711C315.906 435.653 318.837 443.106 324.923 446.976C330.214 450.287 336.711 451.789 341.442 455.894C347.053 460.34 349.984 467.793 351.68 474.516C352.369 477.31 352.923 479.799 353.916 482.458C354.995 484.898 354.939 487.656 356.627 489.826C359.72 492.286 364.223 491.753 368.031 491.71Z" fill="url(#paint5_radial_38_417)"/>
<path fill-rule="evenodd" clip-rule="evenodd" d="M218.586 398.345C218.958 397.701 219.144 397.379 219.838 396.921C221.089 395.496 221.697 393.7 222.304 391.905C222.726 390.431 222.454 389.415 223.383 387.805C224.177 385.687 224.462 383.705 225.256 381.587C226.049 379.469 226.335 377.487 226.806 375.183C227.092 373.202 227.786 372.744 228.851 371.641C229.917 370.539 229.831 369.201 230.252 367.728C230.352 366.068 231.282 364.458 231.703 362.984C233.29 358.748 234.233 354.14 235.498 349.718C236.155 347.093 237.457 344.839 238.944 342.263C240.059 340.331 241.633 339.092 242.748 337.16C243.492 335.872 243.728 334.72 244.471 333.432C244.893 331.958 245.959 330.856 246.702 329.568C247.496 327.45 247.731 326.298 249.491 324.738C250.742 323.314 251.3 322.348 252.552 320.924C253.481 319.314 255.241 317.754 256.492 316.33C258.809 313.803 261.313 310.955 262.986 308.057C264.101 306.125 264.944 303.177 266.518 301.939C267.398 301.159 269.058 301.259 270.259 300.664C272.799 299.984 275.016 299.118 277.37 298.759C279.724 298.401 282.399 298.228 284.653 299.529C286.585 300.645 288.282 302.912 289.334 304.808C290.708 306.889 292.132 308.141 294.536 306.952C297.447 305.628 300.408 303.474 302.862 301.455C304.621 299.895 305.873 298.471 305.328 296.439C305.378 295.609 304.598 294.73 304.326 293.714C304.376 292.884 305.255 292.104 305.949 291.646C307.709 290.086 309.468 288.525 310.906 286.779C311.971 285.677 313.173 285.083 313.917 283.795C314.982 282.693 314.574 281.169 315.826 279.745C317.263 277.999 319.53 276.303 320.646 274.37C321.575 272.76 322.047 270.457 322.146 268.797C322.196 267.967 321.738 267.273 322.618 266.493C322.99 265.849 324.513 265.441 325.343 265.49C326.359 265.218 327.325 265.776 328.341 265.504C329.679 265.418 330.509 265.467 331.847 265.381C334.014 265.345 336.182 265.308 338.35 265.272C339.688 265.185 341.67 265.471 343.193 265.063C344.023 265.112 344.903 264.332 345.597 263.874C347.492 262.822 349.71 261.956 351.605 260.903C355.533 259.307 359.782 257.896 363.709 256.299C366.62 254.975 369.446 252.312 372.221 250.48C373.794 249.242 375.368 248.004 376.942 246.765C377.635 246.307 378.193 245.341 379.023 245.391C380.039 245.119 380.869 245.169 382.021 245.404C384.374 245.046 387.236 244.551 389.726 244.701C391.385 244.8 392.537 245.036 394.197 245.136C396.179 245.421 398.347 245.385 400.465 246.178C404.75 246.935 408.614 249.166 413.086 249.601C415.39 250.073 418.066 249.9 420.555 250.05C424.705 250.299 428.755 252.208 432.483 253.931C434.601 254.724 436.991 256.533 438.737 257.971C440.805 259.594 443.059 260.895 445.313 262.197C447.567 263.498 451.073 263.375 453.426 263.017C455.78 262.658 457.725 260.776 460.265 260.096C462.297 259.551 464.514 258.685 466.818 259.156C467.648 259.206 468.428 260.086 469.394 260.644C471.512 261.437 473.494 261.723 475.426 262.838C477.866 263.818 480.12 265.119 482.696 266.606C483.984 267.35 484.95 267.908 486.238 268.651C487.526 269.395 488.306 270.275 489.086 271.154C489.73 271.526 490.696 272.084 491.34 272.456C492.306 273.013 492.9 274.215 493.544 274.587C495.427 276.532 497.173 277.97 499.241 279.593C500.987 281.031 502.361 283.112 504.107 284.549C506.126 287.003 508.516 288.812 511.042 291.129C512.788 292.567 515.042 293.868 516.788 295.306C518.212 296.557 519.636 297.809 521.247 298.738C523.823 300.225 526.448 300.883 529.024 302.37C533.21 304.787 536.467 308.814 540.095 312.197C541.197 313.262 541.978 314.142 543.08 315.208C528.606 292.683 508.446 273.316 483.652 259.001C453.384 241.525 420.35 234.045 388.106 235.608C374.406 236.285 360.792 238.3 347.722 242.346C305.193 254.286 267.02 282.479 243.223 323.696C241.364 326.916 239.319 330.458 237.782 333.864C226.256 353.828 220.253 376.123 218.586 398.345Z" fill="url(#paint6_radial_38_417)"/>
<path opacity="0.3" fill-rule="evenodd" clip-rule="evenodd" d="M479.626 531.453C476.02 533.235 472.737 535.204 468.946 537.308C465.155 539.413 462.33 542.075 458.675 544.688C456.221 546.706 456.036 547.028 456.53 549.89C457.025 552.751 456.045 555.191 454.744 557.445C452.885 560.665 451.162 564.393 455.162 567.132C460.772 570.8 470.436 565.217 475.107 562.332C478.898 560.228 482.231 557.429 485.886 554.817C488.847 552.662 492.316 550.372 494.497 547.338C496.492 544.626 496.134 542.272 495.317 539.224C494.043 535.483 491.603 534.504 488.705 532.831C484.841 530.6 482.265 529.112 479.626 531.453Z" fill="url(#paint7_radial_38_417)"/>
<path opacity="0.3" fill-rule="evenodd" clip-rule="evenodd" d="M239.924 453.598C243.131 458.454 248.319 463.597 250.138 469.37C250.955 472.417 250.533 473.891 249.046 476.467C248.302 477.755 247.323 480.195 246.257 481.297C244.684 482.535 242.752 481.42 241.142 480.49C235.209 476.636 231.966 469.612 230.011 463.331C228.6 459.082 227.611 453.358 230.672 449.544C234.314 449.929 237.398 451.281 239.924 453.598Z" fill="url(#paint8_radial_38_417)"/>
<path fill-rule="evenodd" clip-rule="evenodd" d="M330.3 260.624C331.873 259.386 332.245 258.742 334.462 257.875C336.172 257.145 337.882 256.415 339.913 255.87C342.453 255.19 344.435 255.475 346.231 256.083C348.213 256.368 350.331 257.162 350.925 258.364C351.061 258.871 350.503 259.837 349.945 260.803C348.88 261.906 347.17 262.636 345.782 263.552C343.887 264.604 341.533 264.963 339.18 265.321C337.334 265.544 335.86 265.122 334.2 265.022C333.048 264.787 332.218 264.737 331.388 264.687C330.558 264.637 329.914 264.265 329.778 263.758C328.998 262.878 329.184 262.556 330.3 260.624Z" fill="url(#paint9_radial_38_417)"/>
<path fill-rule="evenodd" clip-rule="evenodd" d="M316.99 276.983C318.006 276.711 319.716 275.98 319.802 277.318C319.938 277.826 319.43 277.962 319.566 278.47C319.38 278.792 319.702 278.978 319.195 279.114C318.637 280.08 315.925 278.085 316.99 276.983Z" fill="url(#paint10_radial_38_417)"/>
<path fill-rule="evenodd" clip-rule="evenodd" d="M323.862 287.39C323.354 287.526 322.982 288.17 322.796 288.492C323.44 288.864 324.035 290.066 325.236 289.472C325.93 289.014 324.456 288.592 324.642 288.27L323.862 287.39Z" fill="url(#paint11_radial_38_417)"/>
<path fill-rule="evenodd" clip-rule="evenodd" d="M318.471 296.728C318.235 297.88 318.185 298.71 317.95 299.862C317.442 299.998 317.256 300.32 317.07 300.642C316.562 300.778 315.732 300.729 315.224 300.865C314.394 300.815 313.936 300.121 313.478 299.427C313.342 298.919 312.698 298.547 312.562 298.04C312.426 297.532 312.983 296.566 313.491 296.429C314.185 295.971 314.693 295.835 315.523 295.885C316.031 295.749 317.183 295.985 317.505 296.171C318.149 296.542 318.607 297.236 318.557 298.066L318.471 296.728Z" fill="url(#paint12_radial_38_417)"/>
<path fill-rule="evenodd" clip-rule="evenodd" d="M490.467 406.335C490.231 407.486 490.181 408.316 489.946 409.468C489.438 409.604 489.252 409.926 489.066 410.248C488.558 410.384 487.728 410.335 487.22 410.471C486.39 410.421 485.932 409.727 485.474 409.033C485.338 408.525 484.694 408.154 484.558 407.646C484.422 407.138 484.979 406.172 485.487 406.036C486.181 405.578 486.689 405.441 487.519 405.491C488.027 405.355 489.179 405.591 489.501 405.777C490.145 406.149 490.603 406.842 490.553 407.672L490.467 406.335Z" fill="url(#paint13_radial_38_417)"/>
<path fill-rule="evenodd" clip-rule="evenodd" d="M341.157 276.768C341.665 276.631 342.173 276.495 342.681 276.359C342.817 276.867 343.275 277.561 342.903 278.205C342.718 278.527 342.532 278.849 342.532 278.849C342.024 278.985 341.888 278.477 341.702 278.799C340.872 278.749 340.872 278.749 340.414 278.056C340.278 277.548 340.278 277.548 340.464 277.226C340.649 276.904 340.835 276.582 341.343 276.446L341.157 276.768Z" fill="url(#paint14_radial_38_417)"/>
<path fill-rule="evenodd" clip-rule="evenodd" d="M353.888 286.694C353.888 286.694 356.192 287.165 355.176 287.437C354.483 287.895 353.839 287.524 353.888 286.694C353.703 287.016 353.703 287.016 353.888 286.694Z" fill="url(#paint15_radial_38_417)"/>
<path fill-rule="evenodd" clip-rule="evenodd" d="M384.323 287.521C385.339 287.249 385.661 287.435 386.813 287.67C386.949 288.178 386.763 288.5 386.577 288.822C386.205 289.466 385.883 289.28 385.561 289.095C385.239 288.909 384.731 289.045 384.595 288.537C383.951 288.165 383.815 287.657 384.323 287.521Z" fill="url(#paint16_radial_38_417)"/>
<path fill-rule="evenodd" clip-rule="evenodd" d="M337.748 286.391C337.885 286.899 338.021 287.407 338.343 287.593C338.529 287.271 338.393 286.763 338.071 286.577C337.427 286.205 337.749 286.391 336.919 286.342L337.748 286.391Z" fill="url(#paint17_radial_38_417)"/>
<path fill-rule="evenodd" clip-rule="evenodd" d="M322.319 271.472C322.827 271.336 323.334 271.2 323.842 271.064C323.978 271.572 324.486 271.436 324.115 272.08C323.929 272.402 323.421 272.538 322.913 272.674C322.405 272.81 322.083 272.624 321.761 272.438C321.439 272.252 320.795 271.881 321.625 271.93L322.319 271.472Z" fill="url(#paint18_radial_38_417)"/>
<path fill-rule="evenodd" clip-rule="evenodd" d="M279.145 324.686C278.823 324.5 277.993 324.45 277.671 324.264L277.163 324.4C276.655 324.536 276.655 324.536 276.469 324.858C276.283 325.18 276.097 325.502 276.048 326.332C276.27 328.178 279.095 325.516 278.315 324.636L279.145 324.686Z" fill="url(#paint19_radial_38_417)"/>
<path fill-rule="evenodd" clip-rule="evenodd" d="M277.01 338.051C277.84 338.1 278.992 338.336 279.264 339.352C279.214 340.182 277.827 341.098 277.319 341.234C276.117 341.828 273.949 341.865 273.541 340.341C273.083 339.647 273.691 337.851 274.062 337.207C274.992 335.597 277.11 336.391 278.906 336.998L277.01 338.051Z" fill="url(#paint20_radial_38_417)"/>
<path fill-rule="evenodd" clip-rule="evenodd" d="M259.088 334.143C257.985 333.077 256.697 332.334 255.496 332.928C254.802 333.386 253.922 334.166 254.194 335.182C254.33 335.69 254.789 336.384 254.925 336.892C255.383 337.585 255.383 337.585 256.213 337.635C257.687 338.057 258.839 338.293 259.768 336.683C260.884 334.751 259.596 334.007 257.663 332.891L259.273 333.821L259.088 334.143Z" fill="url(#paint21_radial_38_417)"/>
<path fill-rule="evenodd" clip-rule="evenodd" d="M272.146 363.579C271.266 364.359 270.387 365.139 269.049 365.225C269.099 364.395 269.062 362.228 270.536 362.649L272.146 363.579Z" fill="url(#paint22_radial_38_417)"/>
<path fill-rule="evenodd" clip-rule="evenodd" d="M507.729 424.029C506.849 424.809 505.969 425.589 504.631 425.675C504.681 424.845 504.645 422.678 506.119 423.099L507.729 424.029Z" fill="url(#paint23_radial_38_417)"/>
<path fill-rule="evenodd" clip-rule="evenodd" d="M469.205 541.322C468.325 542.102 467.445 542.882 466.108 542.968C466.157 542.139 466.121 539.971 467.595 540.392L469.205 541.322Z" fill="url(#paint24_radial_38_417)"/>
<path fill-rule="evenodd" clip-rule="evenodd" d="M284.538 387.477C282.692 387.7 280.017 387.872 279.867 390.362C279.953 391.7 281.7 393.137 282.901 392.543C284.103 391.949 284.797 391.491 285.862 390.389C286.556 389.931 286.656 388.271 285.182 387.849L284.538 387.477Z" fill="url(#paint25_radial_38_417)"/>
<path fill-rule="evenodd" clip-rule="evenodd" d="M351.779 335.709C349.933 335.931 347.258 336.104 347.108 338.593C347.195 339.931 348.941 341.369 350.143 340.774C351.344 340.18 352.038 339.722 353.104 338.62C353.798 338.162 353.897 336.502 352.423 336.08L351.779 335.709Z" fill="url(#paint26_radial_38_417)"/>
<path fill-rule="evenodd" clip-rule="evenodd" d="M236.801 419.594C234.955 419.817 232.279 419.989 232.13 422.479C232.216 423.817 233.962 425.254 235.164 424.66C236.366 424.066 237.06 423.608 238.125 422.506C238.819 422.048 238.919 420.388 237.445 419.966L236.801 419.594Z" fill="url(#paint27_radial_38_417)"/>
<path fill-rule="evenodd" clip-rule="evenodd" d="M377.246 416.53C375.4 416.752 372.725 416.925 372.575 419.415C372.661 420.753 374.408 422.19 375.609 421.596C376.811 421.002 377.505 420.544 378.571 419.441C379.264 418.983 379.364 417.323 377.89 416.902L377.246 416.53Z" fill="url(#paint28_radial_38_417)"/>
<path fill-rule="evenodd" clip-rule="evenodd" d="M312.757 305.88C314.145 304.964 316.226 303.59 318.344 304.383C319.31 304.941 319.768 305.635 319.532 306.787C319.483 307.617 318.739 308.905 317.859 309.685C316.472 310.601 314.762 311.331 313.61 311.096C312.458 310.86 311.814 310.488 311.356 309.794C311.22 309.286 310.762 308.593 310.812 307.763C311.097 305.781 313.265 305.744 314.653 304.828L312.757 305.88Z" fill="url(#paint29_radial_38_417)"/>
<path fill-rule="evenodd" clip-rule="evenodd" d="M306.018 307.142C305.968 307.972 305.919 308.802 306.377 309.495C307.07 309.037 307.764 308.579 308.136 307.935C308.372 306.783 307.406 306.226 306.762 305.854C306.44 305.668 304.916 306.076 305.052 306.584C304.866 306.906 305.188 307.092 305.51 307.278C305.646 307.786 305.646 307.786 306.476 307.836L306.662 307.514L306.018 307.142Z" fill="url(#paint30_radial_38_417)"/>
<path fill-rule="evenodd" clip-rule="evenodd" d="M373.582 255.559C375.613 255.015 377.645 254.47 379.627 254.756C380.779 254.992 380.407 255.636 379.713 256.094C378.462 257.518 377.396 258.62 376.144 260.044C375.265 260.824 374.199 261.926 373.369 261.876C372.539 261.827 371.387 261.591 370.743 261.219C369.777 260.661 370.013 259.509 370.063 258.679C370.534 256.376 373.495 254.221 375.799 254.693L373.582 255.559Z" fill="url(#paint31_radial_38_417)"/>
<path fill-rule="evenodd" clip-rule="evenodd" d="M379.786 260.429C379.228 261.395 378.992 262.547 378.757 263.699C379.265 263.563 379.587 263.749 379.909 263.935C380.738 263.985 381.246 263.848 381.94 263.39C383.142 262.796 383.886 261.508 384.121 260.356C384.828 256.9 379.006 259.549 379.6 260.751L379.786 260.429Z" fill="url(#paint32_radial_38_417)"/>
<path fill-rule="evenodd" clip-rule="evenodd" d="M268.224 312.37C267.022 312.964 266.142 313.744 265.263 314.524C264.197 315.626 263.453 316.914 262.71 318.202C262.338 318.846 261.408 320.456 262.746 320.37C264.22 320.791 266.673 318.773 267.553 317.993C269.127 316.755 271.022 315.703 272.46 313.956C273.017 312.99 274.269 311.566 273.675 310.365C272.895 309.485 272.251 309.113 271.235 309.385C270.405 309.335 269.711 309.794 268.831 310.574C268.645 310.896 266.7 312.778 267.344 313.15L268.224 312.37Z" fill="url(#paint33_radial_38_417)"/>
<path fill-rule="evenodd" clip-rule="evenodd" d="M278.399 295.489C278.907 295.353 282.884 292.926 282.92 295.094C282.685 296.246 281.755 297.856 280.875 298.636C280.182 299.094 278.98 299.689 278.386 298.487C277.011 296.405 279.787 294.573 281.174 293.657L278.399 295.489Z" fill="url(#paint34_radial_38_417)"/>
<path fill-rule="evenodd" clip-rule="evenodd" d="M432.325 320.387C433.427 321.453 434.851 322.704 435.073 324.55C435.296 326.396 434.044 327.82 432.521 328.228C431.319 328.822 430.117 329.416 429.423 329.875C428.729 330.333 428.544 330.655 427.577 330.097C426.611 329.539 426.017 328.337 425.745 327.322C425.473 326.306 425.065 324.782 425.3 323.63C425.772 321.326 428.461 318.156 431.037 319.643L432.325 320.387Z" fill="url(#paint35_radial_38_417)"/>
<path fill-rule="evenodd" clip-rule="evenodd" d="M370.726 430.798C371.828 431.863 373.252 433.115 373.474 434.961C373.697 436.807 372.445 438.231 370.921 438.639C369.72 439.233 368.518 439.827 367.824 440.285C367.13 440.744 366.944 441.066 365.978 440.508C365.012 439.95 364.418 438.748 364.146 437.732C363.874 436.717 363.465 435.193 363.701 434.041C364.173 431.737 366.862 428.567 369.438 430.054L370.726 430.798Z" fill="url(#paint36_radial_38_417)"/>
<path fill-rule="evenodd" clip-rule="evenodd" d="M515.769 306.738C515.769 306.738 521.986 308.611 526.84 316.565C531.693 324.519 529.376 327.045 529.376 327.045C529.376 327.045 518.54 316.067 515.769 306.738Z" fill="url(#paint37_radial_38_417)"/>
<path fill-rule="evenodd" clip-rule="evenodd" d="M297.034 512.331C297.034 512.331 312.517 515.259 314.821 515.73C314.499 515.545 308.477 521.513 297.034 512.331Z" fill="url(#paint38_radial_38_417)"/>
<path fill-rule="evenodd" clip-rule="evenodd" d="M286.955 538.712C286.955 538.712 291.068 536.793 298.115 538.715C298.115 538.715 297.816 543.695 286.955 538.712Z" fill="url(#paint39_radial_38_417)"/>
</g>
<defs>
<filter id="filter0_d_38_417" x="-17.3307" y="-1.40878" width="823.712" height="823.983" filterUnits="userSpaceOnUse" color-interpolation-filters="sRGB">
<feFlood flood-opacity="0" result="BackgroundImageFix"/>
<feColorMatrix in="SourceAlpha" type="matrix" values="0 0 0 0 0 0 0 0 0 0 0 0 0 0 0 0 0 0 127 0" result="hardAlpha"/>
<feOffset/>
<feGaussianBlur stdDeviation="117.875"/>
<feComposite in2="hardAlpha" operator="out"/>
<feColorMatrix type="matrix" values="0 0 0 0 0 0 0 0 0 0.878431 0 0 0 0 1 0 0 0 1 0"/>
<feBlend mode="normal" in2="BackgroundImageFix" result="effect1_dropShadow_38_417"/>
<feBlend mode="normal" in="SourceGraphic" in2="effect1_dropShadow_38_417" result="shape"/>
</filter>
<radialGradient id="paint0_radial_38_417" cx="0" cy="0" r="1" gradientUnits="userSpaceOnUse" gradientTransform="translate(392.63 414.077) rotate(121.14) scale(184.421 176.027)">
<stop offset="0.0111732" stop-color="#00E0FF"/>
<stop offset="0.3713" stop-color="#04C9E4"/>
<stop offset="0.6354" stop-color="#0095FF"/>
<stop offset="0.868" stop-color="#13525B"/>
<stop offset="1" stop-color="#00E0FF"/>
</radialGradient>
<radialGradient id="paint1_radial_38_417" cx="0" cy="0" r="1" gradientUnits="userSpaceOnUse" gradientTransform="translate(498.375 334.272) rotate(121.741) scale(44.4929 64.8546)">
<stop offset="0.0111732" stop-color="#00E0FF" stop-opacity="0.878431"/>
<stop offset="0.3713" stop-color="#00E0FF"/>
<stop offset="0.6354" stop-color="#00E0FF"/>
<stop offset="0.868" stop-color="#00E0FF"/>
<stop offset="1" stop-color="#00E0FF"/>
</radialGradient>
<radialGradient id="paint2_radial_38_417" cx="0" cy="0" r="1" gradientUnits="userSpaceOnUse" gradientTransform="translate(417.131 270.484) rotate(121.817) scale(16.9882 25.8293)">
<stop offset="0.0111732" stop-color="#00E0FF" stop-opacity="0.878431"/>
<stop offset="0.3713" stop-color="#00E0FF"/>
<stop offset="0.6354" stop-color="#00E0FF"/>
<stop offset="0.868" stop-color="#00E0FF"/>
<stop offset="1" stop-color="#00E0FF"/>
</radialGradient>
<radialGradient id="paint3_radial_38_417" cx="0" cy="0" r="1" gradientUnits="userSpaceOnUse" gradientTransform="translate(417.113 271.11) rotate(121.908) scale(14.9673 23.8952)">
<stop offset="0.0111732" stop-color="#00E0FF" stop-opacity="0.878431"/>
<stop offset="0.3713" stop-color="#00E0FF"/>
<stop offset="0.6354" stop-color="#00E0FF"/>
<stop offset="0.868" stop-color="#00E0FF"/>
<stop offset="1" stop-color="#00E0FF"/>
</radialGradient>
<radialGradient id="paint4_radial_38_417" cx="0" cy="0" r="1" gradientUnits="userSpaceOnUse" gradientTransform="translate(416.588 273.657) rotate(122.219) scale(12.3068 22.8505)">
<stop offset="0.0111732" stop-color="#00E0FF" stop-opacity="0.878431"/>
<stop offset="0.3713" stop-color="#00E0FF"/>
<stop offset="0.6354" stop-color="#00E0FF"/>
<stop offset="0.868" stop-color="#00E0FF"/>
<stop offset="1" stop-color="#00E0FF"/>
</radialGradient>
<radialGradient id="paint5_radial_38_417" cx="0" cy="0" r="1" gradientUnits="userSpaceOnUse" gradientTransform="translate(365.457 403.725) rotate(112.532) scale(89.7366 103.97)">
<stop offset="0.0111732" stop-color="#00E0FF" stop-opacity="0.878431"/>
<stop offset="0.3713" stop-color="#00E0FF"/>
<stop offset="0.6354" stop-color="#00E0FF"/>
<stop offset="0.868" stop-color="#00E0FF"/>
<stop offset="1" stop-color="#00E0FF"/>
</radialGradient>
<radialGradient id="paint6_radial_38_417" cx="0" cy="0" r="1" gradientUnits="userSpaceOnUse" gradientTransform="translate(377.243 347.024) rotate(121.151) scale(132.48 127.698)">
<stop offset="0.0111732" stop-color="#00E0FF" stop-opacity="0.878431"/>
<stop offset="0.3713" stop-color="#00E0FF"/>
<stop offset="0.6354" stop-color="#00E0FF"/>
<stop offset="0.868" stop-color="#00E0FF"/>
<stop offset="1" stop-color="#00E0FF"/>
</radialGradient>
<radialGradient id="paint7_radial_38_417" cx="0" cy="0" r="1" gradientUnits="userSpaceOnUse" gradientTransform="translate(473.142 551.275) rotate(120.814) scale(24.3298 16.5821)">
<stop offset="0.0111732" stop-color="#00E0FF" stop-opacity="0.878431"/>
<stop offset="0.3713" stop-color="#00E0FF"/>
<stop offset="0.6354" stop-color="#00E0FF"/>
<stop offset="0.868" stop-color="#00E0FF"/>
<stop offset="1" stop-color="#00E0FF"/>
</radialGradient>
<radialGradient id="paint8_radial_38_417" cx="0" cy="0" r="1" gradientUnits="userSpaceOnUse" gradientTransform="translate(238.274 465.823) rotate(121.467) scale(12.0629 14.8131)">
<stop offset="0.0111732" stop-color="#00E0FF" stop-opacity="0.878431"/>
<stop offset="0.3713" stop-color="#00E0FF"/>
<stop offset="0.6354" stop-color="#00E0FF"/>
<stop offset="0.868" stop-color="#00E0FF"/>
<stop offset="1" stop-color="#00E0FF"/>
</radialGradient>
<radialGradient id="paint9_radial_38_417" cx="0" cy="0" r="1" gradientUnits="userSpaceOnUse" gradientTransform="translate(339.973 260.974) rotate(121.225) scale(8.33427 8.55016)">
<stop offset="0.0111732" stop-color="#00E0FF" stop-opacity="0.878431"/>
<stop offset="0.3713" stop-color="#00E0FF"/>
<stop offset="0.6354" stop-color="#00E0FF"/>
<stop offset="0.868" stop-color="#00E0FF"/>
<stop offset="1" stop-color="#00E0FF"/>
</radialGradient>
<radialGradient id="paint10_radial_38_417" cx="0" cy="0" r="1" gradientUnits="userSpaceOnUse" gradientTransform="translate(318.352 277.735) rotate(121.243) scale(1.52193 1.58401)">
<stop offset="0.0111732" stop-color="#00E0FF" stop-opacity="0.878431"/>
<stop offset="0.3713" stop-color="#00E0FF"/>
<stop offset="0.6354" stop-color="#00E0FF"/>
<stop offset="0.868" stop-color="#00E0FF"/>
<stop offset="1" stop-color="#00E0FF"/>
</radialGradient>
<radialGradient id="paint11_radial_38_417" cx="0" cy="0" r="1" gradientUnits="userSpaceOnUse" gradientTransform="translate(324.251 288.636) rotate(121.756) scale(0.905444 1.33062)">
<stop offset="0.0111732" stop-color="#00E0FF" stop-opacity="0.878431"/>
<stop offset="0.3713" stop-color="#00E0FF"/>
<stop offset="0.6354" stop-color="#00E0FF"/>
<stop offset="0.868" stop-color="#00E0FF"/>
<stop offset="1" stop-color="#00E0FF"/>
</radialGradient>
<radialGradient id="paint12_radial_38_417" cx="0" cy="0" r="1" gradientUnits="userSpaceOnUse" gradientTransform="translate(315.531 298.195) rotate(121.247) scale(2.80421 2.92748)">
<stop offset="0.0111732" stop-color="#00E0FF" stop-opacity="0.878431"/>
<stop offset="0.3713" stop-color="#00E0FF"/>
<stop offset="0.6354" stop-color="#00E0FF"/>
<stop offset="0.868" stop-color="#00E0FF"/>
<stop offset="1" stop-color="#00E0FF"/>
</radialGradient>
<radialGradient id="paint13_radial_38_417" cx="0" cy="0" r="1" gradientUnits="userSpaceOnUse" gradientTransform="translate(487.527 407.801) rotate(121.247) scale(2.80421 2.92748)">
<stop offset="0.0111732" stop-color="#00E0FF" stop-opacity="0.878431"/>
<stop offset="0.3713" stop-color="#00E0FF"/>
<stop offset="0.6354" stop-color="#00E0FF"/>
<stop offset="0.868" stop-color="#00E0FF"/>
<stop offset="1" stop-color="#00E0FF"/>
</radialGradient>
<radialGradient id="paint14_radial_38_417" cx="0" cy="0" r="1" gradientUnits="userSpaceOnUse" gradientTransform="translate(341.784 277.542) rotate(121.031) scale(1.5076 1.30121)">
<stop offset="0.0111732" stop-color="#00E0FF" stop-opacity="0.878431"/>
<stop offset="0.3713" stop-color="#00E0FF"/>
<stop offset="0.6354" stop-color="#00E0FF"/>
<stop offset="0.868" stop-color="#00E0FF"/>
<stop offset="1" stop-color="#00E0FF"/>
</radialGradient>
<radialGradient id="paint15_radial_38_417" cx="0" cy="0" r="1" gradientUnits="userSpaceOnUse" gradientTransform="translate(354.536 287.21) rotate(122.105) scale(0.464949 0.818996)">
<stop offset="0.0111732" stop-color="#00E0FF" stop-opacity="0.878431"/>
<stop offset="0.3713" stop-color="#00E0FF"/>
<stop offset="0.6354" stop-color="#00E0FF"/>
<stop offset="0.868" stop-color="#00E0FF"/>
<stop offset="1" stop-color="#00E0FF"/>
</radialGradient>
<radialGradient id="paint16_radial_38_417" cx="0" cy="0" r="1" gradientUnits="userSpaceOnUse" gradientTransform="translate(385.427 288.065) rotate(121.549) scale(1.05932 1.37385)">
<stop offset="0.0111732" stop-color="#00E0FF" stop-opacity="0.878431"/>
<stop offset="0.3713" stop-color="#00E0FF"/>
<stop offset="0.6354" stop-color="#00E0FF"/>
<stop offset="0.868" stop-color="#00E0FF"/>
<stop offset="1" stop-color="#00E0FF"/>
</radialGradient>
<radialGradient id="paint17_radial_38_417" cx="0" cy="0" r="1" gradientUnits="userSpaceOnUse" gradientTransform="translate(337.719 286.814) rotate(122.851) scale(0.389473 0.928428)">
<stop offset="0.0111732" stop-color="#00E0FF" stop-opacity="0.878431"/>
<stop offset="0.3713" stop-color="#00E0FF"/>
<stop offset="0.6354" stop-color="#00E0FF"/>
<stop offset="0.868" stop-color="#00E0FF"/>
<stop offset="1" stop-color="#00E0FF"/>
</radialGradient>
<radialGradient id="paint18_radial_38_417" cx="0" cy="0" r="1" gradientUnits="userSpaceOnUse" gradientTransform="translate(322.812 271.786) rotate(121.304) scale(1.16729 1.27426)">
<stop offset="0.0111732" stop-color="#00E0FF" stop-opacity="0.878431"/>
<stop offset="0.3713" stop-color="#00E0FF"/>
<stop offset="0.6354" stop-color="#00E0FF"/>
<stop offset="0.868" stop-color="#00E0FF"/>
<stop offset="1" stop-color="#00E0FF"/>
</radialGradient>
<radialGradient id="paint19_radial_38_417" cx="0" cy="0" r="1" gradientUnits="userSpaceOnUse" gradientTransform="translate(277.329 325.599) rotate(120.766) scale(1.73894 1.1154)">
<stop offset="0.0111732" stop-color="#00E0FF" stop-opacity="0.878431"/>
<stop offset="0.3713" stop-color="#00E0FF"/>
<stop offset="0.6354" stop-color="#00E0FF"/>
<stop offset="0.868" stop-color="#00E0FF"/>
<stop offset="1" stop-color="#00E0FF"/>
</radialGradient>
<radialGradient id="paint20_radial_38_417" cx="0" cy="0" r="1" gradientUnits="userSpaceOnUse" gradientTransform="translate(276.279 339.047) rotate(121.073) scale(3.15973 2.8389)">
<stop offset="0.0111732" stop-color="#00E0FF" stop-opacity="0.878431"/>
<stop offset="0.3713" stop-color="#00E0FF"/>
<stop offset="0.6354" stop-color="#00E0FF"/>
<stop offset="0.868" stop-color="#00E0FF"/>
<stop offset="1" stop-color="#00E0FF"/>
</radialGradient>
<radialGradient id="paint21_radial_38_417" cx="0" cy="0" r="1" gradientUnits="userSpaceOnUse" gradientTransform="translate(256.976 335.512) rotate(121.341) scale(2.67509 3.00259)">
<stop offset="0.0111732" stop-color="#00E0FF" stop-opacity="0.878431"/>
<stop offset="0.3713" stop-color="#00E0FF"/>
<stop offset="0.6354" stop-color="#00E0FF"/>
<stop offset="0.868" stop-color="#00E0FF"/>
<stop offset="1" stop-color="#00E0FF"/>
</radialGradient>
<radialGradient id="paint22_radial_38_417" cx="0" cy="0" r="1" gradientUnits="userSpaceOnUse" gradientTransform="translate(270.256 364.243) rotate(121.002) scale(1.55622 1.30521)">
<stop offset="0.0111732" stop-color="#00E0FF" stop-opacity="0.878431"/>
<stop offset="0.3713" stop-color="#00E0FF"/>
<stop offset="0.6354" stop-color="#00E0FF"/>
<stop offset="0.868" stop-color="#00E0FF"/>
<stop offset="1" stop-color="#00E0FF"/>
</radialGradient>
<radialGradient id="paint23_radial_38_417" cx="0" cy="0" r="1" gradientUnits="userSpaceOnUse" gradientTransform="translate(505.838 424.693) rotate(121.002) scale(1.55623 1.30521)">
<stop offset="0.0111732" stop-color="#00E0FF" stop-opacity="0.878431"/>
<stop offset="0.3713" stop-color="#00E0FF"/>
<stop offset="0.6354" stop-color="#00E0FF"/>
<stop offset="0.868" stop-color="#00E0FF"/>
<stop offset="1" stop-color="#00E0FF"/>
</radialGradient>
<radialGradient id="paint24_radial_38_417" cx="0" cy="0" r="1" gradientUnits="userSpaceOnUse" gradientTransform="translate(467.314 541.986) rotate(121.002) scale(1.55623 1.30521)">
<stop offset="0.0111732" stop-color="#00E0FF" stop-opacity="0.878431"/>
<stop offset="0.3713" stop-color="#00E0FF"/>
<stop offset="0.6354" stop-color="#00E0FF"/>
<stop offset="0.868" stop-color="#00E0FF"/>
<stop offset="1" stop-color="#00E0FF"/>
</radialGradient>
<radialGradient id="paint25_radial_38_417" cx="0" cy="0" r="1" gradientUnits="userSpaceOnUse" gradientTransform="translate(282.96 390.004) rotate(121.077) scale(3.10655 2.80045)">
<stop offset="0.0111732" stop-color="#00E0FF" stop-opacity="0.878431"/>
<stop offset="0.3713" stop-color="#00E0FF"/>
<stop offset="0.6354" stop-color="#00E0FF"/>
<stop offset="0.868" stop-color="#00E0FF"/>
<stop offset="1" stop-color="#00E0FF"/>
</radialGradient>
<radialGradient id="paint26_radial_38_417" cx="0" cy="0" r="1" gradientUnits="userSpaceOnUse" gradientTransform="translate(350.202 338.235) rotate(121.077) scale(3.10655 2.80045)">
<stop offset="0.0111732" stop-color="#00E0FF" stop-opacity="0.878431"/>
<stop offset="0.3713" stop-color="#00E0FF"/>
<stop offset="0.6354" stop-color="#00E0FF"/>
<stop offset="0.868" stop-color="#00E0FF"/>
<stop offset="1" stop-color="#00E0FF"/>
</radialGradient>
<radialGradient id="paint27_radial_38_417" cx="0" cy="0" r="1" gradientUnits="userSpaceOnUse" gradientTransform="translate(235.223 422.12) rotate(121.077) scale(3.10655 2.80045)">
<stop offset="0.0111732" stop-color="#00E0FF" stop-opacity="0.878431"/>
<stop offset="0.3713" stop-color="#00E0FF"/>
<stop offset="0.6354" stop-color="#00E0FF"/>
<stop offset="0.868" stop-color="#00E0FF"/>
<stop offset="1" stop-color="#00E0FF"/>
</radialGradient>
<radialGradient id="paint28_radial_38_417" cx="0" cy="0" r="1" gradientUnits="userSpaceOnUse" gradientTransform="translate(375.668 419.056) rotate(121.077) scale(3.10655 2.80045)">
<stop offset="0.0111732" stop-color="#00E0FF" stop-opacity="0.878431"/>
<stop offset="0.3713" stop-color="#00E0FF"/>
<stop offset="0.6354" stop-color="#00E0FF"/>
<stop offset="0.868" stop-color="#00E0FF"/>
<stop offset="1" stop-color="#00E0FF"/>
</radialGradient>
<radialGradient id="paint29_radial_38_417" cx="0" cy="0" r="1" gradientUnits="userSpaceOnUse" gradientTransform="translate(315.101 307.504) rotate(121.014) scale(4.42553 3.75739)">
<stop offset="0.0111732" stop-color="#00E0FF" stop-opacity="0.878431"/>
<stop offset="0.3713" stop-color="#00E0FF"/>
<stop offset="0.6354" stop-color="#00E0FF"/>
<stop offset="0.868" stop-color="#00E0FF"/>
<stop offset="1" stop-color="#00E0FF"/>
</radialGradient>
<radialGradient id="paint30_radial_38_417" cx="0" cy="0" r="1" gradientUnits="userSpaceOnUse" gradientTransform="translate(306.357 307.595) rotate(121.167) scale(1.75085 1.71029)">
<stop offset="0.0111732" stop-color="#00E0FF" stop-opacity="0.878431"/>
<stop offset="0.3713" stop-color="#00E0FF"/>
<stop offset="0.6354" stop-color="#00E0FF"/>
<stop offset="0.868" stop-color="#00E0FF"/>
<stop offset="1" stop-color="#00E0FF"/>
</radialGradient>
<radialGradient id="paint31_radial_38_417" cx="0" cy="0" r="1" gradientUnits="userSpaceOnUse" gradientTransform="translate(374.683 257.771) rotate(120.842) scale(5.30376 3.73991)">
<stop offset="0.0111732" stop-color="#00E0FF" stop-opacity="0.878431"/>
<stop offset="0.3713" stop-color="#00E0FF"/>
<stop offset="0.6354" stop-color="#00E0FF"/>
<stop offset="0.868" stop-color="#00E0FF"/>
<stop offset="1" stop-color="#00E0FF"/>
</radialGradient>
<radialGradient id="paint32_radial_38_417" cx="0" cy="0" r="1" gradientUnits="userSpaceOnUse" gradientTransform="translate(381.374 261.435) rotate(120.711) scale(3.49919 2.08429)">
<stop offset="0.0111732" stop-color="#00E0FF" stop-opacity="0.878431"/>
<stop offset="0.3713" stop-color="#00E0FF"/>
<stop offset="0.6354" stop-color="#00E0FF"/>
<stop offset="0.868" stop-color="#00E0FF"/>
<stop offset="1" stop-color="#00E0FF"/>
</radialGradient>
<radialGradient id="paint33_radial_38_417" cx="0" cy="0" r="1" gradientUnits="userSpaceOnUse" gradientTransform="translate(268.012 315.399) rotate(120.501) scale(7.60913 3.19019)">
<stop offset="0.0111732" stop-color="#00E0FF" stop-opacity="0.878431"/>
<stop offset="0.3713" stop-color="#00E0FF"/>
<stop offset="0.6354" stop-color="#00E0FF"/>
<stop offset="0.868" stop-color="#00E0FF"/>
<stop offset="1" stop-color="#00E0FF"/>
</radialGradient>
<radialGradient id="paint34_radial_38_417" cx="0" cy="0" r="1" gradientUnits="userSpaceOnUse" gradientTransform="translate(280.156 296.443) rotate(120.769) scale(3.10379 1.99841)">
<stop offset="0.0111732" stop-color="#00E0FF" stop-opacity="0.878431"/>
<stop offset="0.3713" stop-color="#00E0FF"/>
<stop offset="0.6354" stop-color="#00E0FF"/>
<stop offset="0.868" stop-color="#00E0FF"/>
<stop offset="1" stop-color="#00E0FF"/>
</radialGradient>
<radialGradient id="paint35_radial_38_417" cx="0" cy="0" r="1" gradientUnits="userSpaceOnUse" gradientTransform="translate(429.745 325.262) rotate(121.044) scale(5.6414 4.93204)">
<stop offset="0.0111732" stop-color="#00E0FF" stop-opacity="0.878431"/>
<stop offset="0.3713" stop-color="#00E0FF"/>
<stop offset="0.6354" stop-color="#00E0FF"/>
<stop offset="0.868" stop-color="#00E0FF"/>
<stop offset="1" stop-color="#00E0FF"/>
</radialGradient>
<radialGradient id="paint36_radial_38_417" cx="0" cy="0" r="1" gradientUnits="userSpaceOnUse" gradientTransform="translate(368.146 435.673) rotate(121.044) scale(5.6414 4.93204)">
<stop offset="0.0111732" stop-color="#00E0FF" stop-opacity="0.878431"/>
<stop offset="0.3713" stop-color="#00E0FF"/>
<stop offset="0.6354" stop-color="#00E0FF"/>
<stop offset="0.868" stop-color="#00E0FF"/>
<stop offset="1" stop-color="#00E0FF"/>
</radialGradient>
<radialGradient id="paint37_radial_38_417" cx="0" cy="0" r="1" gradientUnits="userSpaceOnUse" gradientTransform="translate(522.578 316.9) rotate(122.272) scale(5.76948 10.9692)">
<stop offset="0.0111732" stop-color="#00E0FF" stop-opacity="0.878431"/>
<stop offset="0.3713" stop-color="#00E0FF"/>
<stop offset="0.6354" stop-color="#00E0FF"/>
<stop offset="0.868" stop-color="#00E0FF"/>
<stop offset="1" stop-color="#00E0FF"/>
</radialGradient>
<radialGradient id="paint38_radial_38_417" cx="0" cy="0" r="1" gradientUnits="userSpaceOnUse" gradientTransform="translate(305.796 514.259) rotate(123.079) scale(3.31843 8.53978)">
<stop offset="0.0111732" stop-color="#00E0FF" stop-opacity="0.878431"/>
<stop offset="0.3713" stop-color="#00E0FF"/>
<stop offset="0.6354" stop-color="#00E0FF"/>
<stop offset="0.868" stop-color="#00E0FF"/>
<stop offset="1" stop-color="#00E0FF"/>
</radialGradient>
<radialGradient id="paint39_radial_38_417" cx="0" cy="0" r="1" gradientUnits="userSpaceOnUse" gradientTransform="translate(292.576 538.809) rotate(122.011) scale(2.91928 4.91375)">
<stop offset="0.0111732" stop-color="#00E0FF" stop-opacity="0.878431"/>
<stop offset="0.3713" stop-color="#00E0FF"/>
<stop offset="0.6354" stop-color="#00E0FF"/>
<stop offset="0.868" stop-color="#00E0FF"/>
<stop offset="1" stop-color="#00E0FF"/>
</radialGradient>
</defs>
</svg>
